<svg xmlns="http://www.w3.org/2000/svg" xmlns:xlink="http://www.w3.org/1999/xlink" width="1920" zoomAndPan="magnify" viewBox="0 0 1440 809.999993" height="1080" preserveAspectRatio="xMidYMid meet" version="1.0"><defs><clipPath id="fe22b13127"><path d="M 262.617188 155.316406 L 1124.746094 155.316406 L 1124.746094 193.085938 L 262.617188 193.085938 Z M 262.617188 155.316406 " clip-rule="nonzero"/></clipPath><clipPath id="37287f56a4"><path d="M 544.992188 478.640625 L 568.992188 478.640625 L 568.992188 528.421875 L 544.992188 528.421875 Z M 544.992188 478.640625 " clip-rule="nonzero"/></clipPath><clipPath id="86d362e088"><path d="M 503.800781 443.539062 L 557.289062 443.539062 L 557.289062 549.386719 L 503.800781 549.386719 Z M 503.800781 443.539062 " clip-rule="nonzero"/></clipPath><clipPath id="7b1bf31c0d"><path d="M 514.601562 368.539062 L 568.089844 368.539062 L 568.089844 458.554688 L 514.601562 458.554688 Z M 514.601562 368.539062 " clip-rule="nonzero"/></clipPath><clipPath id="4c2f3832ee"><path d="M 443.082031 367.4375 L 526.992188 367.4375 L 526.992188 579.140625 L 443.082031 579.140625 Z M 443.082031 367.4375 " clip-rule="nonzero"/></clipPath><clipPath id="f8ea6b1c22"><path d="M 442.898438 570.140625 L 568.390625 570.140625 L 568.390625 580.007812 L 442.898438 580.007812 Z M 442.898438 570.140625 " clip-rule="nonzero"/></clipPath><clipPath id="d35ca4326d"><path d="M 443.0625 579.140625 L 708.269531 579.140625 L 708.269531 590.257812 L 443.0625 590.257812 Z M 443.0625 579.140625 " clip-rule="nonzero"/></clipPath><clipPath id="68e980fdf9"><path d="M 304.027344 587.941406 L 708.8125 587.941406 L 708.8125 651.433594 L 304.027344 651.433594 Z M 304.027344 587.941406 " clip-rule="nonzero"/></clipPath><clipPath id="3b5936b58c"><path d="M 262.617188 189.734375 L 307.382812 189.734375 L 307.382812 651.433594 L 262.617188 651.433594 Z M 262.617188 189.734375 " clip-rule="nonzero"/></clipPath><clipPath id="6eb5747f41"><path d="M 1172.570312 132.441406 L 1177.761719 132.441406 L 1177.761719 157.964844 L 1172.570312 157.964844 Z M 1172.570312 132.441406 " clip-rule="nonzero"/></clipPath><clipPath id="16e2e277ae"><path d="M 1122.285156 155.316406 L 1175.777344 155.316406 L 1175.777344 242.167969 L 1122.285156 242.167969 Z M 1122.285156 155.316406 " clip-rule="nonzero"/></clipPath><clipPath id="787086e152"><path d="M 1121.28125 238.90625 L 1130.203125 238.90625 L 1130.203125 247.714844 L 1121.28125 247.714844 Z M 1121.28125 238.90625 " clip-rule="nonzero"/></clipPath><clipPath id="c5174c84fd"><path d="M 1130.175781 242.101562 C 1128.976562 246.824219 1128.449219 247.273438 1127.699219 247.5 C 1126.648438 247.875 1124.476562 247.726562 1123.5 247.273438 C 1122.824219 246.976562 1122.375 246.300781 1122 245.773438 C 1121.625 245.175781 1121.324219 244.5 1121.324219 243.675781 C 1121.398438 242.625 1122.300781 240.675781 1123.050781 239.851562 C 1123.648438 239.324219 1124.25 239.023438 1125 238.949219 C 1126.125 238.949219 1129.050781 240.226562 1129.050781 240.226562 " clip-rule="nonzero"/></clipPath><clipPath id="0a8b2c5008"><path d="M 969.917969 367.4375 L 999.695312 367.4375 L 999.695312 381.988281 L 969.917969 381.988281 Z M 969.917969 367.4375 " clip-rule="nonzero"/></clipPath><clipPath id="e6640d40c1"><path d="M 949 367 L 1000 367 L 1000 427 L 949 427 Z M 949 367 " clip-rule="nonzero"/></clipPath><clipPath id="38e6aa21d2"><path d="M 979.425781 367.4375 L 999.695312 380.902344 L 969.3125 426.636719 L 949.042969 413.175781 Z M 979.425781 367.4375 " clip-rule="nonzero"/></clipPath><clipPath id="fd9bca3766"><path d="M 953 425 L 988 425 L 988 461 L 953 461 Z M 953 425 " clip-rule="nonzero"/></clipPath><clipPath id="55ffedbafa"><path d="M 969.511719 425.105469 L 987.820312 437.839844 L 971.851562 460.804688 L 953.542969 448.070312 Z M 969.511719 425.105469 " clip-rule="nonzero"/></clipPath><clipPath id="203e42d1b7"><path d="M 980.503906 435.105469 L 989.371094 435.105469 L 989.371094 443.914062 L 980.503906 443.914062 Z M 980.503906 435.105469 " clip-rule="nonzero"/></clipPath><clipPath id="67d4e5e0db"><path d="M 989.324219 438.300781 C 988.199219 443.023438 987.675781 443.476562 986.925781 443.699219 C 985.875 444.074219 983.699219 443.925781 982.726562 443.476562 C 981.976562 443.175781 981.601562 442.5 981.226562 441.976562 C 980.851562 441.375 980.550781 440.699219 980.550781 439.875 C 980.625 438.824219 981.523438 436.875 982.273438 436.050781 C 982.800781 435.523438 983.476562 435.226562 984.226562 435.148438 C 985.351562 435.148438 988.199219 436.425781 988.199219 436.425781 " clip-rule="nonzero"/></clipPath><clipPath id="04d156996a"><path d="M 948.917969 367.4375 L 971.371094 367.4375 L 971.371094 488.445312 L 948.917969 488.445312 Z M 948.917969 367.4375 " clip-rule="nonzero"/></clipPath><clipPath id="d63f20e1cd"><path d="M 894.832031 486.152344 L 915.554688 486.152344 L 915.554688 500.84375 L 894.832031 500.84375 Z M 894.832031 486.152344 " clip-rule="nonzero"/></clipPath><clipPath id="1f0443b604"><path d="M 903.75 489.675781 C 904.273438 491.101562 902.101562 489.675781 902.101562 489.675781 C 902.175781 489.601562 904.351562 490.351562 905.101562 491.101562 C 905.773438 491.851562 906.375 493.050781 906.300781 494.101562 C 906.300781 495.375 905.398438 497.25 904.425781 498 C 903.601562 498.675781 902.398438 499.050781 901.273438 498.898438 C 899.851562 498.601562 897.824219 496.648438 896.773438 495.449219 C 895.949219 494.550781 895.125 493.726562 894.976562 492.75 C 894.75 491.773438 895.125 490.351562 895.726562 489.523438 C 896.25 488.625 897.375 487.800781 898.425781 487.5 C 899.398438 487.273438 900.824219 487.425781 901.726562 487.875 C 902.699219 488.324219 904.199219 490.050781 904.050781 490.273438 C 903.824219 490.648438 897.675781 488.101562 897.75 487.726562 C 897.824219 487.5 900.976562 487.273438 902.324219 487.875 C 903.976562 488.625 906.074219 490.726562 906.523438 492.300781 C 906.976562 493.648438 906.601562 495.675781 905.773438 496.648438 C 904.949219 497.699219 902.851562 498.449219 901.726562 498.523438 C 900.898438 498.601562 900.148438 498.300781 899.476562 497.851562 C 898.726562 497.324219 897.300781 495.226562 897.375 495.148438 C 897.523438 495.074219 901.199219 498.300781 901.125 498.449219 C 901.050781 498.601562 897.75 497.023438 896.773438 495.898438 C 895.949219 495 895.425781 493.726562 895.199219 492.601562 C 894.976562 491.476562 894.976562 490.125 895.425781 489.148438 C 895.800781 488.101562 896.851562 487.125 897.824219 486.675781 C 898.800781 486.226562 900.226562 486 901.273438 486.375 C 902.476562 486.824219 904.726562 488.699219 904.5 489.601562 C 904.351562 490.648438 899.925781 490.574219 898.875 491.925781 C 897.898438 493.273438 898.5 497.625 898.351562 497.625 C 898.273438 497.625 897.523438 493.648438 898.199219 492.148438 C 898.726562 490.800781 900.226562 489.449219 901.574219 489.074219 C 902.925781 488.625 904.5 489.226562 906.226562 489.523438 C 908.25 489.898438 911.324219 490.125 912.898438 491.25 C 914.175781 492.148438 915.375 493.875 915.523438 495.226562 C 915.601562 496.648438 914.699219 498.75 913.648438 499.648438 C 912.523438 500.550781 910.273438 501 908.925781 500.550781 C 907.574219 500.175781 906 498.601562 905.550781 497.25 C 905.101562 495.898438 905.550781 493.648438 906.449219 492.523438 C 907.273438 491.398438 909.375 490.5 910.800781 490.574219 C 912.226562 490.726562 914.101562 492.074219 914.851562 493.125 C 915.449219 494.023438 915.675781 495.300781 915.449219 496.351562 C 915.226562 497.625 913.875 499.574219 912.675781 500.25 C 911.773438 500.851562 910.648438 500.925781 909.449219 500.699219 C 908.023438 500.398438 905.25 499.351562 904.726562 498 C 904.199219 496.726562 906.601562 492.675781 906.675781 492.75 C 906.675781 492.75 906.300781 496.574219 905.175781 497.476562 C 903.75 498.523438 899.851562 498.601562 898.125 497.625 C 896.625 496.800781 895.648438 493.949219 895.199219 492.601562 C 894.976562 491.699219 894.898438 491.023438 895.050781 490.273438 C 895.273438 489.300781 895.875 487.875 896.851562 487.273438 C 897.898438 486.523438 900 486.074219 901.273438 486.375 C 902.398438 486.675781 903.523438 487.875 904.050781 488.550781 C 904.351562 488.925781 904.648438 489.449219 904.5 489.601562 C 904.351562 489.75 902.625 488.851562 902.550781 489 C 902.398438 489.226562 906.074219 490.949219 906.523438 492.300781 C 907.050781 493.574219 906.449219 495.675781 905.773438 496.648438 C 905.175781 497.625 903.824219 498.226562 902.851562 498.449219 C 902.101562 498.675781 901.273438 498.523438 900.601562 498.300781 C 899.851562 498.074219 899.101562 497.699219 898.574219 497.175781 C 898.050781 496.574219 897.148438 495.300781 897.375 495 C 897.675781 494.625 901.726562 496.351562 901.800781 496.273438 C 901.800781 496.199219 896.175781 495.148438 895.273438 493.875 C 894.675781 492.976562 894.898438 491.476562 895.199219 490.5 C 895.425781 489.75 895.875 489.148438 896.398438 488.625 C 897 488.101562 897.601562 487.726562 898.425781 487.5 C 899.324219 487.351562 900.824219 487.425781 901.726562 487.875 C 902.699219 488.324219 904.125 490.125 904.050781 490.273438 C 903.898438 490.425781 902.101562 489.675781 902.101562 489.675781 C 902.101562 489.675781 903.601562 489.898438 904.199219 490.351562 C 904.949219 490.949219 905.925781 492 906.148438 493.050781 C 906.449219 494.023438 906.300781 495.375 905.851562 496.273438 C 905.398438 497.175781 904.425781 498.148438 903.449219 498.523438 C 902.398438 498.976562 900.824219 498.976562 899.699219 498.523438 C 898.425781 497.925781 897 496.273438 896.25 495.074219 C 895.648438 494.023438 895.125 492.75 895.199219 491.625 C 895.199219 490.574219 895.800781 489.300781 896.398438 488.625 C 896.851562 488.023438 897.449219 487.648438 898.199219 487.425781 C 899.101562 487.125 900.449219 487.125 901.425781 487.5 C 902.324219 487.875 903.75 489.675781 903.75 489.675781 " clip-rule="nonzero"/></clipPath><clipPath id="7c62769ac1"><path d="M 896.191406 490.746094 L 958.601562 490.746094 L 958.601562 542.972656 L 896.191406 542.972656 Z M 896.191406 490.746094 " clip-rule="nonzero"/></clipPath><clipPath id="6e37b70e56"><path d="M 916 216 L 1176 216 L 1176 560 L 916 560 Z M 916 216 " clip-rule="nonzero"/></clipPath><clipPath id="63e437a258"><path d="M 1140.117188 216.988281 L 1175.539062 241.972656 L 951.550781 559.546875 L 916.128906 534.5625 Z M 1140.117188 216.988281 " clip-rule="nonzero"/></clipPath><clipPath id="63505e5a7c"><path d="M 1031 342 L 1052 342 L 1052 362 L 1031 362 Z M 1031 342 " clip-rule="nonzero"/></clipPath><clipPath id="a3458bfb0f"><path d="M 1038.839844 342.503906 L 1051.992188 352.035156 L 1045.019531 361.664062 L 1031.863281 352.132812 Z M 1038.839844 342.503906 " clip-rule="nonzero"/></clipPath><clipPath id="0f3ba26938"><path d="M 1031.867188 340.574219 L 1074.800781 340.574219 L 1074.800781 351.304688 L 1031.867188 351.304688 Z M 1031.867188 340.574219 " clip-rule="nonzero"/></clipPath><clipPath id="57ab638a9a"><path d="M 991.886719 335.472656 L 1106.480469 335.472656 L 1106.480469 343.574219 L 991.886719 343.574219 Z M 991.886719 335.472656 " clip-rule="nonzero"/></clipPath><clipPath id="d1397710fb"><path d="M 262.746094 118.035156 L 335.175781 118.035156 L 335.175781 157.964844 L 262.746094 157.964844 Z M 262.746094 118.035156 " clip-rule="nonzero"/></clipPath><clipPath id="c5630aac4f"><path d="M 888 366.75 L 930.539062 366.75 L 930.539062 385.777344 L 888 385.777344 Z M 888 366.75 " clip-rule="nonzero"/></clipPath><clipPath id="b27f5de195"><path d="M 888.074219 374.398438 C 888.523438 372.898438 888.449219 372.75 888.449219 372.75 C 888.449219 372.75 888.449219 372.375 888.449219 372.148438 C 888.449219 371.925781 888.449219 371.476562 888.449219 371.476562 C 888.449219 371.476562 888.601562 371.101562 888.601562 370.875 C 888.675781 370.648438 888.824219 370.273438 888.824219 370.273438 C 888.824219 370.273438 888.976562 369.898438 889.125 369.675781 C 889.199219 369.523438 889.425781 369.148438 889.425781 369.148438 C 889.425781 369.148438 889.648438 368.851562 889.800781 368.625 C 889.949219 368.476562 890.25 368.175781 890.25 368.175781 C 890.25 368.175781 890.625 367.949219 890.773438 367.800781 C 890.925781 367.726562 891.300781 367.5 891.300781 367.5 C 891.300781 367.5 891.75 367.351562 891.898438 367.273438 C 892.125 367.199219 892.5 367.050781 892.5 367.050781 C 892.5 367.050781 892.949219 366.976562 893.175781 366.976562 C 893.324219 366.976562 893.773438 366.898438 893.773438 366.898438 C 893.773438 366.898438 896.699219 366.976562 898.351562 367.125 C 900.226562 367.273438 902.625 367.800781 904.574219 367.800781 C 906.226562 367.800781 907.574219 367.574219 909.148438 367.425781 C 910.648438 367.273438 912.074219 366.976562 913.648438 367.050781 C 915.523438 367.050781 917.699219 367.648438 919.648438 367.574219 C 921.375 367.5 923.101562 366.523438 924.675781 366.824219 C 926.175781 367.050781 927.75 367.949219 928.726562 369 C 929.699219 370.050781 930.523438 372.226562 930.523438 373.351562 C 930.449219 374.023438 929.699219 374.625 929.699219 375.074219 C 929.699219 375.300781 929.773438 375.375 929.773438 375.601562 C 929.851562 376.050781 929.773438 376.875 929.625 377.398438 C 929.476562 377.851562 929.023438 378.300781 929.023438 378.601562 C 929.023438 378.898438 929.324219 379.050781 929.476562 379.351562 C 929.625 379.648438 929.699219 380.023438 929.773438 380.398438 C 929.851562 380.699219 929.851562 381.074219 929.851562 381.449219 C 929.851562 381.824219 929.773438 382.199219 929.625 382.574219 C 929.550781 382.875 929.398438 383.25 929.175781 383.550781 C 929.023438 383.851562 928.800781 384.148438 928.5 384.375 C 928.273438 384.675781 927.976562 384.898438 927.675781 385.050781 C 927.375 385.273438 927 385.425781 926.699219 385.5 C 926.324219 385.648438 925.949219 385.726562 925.574219 385.726562 C 925.199219 385.726562 924.824219 385.726562 924.523438 385.648438 C 924.148438 385.574219 923.773438 385.5 923.476562 385.351562 C 923.101562 385.199219 922.800781 384.976562 922.5 384.75 C 922.199219 384.523438 921.75 384 921.75 384 C 921.75 384 921.226562 383.101562 920.925781 383.101562 C 920.851562 383.023438 920.773438 383.175781 920.550781 383.175781 C 919.875 383.175781 917.550781 381.898438 916.050781 381.601562 C 914.550781 381.226562 913.050781 381.375 911.398438 381.226562 C 909.675781 381.074219 907.726562 381.074219 905.851562 380.773438 C 903.824219 380.476562 901.574219 379.5 899.625 379.5 C 897.976562 379.5 896.625 380.550781 895.050781 380.476562 C 893.324219 380.324219 890.925781 379.800781 889.726562 378.675781 C 888.675781 377.699219 888.074219 374.398438 888.074219 374.398438 " clip-rule="nonzero"/></clipPath><clipPath id="5c5b1f4a75"><path d="M 653.054688 454.332031 L 864.414062 454.332031 L 864.414062 485.882812 L 653.054688 485.882812 Z M 653.054688 454.332031 " clip-rule="nonzero"/></clipPath><clipPath id="226ff21ae2"><path d="M 594.328125 367.640625 L 863.519531 367.640625 L 863.519531 458.855469 L 594.328125 458.855469 Z M 594.328125 367.640625 " clip-rule="nonzero"/></clipPath><clipPath id="eab4535bd3"><path d="M 594.929688 477.738281 L 863.816406 477.738281 L 863.816406 543.15625 L 594.929688 543.15625 Z M 594.929688 477.738281 " clip-rule="nonzero"/></clipPath><clipPath id="a068f99126"><path d="M 328.6875 367.640625 L 420.582031 367.640625 L 420.582031 568 L 328.6875 568 Z M 328.6875 367.640625 " clip-rule="nonzero"/></clipPath><clipPath id="c34ea5f124"><path d="M 328.441406 215.457031 L 420.5625 215.457031 L 420.5625 342.863281 L 328.441406 342.863281 Z M 328.441406 215.457031 " clip-rule="nonzero"/></clipPath><clipPath id="08e9188e6f"><path d="M 443.0625 215.457031 L 530.929688 215.457031 L 530.929688 342.863281 L 443.0625 342.863281 Z M 443.0625 215.457031 " clip-rule="nonzero"/></clipPath><clipPath id="c003643edf"><path d="M 552.335938 215.097656 L 652.992188 215.097656 L 652.992188 342.503906 L 552.335938 342.503906 Z M 552.335938 215.097656 " clip-rule="nonzero"/></clipPath><clipPath id="1b25077237"><path d="M 674.054688 215.097656 L 752.539062 215.097656 L 752.539062 342.503906 L 674.054688 342.503906 Z M 674.054688 215.097656 " clip-rule="nonzero"/></clipPath><clipPath id="703b3b36f8"><path d="M 775.039062 215.097656 L 862.894531 215.097656 L 862.894531 342.503906 L 775.039062 342.503906 Z M 775.039062 215.097656 " clip-rule="nonzero"/></clipPath><clipPath id="08c9b444f6"><path d="M 883.851562 215.097656 L 970.285156 215.097656 L 970.285156 342.503906 L 883.851562 342.503906 Z M 883.851562 215.097656 " clip-rule="nonzero"/></clipPath><clipPath id="1f297bb387"><path d="M 992.242188 215.601562 L 1045.734375 215.601562 L 1045.734375 314.621094 L 992.242188 314.621094 Z M 992.242188 215.601562 " clip-rule="nonzero"/></clipPath><clipPath id="eefeb85021"><path d="M 1041.71875 214.886719 L 1097.917969 214.886719 L 1097.917969 242.757812 L 1041.71875 242.757812 Z M 1041.71875 214.886719 " clip-rule="nonzero"/></clipPath><clipPath id="d8031c9e46"><path d="M 1011 216 L 1098 216 L 1098 315 L 1011 315 Z M 1011 216 " clip-rule="nonzero"/></clipPath><clipPath id="63607d91cf"><path d="M 1064.347656 216.863281 L 1098 241.015625 L 1045.550781 314.101562 L 1011.898438 289.949219 Z M 1064.347656 216.863281 " clip-rule="nonzero"/></clipPath></defs><rect x="-144" width="1728" fill="#ffffff" y="-80.999999" height="971.999992" fill-opacity="1"/><g clip-path="url(#fe22b13127)"><path fill="#d9e8f5" d="M 262.617188 155.316406 L 1124.675781 155.316406 L 1124.675781 193.085938 L 262.617188 193.085938 Z M 262.617188 155.316406 " fill-opacity="1" fill-rule="nonzero"/></g><g clip-path="url(#37287f56a4)"><path fill="#d9e8f5" d="M 544.992188 478.640625 L 568.992188 478.640625 L 568.992188 528.421875 L 544.992188 528.421875 Z M 544.992188 478.640625 " fill-opacity="1" fill-rule="nonzero"/></g><g clip-path="url(#86d362e088)"><path fill="#d9e8f5" d="M 503.800781 443.539062 L 557.289062 443.539062 L 557.289062 549.476562 L 503.800781 549.476562 Z M 503.800781 443.539062 " fill-opacity="1" fill-rule="nonzero"/></g><g clip-path="url(#7b1bf31c0d)"><path fill="#d9e8f5" d="M 514.601562 368.539062 L 568.089844 368.539062 L 568.089844 458.59375 L 514.601562 458.59375 Z M 514.601562 368.539062 " fill-opacity="1" fill-rule="nonzero"/></g><g clip-path="url(#4c2f3832ee)"><path fill="#d9e8f5" d="M 443.082031 367.4375 L 526.992188 367.4375 L 526.992188 579.179688 L 443.082031 579.179688 Z M 443.082031 367.4375 " fill-opacity="1" fill-rule="nonzero"/></g><g clip-path="url(#f8ea6b1c22)"><path fill="#d9e8f5" d="M 442.898438 570.140625 L 568.394531 570.140625 L 568.394531 580.007812 L 442.898438 580.007812 Z M 442.898438 570.140625 " fill-opacity="1" fill-rule="nonzero"/></g><g clip-path="url(#d35ca4326d)"><path fill="#d9e8f5" d="M 443.0625 579.140625 L 708.273438 579.140625 L 708.273438 590.257812 L 443.0625 590.257812 Z M 443.0625 579.140625 " fill-opacity="1" fill-rule="nonzero"/></g><g clip-path="url(#68e980fdf9)"><path fill="#d9e8f5" d="M 304.027344 587.941406 L 708.804688 587.941406 L 708.804688 651.433594 L 304.027344 651.433594 Z M 304.027344 587.941406 " fill-opacity="1" fill-rule="nonzero"/></g><g clip-path="url(#3b5936b58c)"><path fill="#d9e8f5" d="M 262.617188 189.734375 L 307.382812 189.734375 L 307.382812 651.375 L 262.617188 651.375 Z M 262.617188 189.734375 " fill-opacity="1" fill-rule="nonzero"/></g><path stroke-linecap="butt" transform="matrix(0.75, 0.000000000000000036, -0.000000000000000036, 0.75, 262.617562, 649.935155)" fill="none" stroke-linejoin="miter" d="M -0.00049908 1.997918 L 594.926614 1.997918 " stroke="#304269" stroke-width="4" stroke-opacity="1" stroke-miterlimit="4"/><path stroke-linecap="butt" transform="matrix(0, 0.75, -0.75, 0, 710.310138, 579.715959)" fill="none" stroke-linejoin="miter" d="M -0.00148678 2.00206 L 111.14956 2.00206 " stroke="#304269" stroke-width="4" stroke-opacity="1" stroke-miterlimit="4"/><path stroke-linecap="butt" transform="matrix(0.739013, 0.127906, -0.127906, 0.739013, 709.069435, 661.597667)" fill="none" stroke-linejoin="miter" d="M -0.00180908 1.998319 L 223.369389 1.997952 " stroke="#304269" stroke-width="4" stroke-opacity="1" stroke-miterlimit="4"/><path stroke-linecap="butt" transform="matrix(-0.430023, 0.614476, -0.614476, -0.430023, 953.238414, 580.870767)" fill="none" stroke-linejoin="miter" d="M 0.00235122 2.00104 L 181.679842 2.000312 " stroke="#304269" stroke-width="4" stroke-opacity="1" stroke-miterlimit="4"/><path stroke-linecap="butt" transform="matrix(0.424489, 0.618312, -0.618312, 0.424489, 946.545895, 569.399751)" fill="none" stroke-linejoin="miter" d="M 0.000886453 2.001704 L 15.789662 2.000135 " stroke="#304269" stroke-width="4" stroke-opacity="1" stroke-miterlimit="4"/><g clip-path="url(#6eb5747f41)"><path fill="#d9e8f5" d="M 1172.570312 132.441406 L 1177.761719 132.441406 L 1177.761719 157.960938 L 1172.570312 157.960938 Z M 1172.570312 132.441406 " fill-opacity="1" fill-rule="nonzero"/></g><g clip-path="url(#16e2e277ae)"><path fill="#d9e8f5" d="M 1122.285156 155.316406 L 1175.777344 155.316406 L 1175.777344 242.238281 L 1122.285156 242.238281 Z M 1122.285156 155.316406 " fill-opacity="1" fill-rule="nonzero"/></g><g clip-path="url(#787086e152)"><g clip-path="url(#c5174c84fd)"><path fill="#d9e8f5" d="M 1118.324219 235.949219 L 1133.160156 235.949219 L 1133.160156 250.5 L 1118.324219 250.5 Z M 1118.324219 235.949219 " fill-opacity="1" fill-rule="nonzero"/></g></g><g clip-path="url(#0a8b2c5008)"><path fill="#d9e8f5" d="M 969.917969 367.4375 L 999.699219 367.4375 L 999.699219 381.988281 L 969.917969 381.988281 Z M 969.917969 367.4375 " fill-opacity="1" fill-rule="nonzero"/></g><g clip-path="url(#e6640d40c1)"><g clip-path="url(#38e6aa21d2)"><path fill="#d9e8f5" d="M 979.425781 367.4375 L 999.695312 380.902344 L 969.296875 426.664062 L 949.027344 413.199219 Z M 979.425781 367.4375 " fill-opacity="1" fill-rule="nonzero"/></g></g><g clip-path="url(#fd9bca3766)"><g clip-path="url(#55ffedbafa)"><path fill="#d9e8f5" d="M 969.511719 425.105469 L 987.820312 437.839844 L 971.855469 460.796875 L 953.546875 448.066406 Z M 969.511719 425.105469 " fill-opacity="1" fill-rule="nonzero"/></g></g><g clip-path="url(#203e42d1b7)"><g clip-path="url(#67d4e5e0db)"><path fill="#d9e8f5" d="M 977.550781 432.148438 L 992.382812 432.148438 L 992.382812 446.699219 L 977.550781 446.699219 Z M 977.550781 432.148438 " fill-opacity="1" fill-rule="nonzero"/></g></g><g clip-path="url(#04d156996a)"><path fill="#d9e8f5" d="M 948.917969 367.4375 L 971.371094 367.4375 L 971.371094 488.46875 L 948.917969 488.46875 Z M 948.917969 367.4375 " fill-opacity="1" fill-rule="nonzero"/></g><g clip-path="url(#d63f20e1cd)"><g clip-path="url(#1f0443b604)"><path fill="#d9e8f5" d="M 891.976562 483.375 L 918.492188 483.375 L 918.492188 503.699219 L 891.976562 503.699219 Z M 891.976562 483.375 " fill-opacity="1" fill-rule="nonzero"/></g></g><g clip-path="url(#7c62769ac1)"><path fill="#d9e8f5" d="M 896.191406 490.746094 L 958.613281 490.746094 L 958.613281 542.972656 L 896.191406 542.972656 Z M 896.191406 490.746094 " fill-opacity="1" fill-rule="nonzero"/></g><g clip-path="url(#6e37b70e56)"><g clip-path="url(#63e437a258)"><path fill="#d9e8f5" d="M 1140.117188 216.988281 L 1175.539062 241.972656 L 951.566406 559.523438 L 916.144531 534.542969 Z M 1140.117188 216.988281 " fill-opacity="1" fill-rule="nonzero"/></g></g><g clip-path="url(#63505e5a7c)"><g clip-path="url(#a3458bfb0f)"><path fill="#d9e8f5" d="M 1038.839844 342.503906 L 1052.003906 352.042969 L 1045.027344 361.671875 L 1031.863281 352.132812 Z M 1038.839844 342.503906 " fill-opacity="1" fill-rule="nonzero"/></g></g><g clip-path="url(#0f3ba26938)"><path fill="#d9e8f5" d="M 1031.867188 340.574219 L 1074.785156 340.574219 L 1074.785156 351.304688 L 1031.867188 351.304688 Z M 1031.867188 340.574219 " fill-opacity="1" fill-rule="nonzero"/></g><g clip-path="url(#57ab638a9a)"><path fill="#d9e8f5" d="M 991.886719 335.472656 L 1106.476562 335.472656 L 1106.476562 343.574219 L 991.886719 343.574219 Z M 991.886719 335.472656 " fill-opacity="1" fill-rule="nonzero"/></g><path stroke-linecap="butt" transform="matrix(0.432038, -0.61306, 0.61306, 0.432038, 944.083663, 569.380719)" fill="none" stroke-linejoin="miter" d="M -0.00232823 1.999701 L 535.144882 1.998203 " stroke="#304269" stroke-width="4" stroke-opacity="1" stroke-miterlimit="4"/><path stroke-linecap="butt" transform="matrix(0, -0.75, 0.75, 0, 1175.010307, 242.166277)" fill="none" stroke-linejoin="miter" d="M -0.00225618 2.001882 L 146.305043 2.001882 " stroke="#304269" stroke-width="4" stroke-opacity="1" stroke-miterlimit="4"/><path stroke-linecap="butt" transform="matrix(0.75, -0.000000000000016184, 0.000000000000016184, 0.75, 1172.570683, 130.940022)" fill="none" stroke-linejoin="miter" d="M -0.000494309 2.001845 L 5.259923 2.001845 " stroke="#304269" stroke-width="4" stroke-opacity="1" stroke-miterlimit="4"/><path stroke-linecap="butt" transform="matrix(0, 0.75, -0.75, 0, 1174.064947, 132.445737)" fill="none" stroke-linejoin="miter" d="M -0.000565382 1.998055 L 30.499436 1.998055 " stroke="#304269" stroke-width="4" stroke-opacity="1" stroke-miterlimit="4"/><path stroke-linecap="butt" transform="matrix(0.75, -0.000000000000000279, 0.000000000000000279, 0.75, 335.174785, 153.814788)" fill="none" stroke-linejoin="miter" d="M 0.00132785 2.002157 L 1116.527426 2.002157 " stroke="#304269" stroke-width="4" stroke-opacity="1" stroke-miterlimit="4"/><g clip-path="url(#d1397710fb)"><path fill="#d9e8f5" d="M 262.746094 118.035156 L 335.117188 118.035156 L 335.117188 157.964844 L 262.746094 157.964844 Z M 262.746094 118.035156 " fill-opacity="1" fill-rule="nonzero"/></g><path stroke-linecap="butt" transform="matrix(0.000000001309, -0.75, 0.75, 0.000000001309, 333.670653, 155.310672)" fill="none" stroke-linejoin="miter" d="M -0.00243708 2.00163 L 50.70069 2.00163 " stroke="#304269" stroke-width="4" stroke-opacity="1" stroke-miterlimit="4"/><path stroke-linecap="butt" transform="matrix(-0.75, 0, 0, -0.75, 335.168339, 118.790925)" fill="none" stroke-linejoin="miter" d="M 0.000493614 2.002484 L 96.74529 2.002484 " stroke="#304269" stroke-width="4" stroke-opacity="1" stroke-miterlimit="4"/><path stroke-linecap="butt" transform="matrix(0, 0.75, -0.75, 0, 264.115774, 117.292756)" fill="none" stroke-linejoin="miter" d="M 0.000283001 1.998115 L 712.193027 1.998115 " stroke="#304269" stroke-width="4" stroke-opacity="1" stroke-miterlimit="4"/><path stroke-linecap="butt" transform="matrix(0.000000001309, -0.75, 0.75, 0.000000001309, 1120.781782, 242.166145)" fill="none" stroke-linejoin="miter" d="M -0.00243217 1.999291 L 65.445488 1.999291 " stroke="#304269" stroke-width="4" stroke-opacity="1" stroke-miterlimit="4"/><path stroke-linecap="butt" transform="matrix(0.434946, -0.611001, 0.611001, 0.434946, 1073.578776, 307.998461)" fill="none" stroke-linejoin="miter" d="M 0.00126847 1.999103 L 109.172474 2.000388 " stroke="#304269" stroke-width="4" stroke-opacity="1" stroke-miterlimit="4"/><path fill="#304269" d="M 1063.265625 323.691406 L 1064.914062 321.183594 L 1067.417969 322.832031 L 1065.773438 325.339844 M 1066.558594 318.679688 L 1068.207031 316.171875 L 1070.714844 317.816406 L 1069.066406 320.324219 M 1069.855469 313.664062 L 1071.503906 311.15625 L 1074.011719 312.804688 L 1072.363281 315.3125 M 1073.148438 308.648438 L 1073.546875 308.046875 L 1076.054688 309.691406 L 1075.65625 310.296875 " fill-opacity="1" fill-rule="nonzero"/><path stroke-linecap="butt" transform="matrix(0.45, -0.6, 0.6, 0.45, 1055.272345, 334.346547)" fill="none" stroke-linejoin="miter" d="M 0.000732603 1.999969 L 17.884066 1.998927 " stroke="#304269" stroke-width="4" stroke-opacity="1" stroke-miterlimit="4"/><path stroke-linecap="butt" transform="matrix(0.75, 0.000000000000000986, -0.000000000000000986, 0.75, 991.648444, 333.748772)" fill="none" stroke-linejoin="miter" d="M -0.00000911165 2.001637 L 86.432287 2.001637 " stroke="#304269" stroke-width="4" stroke-opacity="1" stroke-miterlimit="4"/><path stroke-linecap="butt" transform="matrix(0, -0.75, 0.75, 0, 990.14446, 343.29182)" fill="none" stroke-linejoin="miter" d="M -0.00153229 2.000095 L 10.727635 2.000095 " stroke="#304269" stroke-width="4" stroke-opacity="1" stroke-miterlimit="4"/><path stroke-linecap="butt" transform="matrix(-0.75, 0, 0, -0.75, 1030.988282, 344.795803)" fill="none" stroke-linejoin="miter" d="M 0.0000014728 1.998571 L 52.458337 1.998571 " stroke="#304269" stroke-width="4" stroke-opacity="1" stroke-miterlimit="4"/><path stroke-linecap="butt" transform="matrix(0, -0.75, 0.75, 0, 1029.49085, 349.99925)" fill="none" stroke-linejoin="miter" d="M -0.000999477 2.001783 L 8.936501 2.001783 " stroke="#304269" stroke-width="4" stroke-opacity="1" stroke-miterlimit="4"/><path stroke-linecap="butt" transform="matrix(-0.62398, -0.416111, 0.416111, -0.62398, 1040.883002, 358.400978)" fill="none" stroke-linejoin="miter" d="M 0.000921372 2.000466 L 17.198073 2.000974 " stroke="#304269" stroke-width="4" stroke-opacity="1" stroke-miterlimit="4"/><path stroke-linecap="butt" transform="matrix(0.434948, -0.610999, 0.610999, 0.434948, 984.167885, 435.411526)" fill="none" stroke-linejoin="miter" d="M 0.000761931 2.000672 L 129.507465 1.999661 " stroke="#304269" stroke-width="4" stroke-opacity="1" stroke-miterlimit="4"/><path stroke-linecap="butt" transform="matrix(-0.602912, -0.446091, 0.446091, -0.602912, 984.494021, 437.488102)" fill="none" stroke-linejoin="miter" d="M 0.00026382 2.001511 L 25.053923 2.000777 " stroke="#304269" stroke-width="4" stroke-opacity="1" stroke-miterlimit="4"/><path stroke-linecap="butt" transform="matrix(-0.420982, 0.620705, -0.620705, -0.420982, 1000.935892, 382.586074)" fill="none" stroke-linejoin="miter" d="M -0.00274266 2.000524 L 69.865708 2.001651 " stroke="#304269" stroke-width="4" stroke-opacity="1" stroke-miterlimit="4"/><path stroke-linecap="butt" transform="matrix(0, 0.75, -0.75, 0, 1001.192524, 367.441408)" fill="none" stroke-linejoin="miter" d="M -0.00000221936 2.00149 L 19.072915 2.00149 " stroke="#304269" stroke-width="4" stroke-opacity="1" stroke-miterlimit="4"/><g clip-path="url(#c5630aac4f)"><g clip-path="url(#b27f5de195)"><path fill="#d9e8f5" d="M 885.074219 363.824219 L 933.5625 363.824219 L 933.5625 388.800781 L 885.074219 388.800781 Z M 885.074219 363.824219 " fill-opacity="1" fill-rule="nonzero"/></g></g><path stroke-linecap="butt" transform="matrix(0.75, -0.000000000000000558, 0.000000000000000558, 0.75, 889.265457, 365.936925)" fill="none" stroke-linejoin="miter" d="M 0.000223354 2.000767 L 147.239814 2.000767 " stroke="#304269" stroke-width="4" stroke-opacity="1" stroke-miterlimit="4"/><path stroke-linecap="butt" transform="matrix(0, -0.75, 0.75, 0, 887.763658, 380.399737)" fill="none" stroke-linejoin="miter" d="M 0.00173248 1.997415 L 17.288192 1.997415 " stroke="#304269" stroke-width="4" stroke-opacity="1" stroke-miterlimit="4"/><g clip-path="url(#5c5b1f4a75)"><path fill="#d9e8f5" d="M 653.054688 454.332031 L 864.441406 454.332031 L 864.441406 485.882812 L 653.054688 485.882812 Z M 653.054688 454.332031 " fill-opacity="1" fill-rule="nonzero"/></g><g clip-path="url(#226ff21ae2)"><path fill="#d9e8f5" d="M 594.328125 367.640625 L 863.347656 367.640625 L 863.347656 458.855469 L 594.328125 458.855469 Z M 594.328125 367.640625 " fill-opacity="1" fill-rule="nonzero"/></g><g clip-path="url(#eab4535bd3)"><path fill="#d9e8f5" d="M 594.929688 477.738281 L 863.753906 477.738281 L 863.753906 543.15625 L 594.929688 543.15625 Z M 594.929688 477.738281 " fill-opacity="1" fill-rule="nonzero"/></g><path stroke-linecap="butt" transform="matrix(0, 0.75, -0.75, 0, 865.910123, 367.442229)" fill="none" stroke-linejoin="miter" d="M -0.00109662 1.999955 L 234.04579 1.999955 " stroke="#304269" stroke-width="4" stroke-opacity="1" stroke-miterlimit="4"/><path stroke-linecap="butt" transform="matrix(0.75, 0, 0, 0.75, 850.248179, 541.471001)" fill="none" stroke-linejoin="miter" d="M 0.0024274 2.002207 L 18.887845 2.002207 " stroke="#304269" stroke-width="4" stroke-opacity="1" stroke-miterlimit="4"/><path fill="#304269" d="M 716.820312 541.472656 L 719.820312 541.472656 L 719.820312 544.472656 L 716.820312 544.472656 M 722.820312 541.472656 L 725.820312 541.472656 L 725.820312 544.472656 L 722.820312 544.472656 M 728.820312 541.472656 L 731.820312 541.472656 L 731.820312 544.472656 L 728.820312 544.472656 M 734.820312 541.472656 L 737.820312 541.472656 L 737.820312 544.472656 L 734.820312 544.472656 M 740.820312 541.472656 L 743.820312 541.472656 L 743.820312 544.472656 L 740.820312 544.472656 M 746.820312 541.472656 L 749.820312 541.472656 L 749.820312 544.472656 L 746.820312 544.472656 M 752.820312 541.472656 L 755.820312 541.472656 L 755.820312 544.472656 L 752.820312 544.472656 M 758.820312 541.472656 L 761.820312 541.472656 L 761.820312 544.472656 L 758.820312 544.472656 M 764.820312 541.472656 L 767.820312 541.472656 L 767.820312 544.472656 L 764.820312 544.472656 M 770.820312 541.472656 L 773.820312 541.472656 L 773.820312 544.472656 L 770.820312 544.472656 M 776.820312 541.472656 L 779.820312 541.472656 L 779.820312 544.472656 L 776.820312 544.472656 M 782.820312 541.472656 L 785.820312 541.472656 L 785.820312 544.472656 L 782.820312 544.472656 M 788.820312 541.472656 L 791.820312 541.472656 L 791.820312 544.472656 L 788.820312 544.472656 M 794.820312 541.472656 L 797.820312 541.472656 L 797.820312 544.472656 L 794.820312 544.472656 M 800.820312 541.472656 L 803.820312 541.472656 L 803.820312 544.472656 L 800.820312 544.472656 M 806.820312 541.472656 L 809.820312 541.472656 L 809.820312 544.472656 L 806.820312 544.472656 M 812.820312 541.472656 L 815.820312 541.472656 L 815.820312 544.472656 L 812.820312 544.472656 M 818.820312 541.472656 L 821.820312 541.472656 L 821.820312 544.472656 L 818.820312 544.472656 M 824.820312 541.472656 L 827.820312 541.472656 L 827.820312 544.472656 L 824.820312 544.472656 M 830.820312 541.472656 L 833.820312 541.472656 L 833.820312 544.472656 L 830.820312 544.472656 M 836.820312 541.472656 L 839.820312 541.472656 L 839.820312 544.472656 L 836.820312 544.472656 M 842.820312 541.472656 L 845.820312 541.472656 L 845.820312 544.472656 L 842.820312 544.472656 M 848.820312 541.472656 L 850.25 541.472656 L 850.25 544.472656 L 848.820312 544.472656 " fill-opacity="1" fill-rule="nonzero"/><path stroke-linecap="butt" transform="matrix(0.75, 0.000000000000002561, -0.000000000000002561, 0.75, 704.332531, 541.471001)" fill="none" stroke-linejoin="miter" d="M -0.000666051 2.002207 L 16.650376 2.002207 " stroke="#304269" stroke-width="4" stroke-opacity="1" stroke-miterlimit="4"/><path fill="#304269" d="M 662.234375 541.472656 L 665.234375 541.472656 L 665.234375 544.472656 L 662.234375 544.472656 M 668.234375 541.472656 L 671.234375 541.472656 L 671.234375 544.472656 L 668.234375 544.472656 M 674.234375 541.472656 L 677.234375 541.472656 L 677.234375 544.472656 L 674.234375 544.472656 M 680.234375 541.472656 L 683.234375 541.472656 L 683.234375 544.472656 L 680.234375 544.472656 M 686.234375 541.472656 L 689.234375 541.472656 L 689.234375 544.472656 L 686.234375 544.472656 M 692.234375 541.472656 L 695.234375 541.472656 L 695.234375 544.472656 L 692.234375 544.472656 M 698.234375 541.472656 L 701.234375 541.472656 L 701.234375 544.472656 L 698.234375 544.472656 M 704.234375 541.472656 L 704.332031 541.472656 L 704.332031 544.472656 L 704.234375 544.472656 " fill-opacity="1" fill-rule="nonzero"/><path stroke-linecap="butt" transform="matrix(0.75, 0.000000000000000469, -0.000000000000000469, 0.75, 594.084768, 541.471001)" fill="none" stroke-linejoin="miter" d="M 0.00155889 2.002207 L 90.866147 2.002207 " stroke="#304269" stroke-width="4" stroke-opacity="1" stroke-miterlimit="4"/><path stroke-linecap="butt" transform="matrix(0, -0.75, 0.75, 0, 592.582944, 542.969177)" fill="none" stroke-linejoin="miter" d="M 0.000568912 1.998783 L 85.630782 1.998783 " stroke="#304269" stroke-width="4" stroke-opacity="1" stroke-miterlimit="4"/><path stroke-linecap="butt" transform="matrix(0.75, 0, 0, 0.75, 594.084768, 477.24866)" fill="none" stroke-linejoin="miter" d="M 0.00155889 2.001787 L 78.626563 2.001787 " stroke="#304269" stroke-width="4" stroke-opacity="1" stroke-miterlimit="4"/><path stroke-linecap="butt" transform="matrix(0.000000001309, -0.75, 0.75, 0.000000001309, 651.551757, 478.744364)" fill="none" stroke-linejoin="miter" d="M -0.00230644 1.998699 L 27.591445 1.998698 " stroke="#304269" stroke-width="4" stroke-opacity="1" stroke-miterlimit="4"/><path stroke-linecap="butt" transform="matrix(-0.75, -0.000000001309, 0.000000001309, -0.75, 653.053461, 459.556461)" fill="none" stroke-linejoin="miter" d="M -0.00163484 2.002365 L 78.628577 2.002364 " stroke="#304269" stroke-width="4" stroke-opacity="1" stroke-miterlimit="4"/><path stroke-linecap="butt" transform="matrix(0.75, -0.000000000000000279, 0.000000000000000279, 0.75, 594.084768, 365.936925)" fill="none" stroke-linejoin="miter" d="M 0.00155889 2.000767 L 360.439077 2.000767 " stroke="#304269" stroke-width="4" stroke-opacity="1" stroke-miterlimit="4"/><path stroke-linecap="butt" transform="matrix(0, 0.75, -0.75, 0, 595.579608, 367.441994)" fill="none" stroke-linejoin="miter" d="M -0.000783019 2.001978 L 120.827348 2.001978 " stroke="#304269" stroke-width="4" stroke-opacity="1" stroke-miterlimit="4"/><path stroke-linecap="butt" transform="matrix(0.75, -0.000000000000003906, 0.000000000000003906, 0.75, 889.265457, 378.901611)" fill="none" stroke-linejoin="miter" d="M 0.000223354 2.000977 L 21.625224 2.000977 " stroke="#304269" stroke-width="4" stroke-opacity="1" stroke-miterlimit="4"/><path stroke-linecap="butt" transform="matrix(0.724444, 0.194114, -0.194114, 0.724444, 905.873625, 378.953029)" fill="none" stroke-linejoin="miter" d="M -0.00116801 2.000901 L 32.518366 2.000893 " stroke="#304269" stroke-width="4" stroke-opacity="1" stroke-miterlimit="4"/><path stroke-linecap="butt" transform="matrix(0, -0.75, 0.75, 0, 927.53792, 386.708321)" fill="none" stroke-linejoin="miter" d="M 0.00172013 2.001524 L 25.704846 2.001524 " stroke="#304269" stroke-width="4" stroke-opacity="1" stroke-miterlimit="4"/><path stroke-linecap="butt" transform="matrix(0.000000001309, 0.75, -0.75, 0.000000001309, 950.412198, 367.442229)" fill="none" stroke-linejoin="miter" d="M -0.00109662 1.997515 L 165.545787 1.997515 " stroke="#304269" stroke-width="4" stroke-opacity="1" stroke-miterlimit="4"/><path stroke-linecap="butt" transform="matrix(0.75, 0, 0, 0.75, 914.668376, 490.095955)" fill="none" stroke-linejoin="miter" d="M -0.000543275 2.002268 L 45.666126 2.002268 " stroke="#304269" stroke-width="4" stroke-opacity="1" stroke-miterlimit="4"/><path stroke-linecap="butt" transform="matrix(0.719059, 0.213198, -0.213198, 0.719059, 895.829385, 484.446932)" fill="none" stroke-linejoin="miter" d="M -0.00019219 2.002377 L 26.79215 2.000789 " stroke="#304269" stroke-width="4" stroke-opacity="1" stroke-miterlimit="4"/><path stroke-linecap="butt" transform="matrix(0, 0.75, -0.75, 0, 896.900649, 485.886404)" fill="none" stroke-linejoin="miter" d="M 0.000420259 1.997741 L 76.115007 1.997741 " stroke="#304269" stroke-width="4" stroke-opacity="1" stroke-miterlimit="4"/><path stroke-linecap="butt" transform="matrix(0.75, 0, 0, 0.75, 895.403097, 541.471001)" fill="none" stroke-linejoin="miter" d="M -0.00100457 2.002207 L 44.853164 2.002207 " stroke="#304269" stroke-width="4" stroke-opacity="1" stroke-miterlimit="4"/><path stroke-linecap="butt" transform="matrix(0.592413, 0.459942, -0.459942, 0.592413, 929.963047, 541.787633)" fill="none" stroke-linejoin="miter" d="M -0.0000453684 2.000367 L 38.770961 1.999752 " stroke="#304269" stroke-width="4" stroke-opacity="1" stroke-miterlimit="4"/><path stroke-linecap="butt" transform="matrix(-0.75, 0, 0, -0.75, 708.804043, 581.212383)" fill="none" stroke-linejoin="miter" d="M -0.000859916 2.001927 L 186.827274 2.001927 " stroke="#304269" stroke-width="4" stroke-opacity="1" stroke-miterlimit="4"/><path stroke-linecap="butt" transform="matrix(0.75, -0.000000000000000279, 0.000000000000000279, 0.75, 736.419161, 578.212383)" fill="none" stroke-linejoin="miter" d="M -0.0015899 1.998073 L 156.170293 1.998073 " stroke="#304269" stroke-width="4" stroke-opacity="1" stroke-miterlimit="4"/><path stroke-linecap="butt" transform="matrix(0, -0.75, 0.75, 0, 567.190226, 579.707799)" fill="none" stroke-linejoin="miter" d="M 0.00102345 2.001574 L 12.620816 2.001574 " stroke="#304269" stroke-width="4" stroke-opacity="1" stroke-miterlimit="4"/><path stroke-linecap="butt" transform="matrix(-0.75, 0.000000001309, -0.000000001309, -0.75, 568.686122, 571.746327)" fill="none" stroke-linejoin="miter" d="M -0.00183785 2.000311 L 55.73254 2.000312 " stroke="#304269" stroke-width="4" stroke-opacity="1" stroke-miterlimit="4"/><path fill="#304269" d="M 525.390625 570.242188 L 525.390625 567.242188 L 528.390625 567.242188 L 528.390625 570.242188 M 525.390625 564.242188 L 525.390625 561.242188 L 528.390625 561.242188 L 528.390625 564.242188 M 525.390625 558.242188 L 525.390625 555.242188 L 528.390625 555.242188 L 528.390625 558.242188 M 525.390625 552.242188 L 525.390625 549.382812 L 528.390625 549.382812 L 528.390625 552.242188 " fill-opacity="1" fill-rule="nonzero"/><path stroke-linecap="butt" transform="matrix(0.75, 0.000000000000002134, -0.000000000000002134, 0.75, 526.89706, 547.88752)" fill="none" stroke-linejoin="miter" d="M 0.00183705 1.998931 L 39.960172 1.998931 " stroke="#304269" stroke-width="4" stroke-opacity="1" stroke-miterlimit="4"/><path stroke-linecap="butt" transform="matrix(0, -0.75, 0.75, 0, 555.359618, 549.381736)" fill="none" stroke-linejoin="miter" d="M -0.00143485 1.999676 L 27.951692 1.999676 " stroke="#304269" stroke-width="4" stroke-opacity="1" stroke-miterlimit="4"/><path stroke-linecap="butt" transform="matrix(0.75, 0, 0, 0.75, 556.865426, 526.922801)" fill="none" stroke-linejoin="miter" d="M 0.00234839 1.998765 L 15.773183 1.998765 " stroke="#304269" stroke-width="4" stroke-opacity="1" stroke-miterlimit="4"/><path stroke-linecap="butt" transform="matrix(0, -0.75, 0.75, 0, 567.189698, 528.417761)" fill="none" stroke-linejoin="miter" d="M -0.000276445 2.002278 L 66.234102 2.002278 " stroke="#304269" stroke-width="4" stroke-opacity="1" stroke-miterlimit="4"/><path stroke-linecap="butt" transform="matrix(-0.75, 0.000000001309, -0.000000001309, -0.75, 568.68965, 480.24866)" fill="none" stroke-linejoin="miter" d="M -0.00234219 1.998213 L 15.7737 1.998213 " stroke="#304269" stroke-width="4" stroke-opacity="1" stroke-miterlimit="4"/><path stroke-linecap="butt" transform="matrix(0, -0.75, 0.75, 0, 555.361082, 478.744364)" fill="none" stroke-linejoin="miter" d="M -0.00230645 1.997724 L 27.591445 1.997724 " stroke="#304269" stroke-width="4" stroke-opacity="1" stroke-miterlimit="4"/><path stroke-linecap="butt" transform="matrix(0.75, 0, 0, 0.75, 556.865426, 456.556461)" fill="none" stroke-linejoin="miter" d="M 0.00234839 1.997635 L 15.773183 1.997635 " stroke="#304269" stroke-width="4" stroke-opacity="1" stroke-miterlimit="4"/><path stroke-linecap="butt" transform="matrix(0, -0.75, 0.75, 0, 567.18965, 458.051373)" fill="none" stroke-linejoin="miter" d="M 0.000788941 2.002342 L 120.823712 2.002342 " stroke="#304269" stroke-width="4" stroke-opacity="1" stroke-miterlimit="4"/><path stroke-linecap="butt" transform="matrix(0.75, 0.000000000000000509, -0.000000000000000509, 0.75, 443.062832, 365.936925)" fill="none" stroke-linejoin="miter" d="M -0.000442576 2.000767 L 167.509983 2.000767 " stroke="#304269" stroke-width="4" stroke-opacity="1" stroke-miterlimit="4"/><path stroke-linecap="butt" transform="matrix(0, 0.75, -0.75, 0, 444.5612, 367.438566)" fill="none" stroke-linejoin="miter" d="M -0.00142175 1.998267 L 294.003801 1.998267 " stroke="#304269" stroke-width="4" stroke-opacity="1" stroke-miterlimit="4"/><path stroke-linecap="butt" transform="matrix(0.75, 0, 0, 0.75, 307.382744, 586.44023)" fill="none" stroke-linejoin="miter" d="M 0.0000919224 2.001568 L 180.906351 2.001568 " stroke="#304269" stroke-width="4" stroke-opacity="1" stroke-miterlimit="4"/><path stroke-linecap="butt" transform="matrix(0, -0.75, 0.75, 0, 305.880548, 587.937998)" fill="none" stroke-linejoin="miter" d="M 0.000664562 1.997812 L 526.474649 1.997812 " stroke="#304269" stroke-width="4" stroke-opacity="1" stroke-miterlimit="4"/><g clip-path="url(#a068f99126)"><path fill="#d9e8f5" d="M 328.6875 367.640625 L 420.582031 367.640625 L 420.582031 567.941406 L 328.6875 567.941406 Z M 328.6875 367.640625 " fill-opacity="1" fill-rule="nonzero"/></g><path stroke-linecap="butt" transform="matrix(0.75, 0.000000000000000694, -0.000000000000000694, 0.75, 328.443153, 566.795919)" fill="none" stroke-linejoin="miter" d="M -0.00232887 2.001274 L 122.851844 2.001274 " stroke="#304269" stroke-width="4" stroke-opacity="1" stroke-miterlimit="4"/><path stroke-linecap="butt" transform="matrix(0, -0.75, 0.75, 0, 419.075073, 568.290231)" fill="none" stroke-linejoin="miter" d="M 0.00155855 1.998861 L 267.814072 1.998861 " stroke="#304269" stroke-width="4" stroke-opacity="1" stroke-miterlimit="4"/><path stroke-linecap="butt" transform="matrix(-0.75, 0, 0, -0.75, 420.575985, 368.936925)" fill="none" stroke-linejoin="miter" d="M 0.00235508 1.999233 L 122.85132 1.999233 " stroke="#304269" stroke-width="4" stroke-opacity="1" stroke-miterlimit="4"/><path stroke-linecap="butt" transform="matrix(0, 0.75, -0.75, 0, 329.93747, 367.442608)" fill="none" stroke-linejoin="miter" d="M -0.00160222 1.99996 L 267.810911 1.99996 " stroke="#304269" stroke-width="4" stroke-opacity="1" stroke-miterlimit="4"/><g clip-path="url(#c34ea5f124)"><path fill="#d9e8f5" d="M 328.441406 215.457031 L 420.5625 215.457031 L 420.5625 342.839844 L 328.441406 342.839844 Z M 328.441406 215.457031 " fill-opacity="1" fill-rule="nonzero"/></g><path stroke-linecap="butt" transform="matrix(0.75, 0.000000000000001388, -0.000000000000001388, 0.75, 328.443153, 341.795804)" fill="none" stroke-linejoin="miter" d="M -0.00232887 2.001429 L 122.851844 2.001429 " stroke="#304269" stroke-width="4" stroke-opacity="1" stroke-miterlimit="4"/><path stroke-linecap="butt" transform="matrix(0, -0.75, 0.75, 0, 419.078265, 343.293312)" fill="none" stroke-linejoin="miter" d="M 0.000458106 1.999813 L 170.92755 1.999813 " stroke="#304269" stroke-width="4" stroke-opacity="1" stroke-miterlimit="4"/><path stroke-linecap="butt" transform="matrix(-0.75, 0.000000001309, -0.000000001309, -0.75, 420.575985, 216.599452)" fill="none" stroke-linejoin="miter" d="M 0.00235508 2.002395 L 122.85132 2.002395 " stroke="#304269" stroke-width="4" stroke-opacity="1" stroke-miterlimit="4"/><path stroke-linecap="butt" transform="matrix(0, 0.75, -0.75, 0, 329.940722, 215.101929)" fill="none" stroke-linejoin="miter" d="M -0.000488905 1.999087 L 170.926603 1.999087 " stroke="#304269" stroke-width="4" stroke-opacity="1" stroke-miterlimit="4"/><g clip-path="url(#08e9188e6f)"><path fill="#d9e8f5" d="M 443.0625 215.457031 L 530.929688 215.457031 L 530.929688 342.792969 L 443.0625 342.792969 Z M 443.0625 215.457031 " fill-opacity="1" fill-rule="nonzero"/></g><path stroke-linecap="butt" transform="matrix(0.75, 0.000000000000000728, -0.000000000000000728, 0.75, 443.062832, 341.795804)" fill="none" stroke-linejoin="miter" d="M -0.000442576 2.001429 L 117.155813 2.001429 " stroke="#304269" stroke-width="4" stroke-opacity="1" stroke-miterlimit="4"/><path stroke-linecap="butt" transform="matrix(0, -0.75, 0.75, 0, 529.425388, 343.293312)" fill="none" stroke-linejoin="miter" d="M 0.000458106 2.000525 L 170.92755 2.000525 " stroke="#304269" stroke-width="4" stroke-opacity="1" stroke-miterlimit="4"/><path stroke-linecap="butt" transform="matrix(0.000000001309, -0.75, 0.75, 0.000000001309, 441.560384, 343.293312)" fill="none" stroke-linejoin="miter" d="M 0.000458109 1.997613 L 170.92755 1.997613 " stroke="#304269" stroke-width="4" stroke-opacity="1" stroke-miterlimit="4"/><path stroke-linecap="butt" transform="matrix(0.75, 0.000000000000000728, -0.000000000000000728, 0.75, 443.062832, 213.599452)" fill="none" stroke-linejoin="miter" d="M -0.000442576 1.997605 L 117.155813 1.997605 " stroke="#304269" stroke-width="4" stroke-opacity="1" stroke-miterlimit="4"/><g clip-path="url(#c003643edf)"><path fill="#d9e8f5" d="M 552.335938 215.097656 L 652.992188 215.097656 L 652.992188 342.492188 L 552.335938 342.492188 Z M 552.335938 215.097656 " fill-opacity="1" fill-rule="nonzero"/></g><path stroke-linecap="butt" transform="matrix(0.75, 0, 0, 0.75, 552.334658, 213.599452)" fill="none" stroke-linejoin="miter" d="M 0.00170542 1.997605 L 134.293379 1.997605 " stroke="#304269" stroke-width="4" stroke-opacity="1" stroke-miterlimit="4"/><g clip-path="url(#1b25077237)"><path fill="#d9e8f5" d="M 674.054688 215.097656 L 752.539062 215.097656 L 752.539062 342.636719 L 674.054688 342.636719 Z M 674.054688 215.097656 " fill-opacity="1" fill-rule="nonzero"/></g><path stroke-linecap="butt" transform="matrix(0.75, 0.00000000000000243, -0.00000000000000243, 0.75, 673.99058, 213.599452)" fill="none" stroke-linejoin="miter" d="M 0.00214291 1.997605 L 105.252148 1.997605 " stroke="#304269" stroke-width="4" stroke-opacity="1" stroke-miterlimit="4"/><g clip-path="url(#703b3b36f8)"><path fill="#d9e8f5" d="M 775.039062 215.097656 L 862.894531 215.097656 L 862.894531 342.421875 L 775.039062 342.421875 Z M 775.039062 215.097656 " fill-opacity="1" fill-rule="nonzero"/></g><path stroke-linecap="butt" transform="matrix(0.749994, 0.00304552, -0.00304552, 0.749994, 775.045407, 213.599467)" fill="none" stroke-linejoin="miter" d="M -0.000347975 1.997604 L 117.14126 2.001094 " stroke="#304269" stroke-width="4" stroke-opacity="1" stroke-miterlimit="4"/><g clip-path="url(#08c9b444f6)"><path fill="#d9e8f5" d="M 883.851562 215.097656 L 970.285156 215.097656 L 970.285156 342.386719 L 883.851562 342.386719 Z M 883.851562 215.097656 " fill-opacity="1" fill-rule="nonzero"/></g><path stroke-linecap="butt" transform="matrix(0.749994, 0.00309565, -0.00309565, 0.749994, 883.858018, 213.599496)" fill="none" stroke-linejoin="miter" d="M -0.000361988 1.997566 L 115.245435 2.001052 " stroke="#304269" stroke-width="4" stroke-opacity="1" stroke-miterlimit="4"/><g clip-path="url(#1f297bb387)"><path fill="#d9e8f5" d="M 992.242188 215.601562 L 1045.734375 215.601562 L 1045.734375 314.644531 L 992.242188 314.644531 Z M 992.242188 215.601562 " fill-opacity="1" fill-rule="nonzero"/></g><g clip-path="url(#eefeb85021)"><path fill="#d9e8f5" d="M 1041.71875 214.886719 L 1097.894531 214.886719 L 1097.894531 242.757812 L 1041.71875 242.757812 Z M 1041.71875 214.886719 " fill-opacity="1" fill-rule="nonzero"/></g><path stroke-linecap="butt" transform="matrix(0.75, 0.000000000000000601, -0.000000000000000601, 0.75, 991.648444, 213.599452)" fill="none" stroke-linejoin="miter" d="M -0.00000911165 1.997605 L 141.80729 1.997605 " stroke="#304269" stroke-width="4" stroke-opacity="1" stroke-miterlimit="4"/><path stroke-linecap="butt" transform="matrix(0.75, 0, 0, 0.75, 552.334658, 341.795804)" fill="none" stroke-linejoin="miter" d="M 0.00170542 2.001429 L 134.293379 2.001429 " stroke="#304269" stroke-width="4" stroke-opacity="1" stroke-miterlimit="4"/><path stroke-linecap="butt" transform="matrix(0.75, 0, 0, 0.75, 673.99058, 341.795804)" fill="none" stroke-linejoin="miter" d="M 0.00214291 2.001429 L 105.252148 2.001429 " stroke="#304269" stroke-width="4" stroke-opacity="1" stroke-miterlimit="4"/><path stroke-linecap="butt" transform="matrix(0.75, 0, 0, 0.75, 775.039359, 341.795804)" fill="none" stroke-linejoin="miter" d="M -0.000395641 2.001429 L 117.140235 2.001429 " stroke="#304269" stroke-width="4" stroke-opacity="1" stroke-miterlimit="4"/><path stroke-linecap="butt" transform="matrix(0.75, 0.00000000000000074, -0.00000000000000074, 0.75, 883.851826, 341.795804)" fill="none" stroke-linejoin="miter" d="M -0.000351009 2.001429 L 115.244446 2.001429 " stroke="#304269" stroke-width="4" stroke-opacity="1" stroke-miterlimit="4"/><g clip-path="url(#d8031c9e46)"><g clip-path="url(#63607d91cf)"><path fill="#d9e8f5" d="M 1064.347656 216.863281 L 1098 241.015625 L 1045.542969 314.109375 L 1011.890625 289.957031 Z M 1064.347656 216.863281 " fill-opacity="1" fill-rule="nonzero"/></g></g><path stroke-linecap="butt" transform="matrix(0.75, 0.000000000000001182, -0.000000000000001182, 0.75, 991.648444, 313.925863)" fill="none" stroke-linejoin="miter" d="M -0.00000911165 1.999892 L 72.114578 1.999892 " stroke="#304269" stroke-width="4" stroke-opacity="1" stroke-miterlimit="4"/><path stroke-linecap="butt" transform="matrix(0.435613, -0.610525, 0.610525, 0.435613, 1044.511706, 314.553374)" fill="none" stroke-linejoin="miter" d="M -0.0000274931 2.002672 L 119.988143 1.998028 " stroke="#304269" stroke-width="4" stroke-opacity="1" stroke-miterlimit="4"/><path stroke-linecap="butt" transform="matrix(0, -0.75, 0.75, 0, 1096.501943, 242.169853)" fill="none" stroke-linejoin="miter" d="M 0.00251182 1.997409 L 36.096264 1.997409 " stroke="#304269" stroke-width="4" stroke-opacity="1" stroke-miterlimit="4"/><path stroke-linecap="butt" transform="matrix(0, -0.75, 0.75, 0, 990.1441, 315.421528)" fill="none" stroke-linejoin="miter" d="M -0.000462491 2.000575 L 133.291211 2.000575 " stroke="#304269" stroke-width="4" stroke-opacity="1" stroke-miterlimit="4"/><path stroke-linecap="butt" transform="matrix(0, -0.75, 0.75, 0, 968.780045, 343.29006)" fill="none" stroke-linejoin="miter" d="M 0.00133044 2.001606 L 170.454464 2.001606 " stroke="#304269" stroke-width="4" stroke-opacity="1" stroke-miterlimit="4"/><path stroke-linecap="butt" transform="matrix(0, -0.75, 0.75, 0, 882.349306, 343.293312)" fill="none" stroke-linejoin="miter" d="M 0.000458106 1.997801 L 170.92755 1.997801 " stroke="#304269" stroke-width="4" stroke-opacity="1" stroke-miterlimit="4"/><path stroke-linecap="butt" transform="matrix(0, 0.75, -0.75, 0, 864.393467, 215.101929)" fill="none" stroke-linejoin="miter" d="M -0.000488905 1.998581 L 170.926603 1.998581 " stroke="#304269" stroke-width="4" stroke-opacity="1" stroke-miterlimit="4"/><path stroke-linecap="butt" transform="matrix(0, 0.75, -0.75, 0, 776.533623, 215.461958)" fill="none" stroke-linejoin="miter" d="M -0.00136061 1.997956 L 170.451773 1.997956 " stroke="#304269" stroke-width="4" stroke-opacity="1" stroke-miterlimit="4"/><path stroke-linecap="butt" transform="matrix(0, 0.75, -0.75, 0, 754.425496, 215.101929)" fill="none" stroke-linejoin="miter" d="M -0.000488905 1.99962 L 170.926603 1.99962 " stroke="#304269" stroke-width="4" stroke-opacity="1" stroke-miterlimit="4"/><path stroke-linecap="butt" transform="matrix(0, 0.75, -0.75, 0, 675.484844, 215.461958)" fill="none" stroke-linejoin="miter" d="M -0.00136061 2.000626 L 170.451773 2.000626 " stroke="#304269" stroke-width="4" stroke-opacity="1" stroke-miterlimit="4"/><path stroke-linecap="butt" transform="matrix(0.000000001309, -0.75, 0.75, 0.000000001309, 651.550341, 343.29006)" fill="none" stroke-linejoin="miter" d="M 0.00133044 2.000587 L 170.454464 2.000586 " stroke="#304269" stroke-width="4" stroke-opacity="1" stroke-miterlimit="4"/><path stroke-linecap="butt" transform="matrix(0.000000001309, -0.75, 0.75, 0.000000001309, 550.828971, 343.29006)" fill="none" stroke-linejoin="miter" d="M 0.00133044 1.998873 L 170.454464 1.998872 " stroke="#304269" stroke-width="4" stroke-opacity="1" stroke-miterlimit="4"/><path stroke-linecap="butt" transform="matrix(0.75, 0.000000000000000078, -0.000000000000000078, 0.75, 307.382744, 191.584273)" fill="none" stroke-linejoin="miter" d="M 0.0000919224 2.00222 L 1086.536605 2.00222 " stroke="#304269" stroke-width="4" stroke-opacity="1" stroke-miterlimit="4"/></svg>