<svg xmlns="http://www.w3.org/2000/svg" xmlns:xlink="http://www.w3.org/1999/xlink" width="1920" zoomAndPan="magnify" viewBox="0 0 1440 809.999993" height="1080" preserveAspectRatio="xMidYMid meet" version="1.0"><defs><clipPath id="38f2f9879f"><path d="M 618.359375 451.800781 L 671.730469 451.800781 L 671.730469 504 L 618.359375 504 Z M 618.359375 451.800781 " clip-rule="nonzero"/></clipPath><clipPath id="8757e6aa71"><path d="M 618.515625 457.503906 C 618.578125 455.542969 618.578125 455.285156 618.644531 454.957031 C 618.710938 454.632812 618.839844 454.371094 618.972656 454.042969 C 619.167969 453.78125 619.296875 453.523438 619.558594 453.261719 C 619.753906 453.066406 620.015625 452.804688 620.277344 452.671875 C 620.539062 452.476562 620.796875 452.28125 621.125 452.214844 C 621.386719 452.085938 621.710938 452.019531 622.039062 451.957031 C 622.363281 451.957031 622.691406 451.957031 623.015625 451.957031 C 623.277344 452.019531 623.605469 452.085938 623.929688 452.214844 C 624.191406 452.28125 624.519531 452.476562 624.777344 452.671875 C 625.039062 452.804688 625.300781 453.066406 625.496094 453.261719 C 625.691406 453.523438 625.886719 453.78125 626.019531 454.042969 C 626.148438 454.304688 626.214844 454.632812 626.28125 454.761719 C 626.34375 454.890625 626.542969 455.023438 626.542969 455.023438 C 626.542969 455.023438 626.800781 455.285156 626.867188 455.414062 C 626.996094 455.609375 627.195312 455.871094 627.195312 455.871094 C 627.195312 455.871094 627.324219 456.199219 627.390625 456.394531 C 627.453125 456.523438 627.585938 456.851562 627.585938 456.851562 C 627.585938 456.851562 627.652344 457.242188 627.714844 457.371094 C 627.714844 457.566406 627.78125 457.894531 627.78125 457.960938 C 627.78125 457.960938 628.824219 460.375 629.28125 461.613281 C 629.738281 462.855469 630.066406 464.160156 630.585938 465.332031 C 631.109375 466.574219 631.890625 467.550781 632.546875 468.859375 C 633.261719 470.292969 633.851562 471.992188 634.699219 473.558594 C 635.546875 475.058594 636.785156 476.753906 637.699219 477.996094 C 638.289062 478.90625 638.941406 480.082031 639.332031 480.34375 C 639.527344 480.410156 639.789062 480.277344 639.789062 480.277344 C 639.789062 480.277344 640.179688 480.410156 640.375 480.410156 C 640.570312 480.472656 640.898438 480.539062 640.898438 480.539062 C 640.964844 480.539062 641.289062 480.734375 641.421875 480.800781 C 641.617188 480.867188 641.941406 481.0625 641.941406 481.0625 C 641.941406 481.0625 642.269531 481.324219 642.398438 481.386719 C 642.53125 481.519531 642.789062 481.78125 642.855469 481.78125 C 642.855469 481.78125 643.050781 482.105469 643.183594 482.238281 C 643.246094 482.433594 643.507812 482.691406 643.507812 482.691406 C 643.507812 482.691406 643.640625 483.085938 643.703125 483.214844 C 643.769531 483.410156 643.902344 483.738281 643.902344 483.738281 C 643.902344 483.800781 643.964844 484 643.964844 484 C 644.03125 484.0625 644.488281 484.324219 644.488281 484.324219 C 644.488281 484.324219 644.75 484.585938 644.878906 484.714844 C 645.011719 484.847656 645.011719 484.976562 645.207031 485.109375 C 645.726562 485.367188 647.488281 485.109375 648.535156 485.628906 C 649.707031 486.152344 650.621094 487.71875 651.863281 488.4375 C 652.972656 489.152344 654.144531 489.546875 655.515625 490.003906 C 656.953125 490.460938 658.78125 490.785156 660.347656 491.113281 C 661.714844 491.4375 663.085938 491.503906 664.328125 492.027344 C 665.566406 492.480469 666.675781 493.003906 667.785156 493.917969 C 669.15625 495.09375 671.636719 497.050781 671.703125 498.617188 C 671.765625 500.117188 669.9375 502.207031 668.503906 503.121094 C 667.199219 503.902344 665.242188 503.835938 663.675781 503.902344 C 662.304688 503.96875 660.933594 503.96875 659.628906 503.707031 C 658.257812 503.378906 656.820312 502.726562 655.515625 502.207031 C 654.277344 501.617188 653.296875 500.902344 651.992188 500.3125 C 650.558594 499.59375 648.925781 498.746094 647.292969 498.289062 C 645.792969 497.832031 644.160156 497.636719 642.660156 497.441406 C 641.160156 497.3125 639.855469 497.3125 638.351562 497.246094 C 636.851562 497.246094 635.222656 497.246094 633.71875 497.246094 C 632.347656 497.246094 631.042969 497.574219 629.671875 497.246094 C 628.171875 496.921875 626.476562 496.136719 625.171875 495.289062 C 623.996094 494.441406 622.953125 493.394531 622.167969 492.285156 C 621.320312 491.242188 620.667969 490.003906 620.210938 488.761719 C 619.820312 487.457031 619.6875 486.085938 619.625 484.714844 C 619.558594 483.410156 619.492188 481.910156 619.949219 480.671875 C 620.472656 479.300781 621.515625 477.472656 622.691406 476.886719 C 623.734375 476.296875 626.085938 477.34375 626.476562 476.753906 C 626.800781 476.167969 625.691406 474.535156 625.300781 473.816406 C 625.039062 473.359375 624.648438 472.773438 624.582031 472.707031 C 624.582031 472.707031 624.324219 472.449219 624.191406 472.316406 C 624.0625 472.25 623.800781 471.992188 623.800781 471.992188 C 623.800781 471.992188 623.605469 471.730469 623.472656 471.597656 C 623.410156 471.402344 623.210938 471.140625 623.210938 471.140625 C 623.210938 471.140625 621.90625 468.53125 621.386719 467.355469 C 620.929688 466.378906 620.667969 465.332031 620.210938 464.484375 C 619.882812 463.769531 619.363281 463.507812 619.035156 462.722656 C 618.644531 461.484375 618.515625 457.503906 618.515625 457.503906 " clip-rule="nonzero"/></clipPath><clipPath id="d2d87e5afe"><path d="M 576.953125 438.703125 L 626.230469 438.703125 L 626.230469 530.320312 L 576.953125 530.320312 Z M 576.953125 438.703125 " clip-rule="nonzero"/></clipPath><clipPath id="a9b1fc1fff"><path d="M 531.351562 455.894531 L 607.394531 455.894531 L 607.394531 530.648438 L 531.351562 530.648438 Z M 531.351562 455.894531 " clip-rule="nonzero"/></clipPath><clipPath id="2a0c4255f1"><path d="M 322.007812 472.324219 L 477.929688 472.324219 L 477.929688 530.320312 L 322.007812 530.320312 Z M 322.007812 472.324219 " clip-rule="nonzero"/></clipPath><clipPath id="dbda25b6ee"><path d="M 473.964844 469.324219 L 486.324219 469.324219 L 486.324219 529.824219 L 473.964844 529.824219 Z M 473.964844 469.324219 " clip-rule="nonzero"/></clipPath><clipPath id="776e0481ea"><path d="M 485.882812 431.785156 L 554.523438 431.785156 L 554.523438 530.648438 L 485.882812 530.648438 Z M 485.882812 431.785156 " clip-rule="nonzero"/></clipPath><clipPath id="bbd36b22a4"><path d="M 595.933594 494.21875 L 671.976562 494.21875 L 671.976562 529.824219 L 595.933594 529.824219 Z M 595.933594 494.21875 " clip-rule="nonzero"/></clipPath><clipPath id="7ae0395038"><path d="M 955 310 L 979 310 L 979 335 L 955 335 Z M 955 310 " clip-rule="nonzero"/></clipPath><clipPath id="cea97c2e88"><path d="M 967.996094 310.558594 L 978.085938 318.554688 L 965.355469 334.617188 L 955.265625 326.621094 Z M 967.996094 310.558594 " clip-rule="nonzero"/></clipPath><clipPath id="161c10bf51"><path d="M 911.71875 369.15625 L 932.035156 369.15625 L 932.035156 401.363281 L 911.71875 401.363281 Z M 911.71875 369.15625 " clip-rule="nonzero"/></clipPath><clipPath id="5bc52f3280"><path d="M 869.171875 309.558594 L 966.691406 309.558594 L 966.691406 379.75 L 869.171875 379.75 Z M 869.171875 309.558594 " clip-rule="nonzero"/></clipPath><clipPath id="371bb77704"><path d="M 923.613281 425.921875 L 934.894531 425.921875 L 934.894531 441 L 923.613281 441 Z M 923.613281 425.921875 " clip-rule="nonzero"/></clipPath><clipPath id="d1b9547624"><path d="M 924 436.621094 C 925.628906 429.375 927.066406 427.679688 928.109375 426.832031 C 928.699219 426.375 929.21875 426.113281 929.871094 425.980469 C 930.71875 425.917969 932.027344 425.980469 932.808594 426.503906 C 933.722656 427.15625 934.703125 428.394531 934.832031 429.765625 C 935.09375 431.984375 932.875 436.945312 931.894531 438.640625 C 931.4375 439.425781 931.113281 439.816406 930.523438 440.207031 C 929.742188 440.664062 928.4375 440.992188 927.523438 440.925781 C 926.804688 440.859375 926.152344 440.601562 925.628906 440.207031 C 925.042969 439.816406 924.519531 439.230469 924.257812 438.640625 C 923.933594 438.054688 923.804688 437.53125 923.738281 436.621094 C 923.605469 435.117188 923.605469 431.984375 924.390625 430.355469 C 924.976562 429.050781 926.152344 427.875 927.195312 427.417969 C 928.042969 427.027344 929.152344 427.089844 929.9375 427.417969 C 930.785156 427.679688 931.699219 428.265625 932.15625 429.050781 C 932.742188 430.027344 933.070312 431.984375 932.613281 433.160156 C 932.222656 434.269531 930.71875 435.511719 929.546875 435.769531 C 928.371094 436.03125 926.476562 435.511719 925.566406 434.726562 C 924.714844 433.878906 924.195312 431.984375 924.257812 430.8125 C 924.324219 429.898438 924.914062 428.984375 925.566406 428.332031 C 926.21875 427.742188 927.195312 427.285156 928.109375 427.15625 C 928.957031 427.089844 930.066406 427.351562 930.851562 427.808594 C 931.570312 428.199219 932.285156 428.851562 932.613281 429.898438 C 933.199219 431.59375 932.679688 436.03125 932.222656 437.664062 C 932.027344 438.511719 931.699219 439.035156 931.308594 439.492188 C 930.851562 440.011719 930.199219 440.46875 929.609375 440.664062 C 928.957031 440.925781 928.242188 441.058594 927.523438 440.925781 C 926.675781 440.796875 925.433594 440.144531 924.847656 439.492188 C 924.324219 438.96875 924 438.445312 923.867188 437.664062 C 923.671875 436.683594 923.933594 435.25 924.128906 434.074219 C 924.390625 432.769531 924.78125 431.332031 925.433594 430.160156 C 926.085938 428.917969 927.195312 427.546875 928.109375 426.832031 C 928.699219 426.375 929.21875 426.113281 929.871094 425.980469 C 930.71875 425.917969 932.027344 426.113281 932.808594 426.503906 C 933.394531 426.832031 933.917969 427.285156 934.246094 427.875 C 934.636719 428.65625 934.960938 429.765625 934.765625 430.8125 C 934.503906 432.246094 932.613281 434.007812 931.960938 435.574219 C 931.371094 436.816406 931.570312 438.445312 930.917969 439.292969 C 930.328125 440.011719 929.21875 440.40625 928.4375 440.601562 C 927.785156 440.664062 927.132812 440.601562 926.542969 440.339844 C 925.824219 440.011719 924.847656 439.164062 924.457031 438.511719 C 924.128906 437.925781 924 436.621094 924 436.621094 " clip-rule="nonzero"/></clipPath><clipPath id="8c49142475"><path d="M 878 359 L 944 359 L 944 436 L 878 436 Z M 878 359 " clip-rule="nonzero"/></clipPath><clipPath id="673be7b3f8"><path d="M 898.824219 359.34375 L 943.285156 421.035156 L 923.160156 435.539062 L 878.695312 373.851562 Z M 898.824219 359.34375 " clip-rule="nonzero"/></clipPath><clipPath id="13a1c01b3b"><path d="M 953.066406 257.375 L 960.78125 257.375 L 960.78125 265.089844 L 953.066406 265.089844 Z M 953.066406 257.375 " clip-rule="nonzero"/></clipPath><clipPath id="24360d6b41"><path d="M 960.742188 260.089844 C 960.542969 262.894531 959.566406 264.398438 958.585938 264.855469 C 957.609375 265.246094 955.847656 264.984375 954.996094 264.59375 C 954.34375 264.332031 953.953125 263.808594 953.625 263.289062 C 953.367188 262.765625 953.039062 262.179688 953.105469 261.460938 C 953.171875 260.546875 953.953125 258.851562 954.605469 258.195312 C 955.0625 257.675781 955.648438 257.414062 956.300781 257.414062 C 957.214844 257.347656 959.761719 258.457031 959.761719 258.457031 " clip-rule="nonzero"/></clipPath><clipPath id="11f98af54f"><path d="M 951.789062 256.164062 L 1014.898438 256.164062 L 1014.898438 277.167969 L 951.789062 277.167969 Z M 951.789062 256.164062 " clip-rule="nonzero"/></clipPath><clipPath id="5a4235a045"><path d="M 951.863281 262.503906 C 954.867188 257.542969 959.042969 257.285156 961.195312 256.957031 C 962.761719 256.761719 963.9375 256.890625 965.308594 256.828125 C 966.679688 256.761719 968.179688 256.628906 969.550781 256.628906 C 970.921875 256.566406 972.160156 256.628906 973.464844 256.566406 C 974.902344 256.566406 976.402344 256.304688 977.773438 256.238281 C 979.144531 256.238281 980.449219 256.238281 981.753906 256.304688 C 983.125 256.371094 984.496094 256.433594 985.867188 256.566406 C 987.300781 256.695312 988.738281 256.828125 990.171875 257.023438 C 991.476562 257.21875 992.71875 257.542969 994.089844 257.738281 C 995.457031 257.871094 996.894531 257.804688 998.265625 257.871094 C 999.636719 257.9375 1001.007812 258.328125 1002.441406 258.132812 C 1004.074219 257.871094 1005.964844 256.5 1007.53125 256.371094 C 1008.902344 256.238281 1010.339844 256.371094 1011.511719 256.957031 C 1012.621094 257.542969 1013.992188 259.175781 1014.449219 259.894531 C 1014.582031 260.15625 1014.582031 260.285156 1014.644531 260.546875 C 1014.710938 260.808594 1014.839844 261.132812 1014.839844 261.460938 C 1014.839844 261.785156 1014.839844 262.113281 1014.777344 262.4375 C 1014.777344 262.699219 1014.644531 263.027344 1014.515625 263.351562 C 1014.382812 263.613281 1014.253906 263.875 1014.058594 264.136719 C 1013.863281 264.398438 1013.667969 264.65625 1013.40625 264.855469 C 1013.144531 265.050781 1012.882812 265.246094 1012.558594 265.375 C 1012.296875 265.507812 1011.96875 265.570312 1011.707031 265.636719 C 1011.449219 265.703125 1011.054688 265.570312 1010.925781 265.703125 C 1010.859375 265.832031 1010.925781 266.09375 1010.859375 266.222656 C 1010.859375 266.289062 1010.796875 266.355469 1010.796875 266.417969 C 1010.730469 266.550781 1010.796875 266.617188 1010.730469 266.679688 C 1010.664062 266.8125 1010.535156 267.007812 1010.46875 267.136719 C 1010.402344 267.332031 1010.339844 267.527344 1010.273438 267.660156 C 1010.207031 267.726562 1010.140625 267.789062 1010.078125 267.855469 C 1010.011719 267.921875 1010.011719 267.984375 1009.945312 268.050781 C 1009.882812 268.183594 1009.6875 268.3125 1009.554688 268.441406 C 1009.425781 268.507812 1009.292969 268.703125 1009.230469 268.769531 C 1009.097656 268.835938 1009.03125 268.898438 1008.96875 268.898438 C 1008.902344 268.964844 1008.835938 269.03125 1008.773438 269.09375 C 1008.640625 269.160156 1008.445312 269.226562 1008.316406 269.292969 C 1008.121094 269.355469 1007.921875 269.550781 1007.859375 269.550781 C 1007.792969 269.550781 1007.792969 269.550781 1007.726562 269.550781 C 1007.597656 269.550781 1007.464844 269.683594 1007.335938 269.75 C 1007.140625 269.75 1006.8125 269.683594 1006.75 269.75 C 1006.75 269.8125 1006.8125 269.878906 1006.878906 269.945312 C 1006.945312 270.074219 1007.140625 270.464844 1007.140625 270.464844 C 1007.140625 270.464844 1007.207031 270.859375 1007.269531 271.054688 C 1007.335938 271.25 1007.402344 271.574219 1007.402344 271.574219 C 1007.402344 271.640625 1007.402344 271.96875 1007.402344 272.164062 C 1007.402344 272.359375 1007.402344 272.75 1007.402344 272.75 C 1007.402344 272.75 1007.335938 273.140625 1007.269531 273.335938 C 1007.207031 273.535156 1007.140625 273.925781 1007.140625 273.925781 C 1007.140625 273.925781 1006.945312 274.25 1006.878906 274.445312 C 1006.75 274.578125 1006.554688 274.902344 1006.554688 274.902344 C 1006.554688 274.96875 1006.292969 275.230469 1006.160156 275.359375 C 1006.03125 275.492188 1005.835938 275.816406 1005.769531 275.816406 C 1005.769531 275.816406 1005.507812 276.011719 1005.3125 276.144531 C 1005.183594 276.273438 1004.855469 276.46875 1004.855469 276.46875 C 1004.855469 276.46875 1004.464844 276.601562 1004.269531 276.664062 C 1004.136719 276.730469 1003.746094 276.863281 1003.746094 276.863281 C 1003.746094 276.863281 1003.355469 276.925781 1003.160156 276.925781 C 1002.964844 276.992188 1002.570312 276.992188 1002.570312 276.992188 C 1002.570312 276.992188 999.832031 277.253906 998.589844 276.796875 C 997.285156 276.339844 995.457031 274.644531 995.132812 273.988281 C 995.003906 273.792969 995.132812 273.730469 995.066406 273.535156 C 994.742188 273.078125 993.304688 272.164062 992.328125 271.511719 C 991.28125 270.726562 990.042969 269.75 988.867188 269.09375 C 987.628906 268.441406 985.867188 267.726562 985.082031 267.464844 C 984.757812 267.332031 984.691406 267.136719 984.363281 267.203125 C 983.648438 267.332031 981.6875 268.769531 980.90625 269.878906 C 980.1875 270.921875 980.449219 272.621094 979.796875 273.664062 C 979.078125 274.707031 977.839844 275.554688 976.597656 276.078125 C 975.359375 276.601562 973.597656 276.730469 972.292969 276.730469 C 971.246094 276.730469 969.875 276.273438 969.417969 276.273438 C 969.355469 276.273438 969.355469 276.339844 969.222656 276.339844 C 968.636719 276.40625 964.523438 276.144531 964.460938 276.144531 C 964.460938 276.144531 964.070312 276.273438 963.9375 276.273438 C 963.742188 276.339844 963.351562 276.40625 963.351562 276.40625 C 963.351562 276.40625 962.960938 276.40625 962.761719 276.40625 C 962.566406 276.40625 962.242188 276.40625 962.175781 276.40625 C 962.175781 276.40625 961.851562 276.339844 961.652344 276.273438 C 961.457031 276.207031 961.066406 276.144531 961.066406 276.144531 C 961.066406 276.144531 960.675781 275.949219 960.609375 275.882812 C 960.480469 275.816406 960.480469 275.753906 960.414062 275.753906 C 960.347656 275.816406 960.414062 276.207031 960.21875 276.40625 C 959.566406 276.796875 956.042969 277.253906 954.933594 276.339844 C 953.757812 275.359375 954.476562 270.335938 953.886719 270.140625 C 953.5625 270.007812 952.84375 271.378906 952.648438 271.3125 C 952.386719 271.117188 953.429688 268.703125 953.367188 267.332031 C 953.234375 265.832031 951.863281 262.503906 951.863281 262.503906 " clip-rule="nonzero"/></clipPath><clipPath id="7a58aee1fb"><path d="M 904 152 L 1118 152 L 1118 432 L 904 432 Z M 904 152 " clip-rule="nonzero"/></clipPath><clipPath id="8d64b0d350"><path d="M 1085.816406 152.796875 L 1117.222656 174.945312 L 936.078125 431.789062 L 904.671875 409.640625 Z M 1085.816406 152.796875 " clip-rule="nonzero"/></clipPath><clipPath id="e9a1daafcd"><path d="M 1069.902344 106.664062 L 1116.855469 106.664062 L 1116.855469 175.800781 L 1069.902344 175.800781 Z M 1069.902344 106.664062 " clip-rule="nonzero"/></clipPath><clipPath id="bf132da76d"><path d="M 1113.601562 79.289062 L 1117.09375 79.289062 L 1117.09375 172.613281 L 1113.601562 172.613281 Z M 1113.601562 79.289062 " clip-rule="nonzero"/></clipPath><clipPath id="18be441ada"><path d="M 769.984375 98.953125 L 1116.597656 98.953125 L 1116.597656 137.382812 L 769.984375 137.382812 Z M 769.984375 98.953125 " clip-rule="nonzero"/></clipPath><clipPath id="9ce21076f4"><path d="M 322.007812 65.867188 L 361.695312 65.867188 L 361.695312 521.644531 L 322.007812 521.644531 Z M 322.007812 65.867188 " clip-rule="nonzero"/></clipPath><clipPath id="34efc0a9e8"><path d="M 356.238281 65.867188 L 385.140625 65.867188 L 385.140625 137.382812 L 356.238281 137.382812 Z M 356.238281 65.867188 " clip-rule="nonzero"/></clipPath><clipPath id="e4ec9a90ad"><path d="M 474.875 136.121094 L 549.578125 136.121094 L 549.578125 288.761719 L 474.875 288.761719 Z M 474.875 136.121094 " clip-rule="nonzero"/></clipPath><clipPath id="ca717262da"><path d="M 677.820312 131.117188 L 752.046875 131.117188 L 752.046875 289.003906 L 677.820312 289.003906 Z M 677.820312 131.117188 " clip-rule="nonzero"/></clipPath><clipPath id="6316ed86e2"><path d="M 384.023438 98.328125 L 752.421875 98.328125 L 752.421875 138.25 L 384.023438 138.25 Z M 384.023438 98.328125 " clip-rule="nonzero"/></clipPath><clipPath id="c299f6d1bb"><path d="M 475.5625 310.554688 L 554.523438 310.554688 L 554.523438 452.539062 L 475.5625 452.539062 Z M 475.5625 310.554688 " clip-rule="nonzero"/></clipPath><clipPath id="ca4221f59c"><path d="M 378.449219 310.140625 L 458.242188 310.140625 L 458.242188 454.625 L 378.449219 454.625 Z M 378.449219 310.140625 " clip-rule="nonzero"/></clipPath><clipPath id="d88102a171"><path d="M 378.628906 154.222656 L 458.179688 154.222656 L 458.179688 289.953125 L 378.628906 289.953125 Z M 378.628906 154.222656 " clip-rule="nonzero"/></clipPath><clipPath id="1394635189"><path d="M 566.761719 154.882812 L 661.144531 154.882812 L 661.144531 289.78125 L 566.761719 289.78125 Z M 566.761719 154.882812 " clip-rule="nonzero"/></clipPath><clipPath id="19425c31da"><path d="M 660.507812 309.722656 L 846.585938 309.722656 L 846.585938 361.679688 L 660.507812 361.679688 Z M 660.507812 309.722656 " clip-rule="nonzero"/></clipPath><clipPath id="1c5f211153"><path d="M 577.148438 310.554688 L 707.792969 310.554688 L 707.792969 414.609375 L 577.148438 414.609375 Z M 577.148438 310.554688 " clip-rule="nonzero"/></clipPath><clipPath id="a776d7b6ec"><path d="M 658.839844 380.160156 L 846.167969 380.160156 L 846.167969 438.367188 L 658.839844 438.367188 Z M 658.839844 380.160156 " clip-rule="nonzero"/></clipPath><clipPath id="d8f42e7d17"><path d="M 769.984375 155.214844 L 843.546875 155.214844 L 843.546875 288.71875 L 769.984375 288.71875 Z M 769.984375 155.214844 " clip-rule="nonzero"/></clipPath><clipPath id="782ac3b48e"><path d="M 860.636719 154.1875 L 936.679688 154.1875 L 936.679688 289.917969 L 860.636719 289.917969 Z M 860.636719 154.1875 " clip-rule="nonzero"/></clipPath><clipPath id="c0b46c32be"><path d="M 953.402344 154.855469 L 1002.769531 154.855469 L 1002.769531 240.574219 L 953.402344 240.574219 Z M 953.402344 154.855469 " clip-rule="nonzero"/></clipPath><clipPath id="1d80cfbc81"><path d="M 973.597656 154.1875 L 1049.640625 154.1875 L 1049.640625 175.175781 L 973.597656 175.175781 Z M 973.597656 154.1875 " clip-rule="nonzero"/></clipPath><clipPath id="1cfc70c0b0"><path d="M 975 154 L 1051 154 L 1051 241 L 975 241 Z M 975 154 " clip-rule="nonzero"/></clipPath><clipPath id="8e540c7671"><path d="M 1023.355469 154.507812 L 1050.621094 173.988281 L 1002.972656 240.667969 L 975.707031 221.183594 Z M 1023.355469 154.507812 " clip-rule="nonzero"/></clipPath><clipPath id="29b438d434"><path d="M 990.011719 170.167969 L 1011.621094 170.167969 L 1011.621094 186.921875 L 990.011719 186.921875 Z M 990.011719 170.167969 " clip-rule="nonzero"/></clipPath></defs><rect x="-144" width="1728" fill="#ffffff" y="-80.999999" height="971.999992" fill-opacity="1"/><g clip-path="url(#38f2f9879f)"><g clip-path="url(#8757e6aa71)"><path fill="#d9e8f5" d="M 615.902344 449.34375 L 674.410156 449.34375 L 674.410156 506.511719 L 615.902344 506.511719 Z M 615.902344 449.34375 " fill-opacity="1" fill-rule="nonzero"/></g></g><g clip-path="url(#d2d87e5afe)"><path fill="#d9e8f5" d="M 576.953125 438.703125 L 626.230469 438.703125 L 626.230469 530.332031 L 576.953125 530.332031 Z M 576.953125 438.703125 " fill-opacity="1" fill-rule="nonzero"/></g><g clip-path="url(#a9b1fc1fff)"><path fill="#d9e8f5" d="M 531.351562 455.894531 L 607.273438 455.894531 L 607.273438 530.648438 L 531.351562 530.648438 Z M 531.351562 455.894531 " fill-opacity="1" fill-rule="nonzero"/></g><g clip-path="url(#2a0c4255f1)"><path fill="#d9e8f5" d="M 322.007812 472.324219 L 477.871094 472.324219 L 477.871094 530.320312 L 322.007812 530.320312 Z M 322.007812 472.324219 " fill-opacity="1" fill-rule="nonzero"/></g><g clip-path="url(#dbda25b6ee)"><path fill="#d9e8f5" d="M 473.964844 469.324219 L 486.324219 469.324219 L 486.324219 529.808594 L 473.964844 529.808594 Z M 473.964844 469.324219 " fill-opacity="1" fill-rule="nonzero"/></g><g clip-path="url(#776e0481ea)"><path fill="#d9e8f5" d="M 485.882812 431.785156 L 554.523438 431.785156 L 554.523438 530.726562 L 485.882812 530.726562 Z M 485.882812 431.785156 " fill-opacity="1" fill-rule="nonzero"/></g><g clip-path="url(#bbd36b22a4)"><path fill="#d9e8f5" d="M 595.933594 494.21875 L 672.015625 494.21875 L 672.015625 529.824219 L 595.933594 529.824219 Z M 595.933594 494.21875 " fill-opacity="1" fill-rule="nonzero"/></g><path stroke-linecap="butt" transform="matrix(0.652605, 0.000000000000000031, -0.000000000000000031, 0.652605, 322.007421, 529.341497)" fill="none" stroke-linejoin="miter" d="M 0.000599562 2.002651 L 594.929884 2.002651 " stroke="#304269" stroke-width="4" stroke-opacity="1" stroke-miterlimit="4"/><path stroke-linecap="butt" transform="matrix(0, 0.652605, -0.652605, 0, 711.564474, 530.648081)" fill="none" stroke-linejoin="miter" d="M 0.000545807 2.002224 L 15.521273 2.002224 " stroke="#304269" stroke-width="4" stroke-opacity="1" stroke-miterlimit="4"/><path stroke-linecap="butt" transform="matrix(0.643045, 0.111296, -0.111296, 0.643045, 710.483178, 539.489513)" fill="none" stroke-linejoin="miter" d="M 0.0021659 2.002333 L 223.371652 2.001016 " stroke="#304269" stroke-width="4" stroke-opacity="1" stroke-miterlimit="4"/><path stroke-linecap="butt" transform="matrix(0.349721, 0.550989, -0.550989, 0.349721, 854.999027, 564.937264)" fill="none" stroke-linejoin="miter" d="M 0.00115709 1.998215 L 322.521473 2.003719 " stroke="#304269" stroke-width="4" stroke-opacity="1" stroke-miterlimit="4"/><path stroke-linecap="butt" transform="matrix(0.351527, 0.549838, -0.549838, 0.351527, 877.39837, 529.947353)" fill="none" stroke-linejoin="miter" d="M 0.000999127 2.003946 L 326.54381 1.996013 " stroke="#304269" stroke-width="4" stroke-opacity="1" stroke-miterlimit="4"/><path stroke-linecap="butt" transform="matrix(-0.385927, 0.526264, -0.526264, -0.385927, 922.928168, 469.268876)" fill="none" stroke-linejoin="miter" d="M -0.000567938 2.001632 L 118.100265 2.001312 " stroke="#304269" stroke-width="4" stroke-opacity="1" stroke-miterlimit="4"/><path stroke-linecap="butt" transform="matrix(0.369365, 0.538018, -0.538018, 0.369365, 917.120936, 459.264453)" fill="none" stroke-linejoin="miter" d="M -0.000760188 2.003068 L 15.785101 2.000663 " stroke="#304269" stroke-width="4" stroke-opacity="1" stroke-miterlimit="4"/><g clip-path="url(#7ae0395038)"><g clip-path="url(#cea97c2e88)"><path fill="#d9e8f5" d="M 967.996094 310.558594 L 978.085938 318.554688 L 965.339844 334.632812 L 955.25 326.636719 Z M 967.996094 310.558594 " fill-opacity="1" fill-rule="nonzero"/></g></g><g clip-path="url(#161c10bf51)"><path fill="#d9e8f5" d="M 911.71875 369.15625 L 932.035156 369.15625 L 932.035156 401.375 L 911.71875 401.375 Z M 911.71875 369.15625 " fill-opacity="1" fill-rule="nonzero"/></g><g clip-path="url(#5bc52f3280)"><path fill="#d9e8f5" d="M 869.171875 309.558594 L 966.78125 309.558594 L 966.78125 379.75 L 869.171875 379.75 Z M 869.171875 309.558594 " fill-opacity="1" fill-rule="nonzero"/></g><g clip-path="url(#371bb77704)"><g clip-path="url(#d1b9547624)"><path fill="#d9e8f5" d="M 921.128906 423.371094 L 937.441406 423.371094 L 937.441406 443.511719 L 921.128906 443.511719 Z M 921.128906 423.371094 " fill-opacity="1" fill-rule="nonzero"/></g></g><g clip-path="url(#8c49142475)"><g clip-path="url(#673be7b3f8)"><path fill="#d9e8f5" d="M 898.824219 359.34375 L 943.304688 421.058594 L 923.175781 435.566406 L 878.695312 373.851562 Z M 898.824219 359.34375 " fill-opacity="1" fill-rule="nonzero"/></g></g><g clip-path="url(#13a1c01b3b)"><g clip-path="url(#24360d6b41)"><path fill="#d9e8f5" d="M 950.496094 254.804688 L 963.5 254.804688 L 963.5 267.464844 L 950.496094 267.464844 Z M 950.496094 254.804688 " fill-opacity="1" fill-rule="nonzero"/></g></g><g clip-path="url(#11f98af54f)"><g clip-path="url(#5a4235a045)"><path fill="#d9e8f5" d="M 949.253906 253.628906 L 1017.433594 253.628906 L 1017.433594 279.601562 L 949.253906 279.601562 Z M 949.253906 253.628906 " fill-opacity="1" fill-rule="nonzero"/></g></g><g clip-path="url(#7a58aee1fb)"><g clip-path="url(#8d64b0d350)"><path fill="#d9e8f5" d="M 1085.816406 152.796875 L 1117.222656 174.945312 L 936.050781 431.828125 L 904.644531 409.679688 Z M 1085.816406 152.796875 " fill-opacity="1" fill-rule="nonzero"/></g></g><g clip-path="url(#e9a1daafcd)"><path fill="#d9e8f5" d="M 1069.902344 106.664062 L 1116.855469 106.664062 L 1116.855469 175.808594 L 1069.902344 175.808594 Z M 1069.902344 106.664062 " fill-opacity="1" fill-rule="nonzero"/></g><path stroke-linecap="butt" transform="matrix(0.375934, -0.533448, 0.533448, 0.375934, 914.978456, 459.247821)" fill="none" stroke-linejoin="miter" d="M 0.000953408 2.002181 L 535.146968 2.002532 " stroke="#304269" stroke-width="4" stroke-opacity="1" stroke-miterlimit="4"/><g clip-path="url(#bf132da76d)"><path fill="#d9e8f5" d="M 1113.601562 79.289062 L 1117.09375 79.289062 L 1117.09375 172.609375 L 1113.601562 172.609375 Z M 1113.601562 79.289062 " fill-opacity="1" fill-rule="nonzero"/></g><g clip-path="url(#18be441ada)"><path fill="#d9e8f5" d="M 769.984375 98.953125 L 1116.59375 98.953125 L 1116.59375 137.382812 L 769.984375 137.382812 Z M 769.984375 98.953125 " fill-opacity="1" fill-rule="nonzero"/></g><path stroke-linecap="butt" transform="matrix(0, -0.652605, 0.652605, 0, 1115.916982, 174.525393)" fill="none" stroke-linejoin="miter" d="M -0.00298945 2.000711 L 146.303657 2.000711 " stroke="#304269" stroke-width="4" stroke-opacity="1" stroke-miterlimit="4"/><path stroke-linecap="butt" transform="matrix(0.652605, -0.000000000000014082, 0.000000000000014082, 0.652605, 1113.794134, 77.742957)" fill="none" stroke-linejoin="miter" d="M -0.00178583 1.99802 L 5.259579 1.99802 " stroke="#304269" stroke-width="4" stroke-opacity="1" stroke-miterlimit="4"/><path stroke-linecap="butt" transform="matrix(0, 0.652605, -0.652605, 0, 1115.094454, 79.05315)" fill="none" stroke-linejoin="miter" d="M 0.00235529 2.000278 L 30.499118 2.000278 " stroke="#304269" stroke-width="4" stroke-opacity="1" stroke-miterlimit="4"/><g clip-path="url(#9ce21076f4)"><path fill="#d9e8f5" d="M 322.007812 65.867188 L 361.695312 65.867188 L 361.695312 521.636719 L 322.007812 521.636719 Z M 322.007812 65.867188 " fill-opacity="1" fill-rule="nonzero"/></g><g clip-path="url(#34efc0a9e8)"><path fill="#d9e8f5" d="M 356.238281 65.867188 L 385.140625 65.867188 L 385.140625 137.335938 L 356.238281 137.335938 Z M 356.238281 65.867188 " fill-opacity="1" fill-rule="nonzero"/></g><g clip-path="url(#e4ec9a90ad)"><path fill="#d9e8f5" d="M 474.875 136.121094 L 549.578125 136.121094 L 549.578125 288.734375 L 474.875 288.734375 Z M 474.875 136.121094 " fill-opacity="1" fill-rule="nonzero"/></g><g clip-path="url(#ca717262da)"><path fill="#d9e8f5" d="M 677.820312 131.117188 L 752.046875 131.117188 L 752.046875 289.140625 L 677.820312 289.140625 Z M 677.820312 131.117188 " fill-opacity="1" fill-rule="nonzero"/></g><g clip-path="url(#6316ed86e2)"><path fill="#d9e8f5" d="M 384.023438 98.328125 L 752.382812 98.328125 L 752.382812 138.25 L 384.023438 138.25 Z M 384.023438 98.328125 " fill-opacity="1" fill-rule="nonzero"/></g><path stroke-linecap="butt" transform="matrix(0.652605, -0.000000000000000243, 0.000000000000000243, 0.652605, 385.142332, 97.647209)" fill="none" stroke-linejoin="miter" d="M -0.00261513 2.001081 L 1116.526055 2.001081 " stroke="#304269" stroke-width="4" stroke-opacity="1" stroke-miterlimit="4"/><path stroke-linecap="butt" transform="matrix(0.00000000113901, -0.652605, 0.652605, 0.00000000113901, 383.833581, 98.948833)" fill="none" stroke-linejoin="miter" d="M -0.000591668 2.002811 L 50.697657 2.002811 " stroke="#304269" stroke-width="4" stroke-opacity="1" stroke-miterlimit="4"/><path stroke-linecap="butt" transform="matrix(-0.652605, 0, 0, -0.652605, 385.136764, 67.171541)" fill="none" stroke-linejoin="miter" d="M 0.0000687958 1.998687 L 96.745735 1.998687 " stroke="#304269" stroke-width="4" stroke-opacity="1" stroke-miterlimit="4"/><path stroke-linecap="butt" transform="matrix(0, 0.652605, -0.652605, 0, 323.311044, 65.867925)" fill="none" stroke-linejoin="miter" d="M -0.00113083 2.002953 L 712.192545 2.002953 " stroke="#304269" stroke-width="4" stroke-opacity="1" stroke-miterlimit="4"/><path stroke-linecap="butt" transform="matrix(0.652605, -0.000000000000000405, 0.000000000000000405, 0.652605, 361.693378, 136.076279)" fill="none" stroke-linejoin="miter" d="M 0.00296485 2.002028 L 173.430481 2.002028 " stroke="#304269" stroke-width="4" stroke-opacity="1" stroke-miterlimit="4"/><path stroke-linecap="butt" transform="matrix(0, 0.652605, -0.652605, 0, 362.996618, 137.383431)" fill="none" stroke-linejoin="miter" d="M -0.000948488 2.000003 L 514.194218 2.000003 " stroke="#304269" stroke-width="4" stroke-opacity="1" stroke-miterlimit="4"/><path stroke-linecap="butt" transform="matrix(-0.652605, 0, 0, -0.652605, 474.869358, 474.251996)" fill="none" stroke-linejoin="miter" d="M -0.00265922 2.002258 L 173.430842 2.002258 " stroke="#304269" stroke-width="4" stroke-opacity="1" stroke-miterlimit="4"/><path stroke-linecap="butt" transform="matrix(0.00000000113901, -0.652605, 0.652605, 0.00000000113901, 473.569182, 472.94426)" fill="none" stroke-linejoin="miter" d="M -0.00161245 2.000931 L 6.822001 2.000931 " stroke="#304269" stroke-width="4" stroke-opacity="1" stroke-miterlimit="4"/><path stroke-linecap="butt" transform="matrix(0.652605, 0, 0, 0.652605, 474.876918, 467.190668)" fill="none" stroke-linejoin="miter" d="M -0.0029395 2.000329 L 16.864553 2.000329 " stroke="#304269" stroke-width="4" stroke-opacity="1" stroke-miterlimit="4"/><path stroke-linecap="butt" transform="matrix(0, -0.652605, 0.652605, 0, 484.576614, 468.49526)" fill="none" stroke-linejoin="miter" d="M -0.00127691 2.001515 L 24.204593 2.001515 " stroke="#304269" stroke-width="4" stroke-opacity="1" stroke-miterlimit="4"/><g clip-path="url(#c299f6d1bb)"><path fill="#d9e8f5" d="M 475.5625 310.554688 L 554.523438 310.554688 L 554.523438 452.441406 L 475.5625 452.441406 Z M 475.5625 310.554688 " fill-opacity="1" fill-rule="nonzero"/></g><path stroke-linecap="butt" transform="matrix(0.652605, 0.0000000000000022, -0.0000000000000022, 0.652605, 474.876918, 451.394373)" fill="none" stroke-linejoin="miter" d="M -0.0029395 1.999441 L 16.864553 1.999441 " stroke="#304269" stroke-width="4" stroke-opacity="1" stroke-miterlimit="4"/><path stroke-linecap="butt" transform="matrix(0, -0.652605, 0.652605, 0, 473.571246, 452.699109)" fill="none" stroke-linejoin="miter" d="M -0.000167827 1.997768 L 218.738534 1.997768 " stroke="#304269" stroke-width="4" stroke-opacity="1" stroke-miterlimit="4"/><path stroke-linecap="butt" transform="matrix(0.652605, 0, 0, 0.652605, 474.876918, 308.646304)" fill="none" stroke-linejoin="miter" d="M -0.0029395 2.002467 L 122.421061 2.002467 " stroke="#304269" stroke-width="4" stroke-opacity="1" stroke-miterlimit="4"/><g clip-path="url(#ca4221f59c)"><path fill="#d9e8f5" d="M 378.449219 310.140625 L 458.242188 310.140625 L 458.242188 454.769531 L 378.449219 454.769531 Z M 378.449219 310.140625 " fill-opacity="1" fill-rule="nonzero"/></g><path stroke-linecap="butt" transform="matrix(0.652605, 0, 0, 0.652605, 378.382516, 308.646304)" fill="none" stroke-linejoin="miter" d="M 0.000454354 2.002467 L 122.825492 2.002467 " stroke="#304269" stroke-width="4" stroke-opacity="1" stroke-miterlimit="4"/><path stroke-linecap="butt" transform="matrix(0.652605, 0.000000000000000302, -0.000000000000000302, 0.652605, 378.382516, 454.590165)" fill="none" stroke-linejoin="miter" d="M 0.000454354 1.998706 L 122.825492 1.998706 " stroke="#304269" stroke-width="4" stroke-opacity="1" stroke-miterlimit="4"/><path stroke-linecap="butt" transform="matrix(0.00000000113901, 0.652605, -0.652605, 0.00000000113901, 459.843319, 309.954028)" fill="none" stroke-linejoin="miter" d="M -0.00138431 1.998539 L 223.633559 1.998539 " stroke="#304269" stroke-width="4" stroke-opacity="1" stroke-miterlimit="4"/><path stroke-linecap="butt" transform="matrix(0, -0.652605, 0.652605, 0, 377.074792, 455.892837)" fill="none" stroke-linejoin="miter" d="M -0.00259603 1.99832 L 223.632347 1.99832 " stroke="#304269" stroke-width="4" stroke-opacity="1" stroke-miterlimit="4"/><g clip-path="url(#d88102a171)"><path fill="#d9e8f5" d="M 378.628906 154.222656 L 458.179688 154.222656 L 458.179688 290.015625 L 378.628906 290.015625 Z M 378.628906 154.222656 " fill-opacity="1" fill-rule="nonzero"/></g><path stroke-linecap="butt" transform="matrix(0.652605, 0, 0, 0.652605, 378.382516, 288.613863)" fill="none" stroke-linejoin="miter" d="M 0.000454354 1.998307 L 122.825492 1.998307 " stroke="#304269" stroke-width="4" stroke-opacity="1" stroke-miterlimit="4"/><path stroke-linecap="butt" transform="matrix(0, -0.652605, 0.652605, 0, 377.074118, 289.915904)" fill="none" stroke-linejoin="miter" d="M 0.00282148 1.999354 L 207.494533 1.999354 " stroke="#304269" stroke-width="4" stroke-opacity="1" stroke-miterlimit="4"/><path stroke-linecap="butt" transform="matrix(0.652605, -0.000000000000000567, 0.000000000000000567, 0.652605, 378.382516, 153.202087)" fill="none" stroke-linejoin="miter" d="M 0.000454354 2.000789 L 122.825492 2.000789 " stroke="#304269" stroke-width="4" stroke-opacity="1" stroke-miterlimit="4"/><path stroke-linecap="butt" transform="matrix(0, 0.652605, -0.652605, 0, 459.842671, 154.510529)" fill="none" stroke-linejoin="miter" d="M 0.00182304 1.997546 L 207.493534 1.997546 " stroke="#304269" stroke-width="4" stroke-opacity="1" stroke-miterlimit="4"/><path stroke-linecap="butt" transform="matrix(0.00000000113901, 0.652605, -0.652605, 0.00000000113901, 476.181462, 137.382157)" fill="none" stroke-linejoin="miter" d="M 0.0010043 2.001918 L 233.733698 2.001919 " stroke="#304269" stroke-width="4" stroke-opacity="1" stroke-miterlimit="4"/><path stroke-linecap="butt" transform="matrix(0.652605, 0.000000000000001296, -0.000000000000001296, 0.652605, 474.876918, 288.613863)" fill="none" stroke-linejoin="miter" d="M -0.0029395 1.998307 L 114.466164 1.998307 " stroke="#304269" stroke-width="4" stroke-opacity="1" stroke-miterlimit="4"/><path stroke-linecap="butt" transform="matrix(0, 0.652605, -0.652605, 0, 550.883595, 137.382157)" fill="none" stroke-linejoin="miter" d="M 0.0010043 2.000397 L 233.733698 2.000397 " stroke="#304269" stroke-width="4" stroke-opacity="1" stroke-miterlimit="4"/><path stroke-linecap="butt" transform="matrix(-0.652605, 0, 0, -0.652605, 677.815988, 138.686689)" fill="none" stroke-linejoin="miter" d="M -0.000640706 1.997956 L 196.507448 1.997956 " stroke="#304269" stroke-width="4" stroke-opacity="1" stroke-miterlimit="4"/><path stroke-linecap="butt" transform="matrix(0, -0.652605, 0.652605, 0, 676.514276, 289.918395)" fill="none" stroke-linejoin="miter" d="M 0.000653174 2.001266 L 233.739333 2.001266 " stroke="#304269" stroke-width="4" stroke-opacity="1" stroke-miterlimit="4"/><g clip-path="url(#1394635189)"><path fill="#d9e8f5" d="M 566.761719 154.882812 L 661.144531 154.882812 L 661.144531 289.824219 L 566.761719 289.824219 Z M 566.761719 154.882812 " fill-opacity="1" fill-rule="nonzero"/></g><path stroke-linecap="butt" transform="matrix(0.652605, 0, 0, 0.652605, 566.612618, 153.202116)" fill="none" stroke-linejoin="miter" d="M 0.00101675 2.000745 L 144.775343 2.000745 " stroke="#304269" stroke-width="4" stroke-opacity="1" stroke-miterlimit="4"/><path stroke-linecap="butt" transform="matrix(0, 0.652605, -0.652605, 0, 567.914618, 154.510529)" fill="none" stroke-linejoin="miter" d="M 0.00182304 2.00005 L 207.493534 2.00005 " stroke="#304269" stroke-width="4" stroke-opacity="1" stroke-miterlimit="4"/><path stroke-linecap="butt" transform="matrix(0, 0.652605, -0.652605, 0, 662.396109, 154.510529)" fill="none" stroke-linejoin="miter" d="M 0.00182304 2.001616 L 207.493534 2.001616 " stroke="#304269" stroke-width="4" stroke-opacity="1" stroke-miterlimit="4"/><path stroke-linecap="butt" transform="matrix(0.652605, 0, 0, 0.652605, 566.612618, 288.613863)" fill="none" stroke-linejoin="miter" d="M 0.00101675 1.998307 L 144.775343 1.998307 " stroke="#304269" stroke-width="4" stroke-opacity="1" stroke-miterlimit="4"/><path stroke-linecap="butt" transform="matrix(0, 0.652605, -0.652605, 0, 556.072658, 309.954936)" fill="none" stroke-linejoin="miter" d="M -0.00277443 2.002793 L 197.04402 2.002793 " stroke="#304269" stroke-width="4" stroke-opacity="1" stroke-miterlimit="4"/><path fill="#304269" d="M 556.070312 438.546875 L 556.070312 441.15625 L 553.460938 441.15625 L 553.460938 438.546875 M 556.070312 443.765625 L 556.070312 446.378906 L 553.460938 446.378906 L 553.460938 443.765625 M 556.070312 448.988281 L 556.070312 451.597656 L 553.460938 451.597656 L 553.460938 448.988281 M 556.070312 454.207031 L 556.070312 455.898438 L 553.460938 455.898438 L 553.460938 454.207031 " fill-opacity="1" fill-rule="nonzero"/><path stroke-linecap="butt" transform="matrix(0.652605, 0, 0, 0.652605, 554.770874, 454.590165)" fill="none" stroke-linejoin="miter" d="M -0.002058 1.998706 L 34.032209 1.998706 " stroke="#304269" stroke-width="4" stroke-opacity="1" stroke-miterlimit="4"/><path stroke-linecap="butt" transform="matrix(0.00000000113901, -0.652605, 0.652605, 0.00000000113901, 575.670505, 455.891181)" fill="none" stroke-linejoin="miter" d="M 0.000852073 2.001298 L 26.589001 2.001298 " stroke="#304269" stroke-width="4" stroke-opacity="1" stroke-miterlimit="4"/><path stroke-linecap="butt" transform="matrix(0.652605, 0, 0, 0.652605, 576.979897, 437.236726)" fill="none" stroke-linejoin="miter" d="M 0.000875805 2.001582 L 76.173947 2.001582 " stroke="#304269" stroke-width="4" stroke-opacity="1" stroke-miterlimit="4"/><path stroke-linecap="butt" transform="matrix(0.415589, 0.50317, -0.50317, 0.415589, 626.884367, 437.250814)" fill="none" stroke-linejoin="miter" d="M 1.334506 1.493477 C 38.380878 34.560331 75.429603 34.557525 112.481484 1.493485 " stroke="#304269" stroke-width="4" stroke-opacity="1" stroke-miterlimit="4"/><path stroke-linecap="butt" transform="matrix(0, 0.652605, -0.652605, 0, 674.183756, 494.473819)" fill="none" stroke-linejoin="miter" d="M -0.00178189 1.999448 L 55.437082 1.999448 " stroke="#304269" stroke-width="4" stroke-opacity="1" stroke-miterlimit="4"/><path stroke-linecap="butt" transform="matrix(0.00000000113901, -0.652605, 0.652605, 0.00000000113901, 841.544604, 563.605192)" fill="none" stroke-linejoin="miter" d="M -0.000424609 2.002679 L 41.013082 2.002679 " stroke="#304269" stroke-width="4" stroke-opacity="1" stroke-miterlimit="4"/><path stroke-linecap="butt" transform="matrix(0.586285, 0.286642, -0.286642, 0.586285, 864.136379, 523.247682)" fill="none" stroke-linejoin="miter" d="M 0.000274134 2.002636 L 21.726494 2.000786 " stroke="#304269" stroke-width="4" stroke-opacity="1" stroke-miterlimit="4"/><path stroke-linecap="butt" transform="matrix(0.351048, 0.550144, -0.550144, 0.351048, 828.977125, 467.79698)" fill="none" stroke-linejoin="miter" d="M -0.000320512 2.003133 L 101.652165 1.998418 " stroke="#304269" stroke-width="4" stroke-opacity="1" stroke-miterlimit="4"/><path stroke-linecap="butt" transform="matrix(0.351257, 0.550011, -0.550011, 0.351257, 800.302886, 467.7941)" fill="none" stroke-linejoin="miter" d="M -0.000458458 1.999234 L 124.264835 2.000422 " stroke="#304269" stroke-width="4" stroke-opacity="1" stroke-miterlimit="4"/><path stroke-linecap="butt" transform="matrix(0.652605, 0, 0, 0.652605, 695.653627, 467.190668)" fill="none" stroke-linejoin="miter" d="M -0.00196669 2.000329 L 158.670982 2.000329 " stroke="#304269" stroke-width="4" stroke-opacity="1" stroke-miterlimit="4"/><path stroke-linecap="butt" transform="matrix(0.652605, 0.000000000000003003, -0.000000000000003003, 0.652605, 827.878549, 467.190668)" fill="none" stroke-linejoin="miter" d="M 0.000548076 2.000329 L 61.77819 2.000329 " stroke="#304269" stroke-width="4" stroke-opacity="1" stroke-miterlimit="4"/><path stroke-linecap="butt" transform="matrix(0.380503, 0.530199, -0.530199, 0.380503, 883.738618, 379.011212)" fill="none" stroke-linejoin="miter" d="M 0.00283095 1.999262 L 120.188447 2.000134 " stroke="#304269" stroke-width="4" stroke-opacity="1" stroke-miterlimit="4"/><path stroke-linecap="butt" transform="matrix(0.652605, -0.0000000000000017, 0.0000000000000017, 0.652605, 868.193459, 378.463127)" fill="none" stroke-linejoin="miter" d="M 0.00284085 2.00183 L 22.197541 2.00183 " stroke="#304269" stroke-width="4" stroke-opacity="1" stroke-miterlimit="4"/><g clip-path="url(#19425c31da)"><path fill="#d9e8f5" d="M 660.507812 309.722656 L 846.613281 309.722656 L 846.613281 361.679688 L 660.507812 361.679688 Z M 660.507812 309.722656 " fill-opacity="1" fill-rule="nonzero"/></g><g clip-path="url(#1c5f211153)"><path fill="#d9e8f5" d="M 577.148438 310.554688 L 707.625 310.554688 L 707.625 414.609375 L 577.148438 414.609375 Z M 577.148438 310.554688 " fill-opacity="1" fill-rule="nonzero"/></g><g clip-path="url(#a776d7b6ec)"><path fill="#d9e8f5" d="M 658.839844 380.160156 L 846.195312 380.160156 L 846.195312 438.367188 L 658.839844 438.367188 Z M 658.839844 380.160156 " fill-opacity="1" fill-rule="nonzero"/></g><path stroke-linecap="butt" transform="matrix(0.652605, 0.000000000000000174, -0.000000000000000174, 0.652605, 707.429203, 378.463127)" fill="none" stroke-linejoin="miter" d="M 0.000742972 2.00183 L 213.142885 2.00183 " stroke="#304269" stroke-width="4" stroke-opacity="1" stroke-miterlimit="4"/><path stroke-linecap="butt" transform="matrix(0, -0.652605, 0.652605, 0, 706.121275, 379.765606)" fill="none" stroke-linejoin="miter" d="M -0.0000283563 1.998922 L 26.851488 1.998922 " stroke="#304269" stroke-width="4" stroke-opacity="1" stroke-miterlimit="4"/><path stroke-linecap="butt" transform="matrix(0.652605, -0.00000000000000089, 0.00000000000000089, 0.652605, 707.429203, 360.939319)" fill="none" stroke-linejoin="miter" d="M 0.000742972 2.002398 L 213.142885 2.002398 " stroke="#304269" stroke-width="4" stroke-opacity="1" stroke-miterlimit="4"/><path stroke-linecap="butt" transform="matrix(0, -0.652605, 0.652605, 0, 845.218212, 438.537694)" fill="none" stroke-linejoin="miter" d="M -0.00209708 2.000024 L 90.057626 2.000024 " stroke="#304269" stroke-width="4" stroke-opacity="1" stroke-miterlimit="4"/><path stroke-linecap="butt" transform="matrix(0.652605, 0.000000000000001972, -0.000000000000001972, 0.652605, 834.250812, 437.236726)" fill="none" stroke-linejoin="miter" d="M -0.00124463 2.001582 L 18.811577 2.001582 " stroke="#304269" stroke-width="4" stroke-opacity="1" stroke-miterlimit="4"/><path stroke-linecap="butt" transform="matrix(0.652605, 0, 0, 0.652605, 707.429203, 437.236726)" fill="none" stroke-linejoin="miter" d="M 0.000742972 2.001582 L 15.707025 2.001582 " stroke="#304269" stroke-width="4" stroke-opacity="1" stroke-miterlimit="4"/><path stroke-linecap="butt" transform="matrix(-0.652605, 0, 0, -0.652605, 668.883837, 439.847158)" fill="none" stroke-linejoin="miter" d="M 0.00156921 1.998435 L 15.851506 1.998435 " stroke="#304269" stroke-width="4" stroke-opacity="1" stroke-miterlimit="4"/><path stroke-linecap="butt" transform="matrix(0, -0.652605, 0.652605, 0, 657.235101, 438.53815)" fill="none" stroke-linejoin="miter" d="M -0.00139834 1.998086 L 35.870456 1.998086 " stroke="#304269" stroke-width="4" stroke-opacity="1" stroke-miterlimit="4"/><path stroke-linecap="butt" transform="matrix(-0.652605, 0, 0, -0.652605, 658.535133, 416.437583)" fill="none" stroke-linejoin="miter" d="M -0.0000354851 1.999326 L 124.979827 1.999326 " stroke="#304269" stroke-width="4" stroke-opacity="1" stroke-miterlimit="4"/><path stroke-linecap="butt" transform="matrix(0, -0.652605, 0.652605, 0, 575.669929, 415.127663)" fill="none" stroke-linejoin="miter" d="M -0.00190488 2.00218 L 161.173035 2.00218 " stroke="#304269" stroke-width="4" stroke-opacity="1" stroke-miterlimit="4"/><path stroke-linecap="butt" transform="matrix(0.652605, 0, 0, 0.652605, 576.979897, 308.646304)" fill="none" stroke-linejoin="miter" d="M 0.000875805 2.002467 L 413.032984 2.002467 " stroke="#304269" stroke-width="4" stroke-opacity="1" stroke-miterlimit="4"/><path stroke-linecap="butt" transform="matrix(0, -0.652605, 0.652605, 0, 845.220972, 362.24303)" fill="none" stroke-linejoin="miter" d="M 0.00129064 2.00178 L 80.13086 2.00178 " stroke="#304269" stroke-width="4" stroke-opacity="1" stroke-miterlimit="4"/><path fill="#304269" d="M 668.890625 437.238281 L 671.5 437.238281 L 671.5 439.847656 L 668.890625 439.847656 M 674.109375 437.238281 L 676.722656 437.238281 L 676.722656 439.847656 L 674.109375 439.847656 M 679.332031 437.238281 L 681.941406 437.238281 L 681.941406 439.847656 L 679.332031 439.847656 M 684.550781 437.238281 L 687.164062 437.238281 L 687.164062 439.847656 L 684.550781 439.847656 M 689.773438 437.238281 L 692.382812 437.238281 L 692.382812 439.847656 L 689.773438 439.847656 M 694.996094 437.238281 L 697.605469 437.238281 L 697.605469 439.847656 L 694.996094 439.847656 M 700.214844 437.238281 L 702.824219 437.238281 L 702.824219 439.847656 L 700.214844 439.847656 M 705.4375 437.238281 L 707.429688 437.238281 L 707.429688 439.847656 L 705.4375 439.847656 " fill-opacity="1" fill-rule="nonzero"/><path fill="#304269" d="M 717.679688 437.238281 L 720.292969 437.238281 L 720.292969 439.847656 L 717.679688 439.847656 M 722.902344 437.238281 L 725.511719 437.238281 L 725.511719 439.847656 L 722.902344 439.847656 M 728.125 437.238281 L 730.734375 437.238281 L 730.734375 439.847656 L 728.125 439.847656 M 733.34375 437.238281 L 735.953125 437.238281 L 735.953125 439.847656 L 733.34375 439.847656 M 738.566406 437.238281 L 741.175781 437.238281 L 741.175781 439.847656 L 738.566406 439.847656 M 743.785156 437.238281 L 746.394531 437.238281 L 746.394531 439.847656 L 743.785156 439.847656 M 749.007812 437.238281 L 751.617188 437.238281 L 751.617188 439.847656 L 749.007812 439.847656 M 754.226562 437.238281 L 756.839844 437.238281 L 756.839844 439.847656 L 754.226562 439.847656 M 759.449219 437.238281 L 762.058594 437.238281 L 762.058594 439.847656 L 759.449219 439.847656 M 764.667969 437.238281 L 767.28125 437.238281 L 767.28125 439.847656 L 764.667969 439.847656 M 769.890625 437.238281 L 772.5 437.238281 L 772.5 439.847656 L 769.890625 439.847656 M 775.109375 437.238281 L 777.722656 437.238281 L 777.722656 439.847656 L 775.109375 439.847656 M 780.332031 437.238281 L 782.941406 437.238281 L 782.941406 439.847656 L 780.332031 439.847656 M 785.550781 437.238281 L 788.164062 437.238281 L 788.164062 439.847656 L 785.550781 439.847656 M 790.773438 437.238281 L 793.382812 437.238281 L 793.382812 439.847656 L 790.773438 439.847656 M 795.996094 437.238281 L 798.605469 437.238281 L 798.605469 439.847656 L 795.996094 439.847656 M 801.214844 437.238281 L 803.824219 437.238281 L 803.824219 439.847656 L 801.214844 439.847656 M 806.4375 437.238281 L 809.046875 437.238281 L 809.046875 439.847656 L 806.4375 439.847656 M 811.65625 437.238281 L 814.265625 437.238281 L 814.265625 439.847656 L 811.65625 439.847656 M 816.878906 437.238281 L 819.488281 437.238281 L 819.488281 439.847656 L 816.878906 439.847656 M 822.097656 437.238281 L 824.707031 437.238281 L 824.707031 439.847656 L 822.097656 439.847656 M 827.320312 437.238281 L 829.929688 437.238281 L 829.929688 439.847656 L 827.320312 439.847656 M 832.539062 437.238281 L 834.25 437.238281 L 834.25 439.847656 L 832.539062 439.847656 " fill-opacity="1" fill-rule="nonzero"/><path stroke-linecap="butt" transform="matrix(0, -0.652605, 0.652605, 0, 866.883947, 379.764082)" fill="none" stroke-linejoin="miter" d="M -0.00236361 1.997461 L 106.984708 1.997461 " stroke="#304269" stroke-width="4" stroke-opacity="1" stroke-miterlimit="4"/><path stroke-linecap="butt" transform="matrix(0.652605, 0, 0, 0.652605, 868.193459, 308.646304)" fill="none" stroke-linejoin="miter" d="M 0.00284085 2.002467 L 150.93039 2.002467 " stroke="#304269" stroke-width="4" stroke-opacity="1" stroke-miterlimit="4"/><path stroke-linecap="butt" transform="matrix(0.545592, 0.358083, -0.358083, 0.545592, 967.405734, 308.861988)" fill="none" stroke-linejoin="miter" d="M 0.00231625 1.998396 L 11.042361 1.998167 " stroke="#304269" stroke-width="4" stroke-opacity="1" stroke-miterlimit="4"/><path stroke-linecap="butt" transform="matrix(-0.370904, 0.536958, -0.536958, -0.370904, 999.425812, 277.528657)" fill="none" stroke-linejoin="miter" d="M -0.00184285 2.001895 L 69.129701 2.000858 " stroke="#304269" stroke-width="4" stroke-opacity="1" stroke-miterlimit="4"/><path stroke-linecap="butt" transform="matrix(0.525633, 0.386786, -0.386786, 0.525633, 984.870653, 265.246852)" fill="none" stroke-linejoin="miter" d="M -0.000417438 1.997943 L 27.120346 2.002219 " stroke="#304269" stroke-width="4" stroke-opacity="1" stroke-miterlimit="4"/><path stroke-linecap="butt" transform="matrix(0.380604, -0.530127, 0.530127, 0.380604, 975.505205, 276.022974)" fill="none" stroke-linejoin="miter" d="M -0.000366039 2.002051 L 19.790054 2.000055 " stroke="#304269" stroke-width="4" stroke-opacity="1" stroke-miterlimit="4"/><path stroke-linecap="butt" transform="matrix(0.652605, -0.000000000000004128, 0.000000000000004128, 0.652605, 953.165358, 275.480749)" fill="none" stroke-linejoin="miter" d="M -0.00198553 1.998769 L 35.857897 1.998769 " stroke="#304269" stroke-width="4" stroke-opacity="1" stroke-miterlimit="4"/><path stroke-linecap="butt" transform="matrix(0, 0.652605, -0.652605, 0, 954.468414, 257.419841)" fill="none" stroke-linejoin="miter" d="M -0.00286835 1.998684 L 29.679849 1.998684 " stroke="#304269" stroke-width="4" stroke-opacity="1" stroke-miterlimit="4"/><path stroke-linecap="butt" transform="matrix(-0.652605, -0.00000000113901, 0.00000000113901, -0.652605, 1010.992227, 258.722937)" fill="none" stroke-linejoin="miter" d="M 0.0000610827 1.99963 L 88.617248 1.99963 " stroke="#304269" stroke-width="4" stroke-opacity="1" stroke-miterlimit="4"/><path stroke-linecap="butt" transform="matrix(0.393003, -0.521001, 0.521001, 0.393003, 1009.952523, 256.629617)" fill="none" stroke-linejoin="miter" d="M 0.00335531 2.000479 L 21.679787 2.00169 " stroke="#304269" stroke-width="4" stroke-opacity="1" stroke-miterlimit="4"/><path fill="#304269" d="M 1018.464844 245.34375 L 1020.019531 243.246094 L 1022.117188 244.796875 L 1020.5625 246.894531 M 1021.570312 241.144531 L 1023.125 239.046875 L 1025.222656 240.601562 L 1023.667969 242.699219 M 1024.675781 236.949219 L 1026.230469 234.851562 L 1028.328125 236.402344 L 1026.773438 238.503906 M 1027.78125 232.753906 L 1028.417969 231.894531 L 1030.515625 233.445312 L 1029.878906 234.304688 " fill-opacity="1" fill-rule="nonzero"/><path stroke-linecap="butt" transform="matrix(-0.372587, 0.535792, -0.535792, -0.372587, 1070.970312, 175.275347)" fill="none" stroke-linejoin="miter" d="M 0.00160865 1.999426 L 108.522577 1.999685 " stroke="#304269" stroke-width="4" stroke-opacity="1" stroke-miterlimit="4"/><path stroke-linecap="butt" transform="matrix(0.00000000113901, 0.652605, -0.652605, 0.00000000113901, 1071.202104, 137.386331)" fill="none" stroke-linejoin="miter" d="M 0.000594631 1.997635 L 56.923894 1.997635 " stroke="#304269" stroke-width="4" stroke-opacity="1" stroke-miterlimit="4"/><path stroke-linecap="butt" transform="matrix(0.652605, 0.000000000000000161, -0.000000000000000161, 0.652605, 769.443832, 136.076279)" fill="none" stroke-linejoin="miter" d="M 0.00226935 2.002028 L 460.398633 2.002028 " stroke="#304269" stroke-width="4" stroke-opacity="1" stroke-miterlimit="4"/><path stroke-linecap="butt" transform="matrix(0, -0.652605, 0.652605, 0, 768.135208, 137.378012)" fill="none" stroke-linejoin="miter" d="M -0.00136983 2.001515 L 58.885215 2.001515 " stroke="#304269" stroke-width="4" stroke-opacity="1" stroke-miterlimit="4"/><path stroke-linecap="butt" transform="matrix(0, -0.652605, 0.652605, 0, 751.111432, 289.914937)" fill="none" stroke-linejoin="miter" d="M 0.00133942 2.002032 L 292.620618 2.002032 " stroke="#304269" stroke-width="4" stroke-opacity="1" stroke-miterlimit="4"/><path stroke-linecap="butt" transform="matrix(0.652605, -0.000000000000000647, 0.000000000000000647, 0.652605, 677.820092, 288.613863)" fill="none" stroke-linejoin="miter" d="M 0.00033769 1.998307 L 114.313815 1.998307 " stroke="#304269" stroke-width="4" stroke-opacity="1" stroke-miterlimit="4"/><g clip-path="url(#d8f42e7d17)"><path fill="#d9e8f5" d="M 769.984375 155.214844 L 843.546875 155.214844 L 843.546875 288.839844 L 769.984375 288.839844 Z M 769.984375 155.214844 " fill-opacity="1" fill-rule="nonzero"/></g><path stroke-linecap="butt" transform="matrix(0.652605, 0, 0, 0.652605, 769.443832, 153.202116)" fill="none" stroke-linejoin="miter" d="M 0.00226935 2.000745 L 112.484146 2.000745 " stroke="#304269" stroke-width="4" stroke-opacity="1" stroke-miterlimit="4"/><path stroke-linecap="butt" transform="matrix(0.00000000113901, 0.652605, -0.652605, 0.00000000113901, 770.745903, 154.510529)" fill="none" stroke-linejoin="miter" d="M 0.00182303 1.998907 L 207.493534 1.998908 " stroke="#304269" stroke-width="4" stroke-opacity="1" stroke-miterlimit="4"/><path stroke-linecap="butt" transform="matrix(0.652605, 0.00000000000000066, -0.00000000000000066, 0.652605, 769.443832, 288.613863)" fill="none" stroke-linejoin="miter" d="M 0.00226935 1.998307 L 112.484146 1.998307 " stroke="#304269" stroke-width="4" stroke-opacity="1" stroke-miterlimit="4"/><path stroke-linecap="butt" transform="matrix(0, -0.652605, 0.652605, 0, 841.545012, 289.915904)" fill="none" stroke-linejoin="miter" d="M 0.00282148 2.002054 L 207.494533 2.002054 " stroke="#304269" stroke-width="4" stroke-opacity="1" stroke-miterlimit="4"/><g clip-path="url(#782ac3b48e)"><path fill="#d9e8f5" d="M 860.636719 154.1875 L 936.679688 154.1875 L 936.679688 289.9375 L 860.636719 289.9375 Z M 860.636719 154.1875 " fill-opacity="1" fill-rule="nonzero"/></g><path stroke-linecap="butt" transform="matrix(0.652605, -0.000000000000006394, 0.000000000000006394, 0.652605, 860.636963, 153.202087)" fill="none" stroke-linejoin="miter" d="M -0.000374154 2.000789 L 116.521799 2.000789 " stroke="#304269" stroke-width="4" stroke-opacity="1" stroke-miterlimit="4"/><path stroke-linecap="butt" transform="matrix(0, -0.652605, 0.652605, 0, 935.372359, 289.915904)" fill="none" stroke-linejoin="miter" d="M 0.00282148 1.99726 L 207.494533 1.99726 " stroke="#304269" stroke-width="4" stroke-opacity="1" stroke-miterlimit="4"/><path stroke-linecap="butt" transform="matrix(0.652605, 0.000000000000000637, -0.000000000000000637, 0.652605, 860.636963, 288.613863)" fill="none" stroke-linejoin="miter" d="M -0.000374154 1.998307 L 116.521799 1.998307 " stroke="#304269" stroke-width="4" stroke-opacity="1" stroke-miterlimit="4"/><path stroke-linecap="butt" transform="matrix(0, 0.652605, -0.652605, 0, 861.939035, 154.510529)" fill="none" stroke-linejoin="miter" d="M 0.00182304 2.001551 L 207.493534 2.001551 " stroke="#304269" stroke-width="4" stroke-opacity="1" stroke-miterlimit="4"/><g clip-path="url(#c0b46c32be)"><path fill="#d9e8f5" d="M 953.402344 154.855469 L 1002.769531 154.855469 L 1002.769531 240.480469 L 953.402344 240.480469 Z M 953.402344 154.855469 " fill-opacity="1" fill-rule="nonzero"/></g><g clip-path="url(#1d80cfbc81)"><path fill="#d9e8f5" d="M 973.597656 154.1875 L 1049.675781 154.1875 L 1049.675781 175.175781 L 973.597656 175.175781 Z M 973.597656 154.1875 " fill-opacity="1" fill-rule="nonzero"/></g><g clip-path="url(#1cfc70c0b0)"><g clip-path="url(#8e540c7671)"><path fill="#d9e8f5" d="M 1023.355469 154.507812 L 1050.621094 173.988281 L 1002.980469 240.65625 L 975.714844 221.175781 Z M 1023.355469 154.507812 " fill-opacity="1" fill-rule="nonzero"/></g></g><path stroke-linecap="butt" transform="matrix(0.652605, 0.000000000000000502, -0.000000000000000502, 0.652605, 953.165358, 153.202087)" fill="none" stroke-linejoin="miter" d="M -0.00198553 2.000789 L 147.830995 2.000789 " stroke="#304269" stroke-width="4" stroke-opacity="1" stroke-miterlimit="4"/><path stroke-linecap="butt" transform="matrix(0.00000000113901, -0.652605, 0.652605, 0.00000000113901, 1048.334593, 174.526228)" fill="none" stroke-linejoin="miter" d="M -0.00170965 2.001258 L 30.680607 2.001258 " stroke="#304269" stroke-width="4" stroke-opacity="1" stroke-miterlimit="4"/><path stroke-linecap="butt" transform="matrix(0.652605, 0, 0, 0.652605, 953.165358, 239.706673)" fill="none" stroke-linejoin="miter" d="M -0.00198553 1.999748 L 75.291199 1.999748 " stroke="#304269" stroke-width="4" stroke-opacity="1" stroke-miterlimit="4"/><path stroke-linecap="butt" transform="matrix(0, 0.652605, -0.652605, 0, 954.468582, 154.509211)" fill="none" stroke-linejoin="miter" d="M -0.0021436 1.998942 L 132.555521 1.998942 " stroke="#304269" stroke-width="4" stroke-opacity="1" stroke-miterlimit="4"/><path stroke-linecap="butt" transform="matrix(0.378539, -0.531603, 0.531603, 0.378539, 1001.235892, 240.250789)" fill="none" stroke-linejoin="miter" d="M 0.00156334 2.002053 L 125.063987 1.999914 " stroke="#304269" stroke-width="4" stroke-opacity="1" stroke-miterlimit="4"/><g clip-path="url(#29b438d434)"><path fill="#d9e8f5" d="M 990.011719 170.167969 L 1011.601562 170.167969 L 1011.601562 186.921875 L 990.011719 186.921875 Z M 990.011719 170.167969 " fill-opacity="1" fill-rule="nonzero"/></g></svg>