<svg xmlns="http://www.w3.org/2000/svg" xmlns:xlink="http://www.w3.org/1999/xlink" width="1920" zoomAndPan="magnify" viewBox="0 0 1440 809.999993" height="1080" preserveAspectRatio="xMidYMid meet" version="1.0"><defs><clipPath id="226f494a2b"><path d="M 656.886719 99.019531 L 723.792969 99.019531 L 723.792969 274.40625 L 656.886719 274.40625 Z M 656.886719 99.019531 " clip-rule="nonzero"/></clipPath><clipPath id="ddb8c52077"><path d="M 458 46 L 560 46 L 560 478 L 458 478 Z M 458 46 " clip-rule="nonzero"/></clipPath><clipPath id="4f3f0143cc"><path d="M 514.644531 46.910156 L 559.441406 52.800781 L 503.628906 477.125 L 458.832031 471.230469 Z M 514.644531 46.910156 " clip-rule="nonzero"/></clipPath><clipPath id="fa5dffc110"><path d="M 488.128906 252.589844 L 638.6875 252.589844 L 638.6875 338.546875 L 488.128906 338.546875 Z M 488.128906 252.589844 " clip-rule="nonzero"/></clipPath><clipPath id="87955d51ab"><path d="M 515.707031 47.480469 L 656.53125 47.480469 L 656.53125 274.488281 L 515.707031 274.488281 Z M 515.707031 47.480469 " clip-rule="nonzero"/></clipPath><clipPath id="8fcfe2a230"><path d="M 478.953125 327.25 L 656.46875 327.25 L 656.46875 511.640625 L 478.953125 511.640625 Z M 478.953125 327.25 " clip-rule="nonzero"/></clipPath><clipPath id="1ada541148"><path d="M 736.710938 348.101562 L 785.914062 348.101562 L 785.914062 393.210938 L 736.710938 393.210938 Z M 736.710938 348.101562 " clip-rule="nonzero"/></clipPath><clipPath id="9d3212d035"><path d="M 723.25 354.722656 L 780.175781 354.722656 L 780.175781 476.9375 L 723.25 476.9375 Z M 723.25 354.722656 " clip-rule="nonzero"/></clipPath><clipPath id="dcbe6dbca2"><path d="M 719.972656 475.109375 L 785.949219 475.109375 L 785.949219 504.761719 L 719.972656 504.761719 Z M 719.972656 475.109375 " clip-rule="nonzero"/></clipPath><clipPath id="cf5b3205b0"><path d="M 656.886719 327.046875 L 723.792969 327.046875 L 723.792969 504.761719 L 656.886719 504.761719 Z M 656.886719 327.046875 " clip-rule="nonzero"/></clipPath><clipPath id="2c517ff90c"><path d="M 620.621094 504.761719 L 785.949219 504.761719 L 785.949219 537.273438 L 620.621094 537.273438 Z M 620.621094 504.761719 " clip-rule="nonzero"/></clipPath><clipPath id="dacccc9aa6"><path d="M 1170.039062 385.664062 L 1196.527344 385.664062 L 1196.527344 504.261719 L 1170.039062 504.261719 Z M 1170.039062 385.664062 " clip-rule="nonzero"/></clipPath><clipPath id="804c7677c0"><path d="M 1139.515625 489.960938 L 1172.605469 489.960938 L 1172.605469 504.761719 L 1139.515625 504.761719 Z M 1139.515625 489.960938 " clip-rule="nonzero"/></clipPath><clipPath id="8a0ccbda60"><path d="M 1048.761719 425.75 L 1158.6875 425.75 L 1158.6875 465.472656 L 1048.761719 465.472656 Z M 1048.761719 425.75 " clip-rule="nonzero"/></clipPath><clipPath id="9ee26250dd"><path d="M 1111.121094 453.402344 L 1158.6875 453.402344 L 1158.6875 504.761719 L 1111.121094 504.761719 Z M 1111.121094 453.402344 " clip-rule="nonzero"/></clipPath><clipPath id="8a076f98c7"><path d="M 925.027344 479.382812 L 1112.355469 479.382812 L 1112.355469 504.761719 L 925.027344 504.761719 Z M 925.027344 479.382812 " clip-rule="nonzero"/></clipPath><clipPath id="149a756fe4"><path d="M 1142.667969 291.386719 L 1154.628906 291.386719 L 1154.628906 312.636719 L 1142.667969 312.636719 Z M 1142.667969 291.386719 " clip-rule="nonzero"/></clipPath><clipPath id="1d1e2cc6b7"><path d="M 1142.703125 298.535156 C 1143.957031 294.730469 1144.929688 293.664062 1145.765625 292.964844 C 1146.554688 292.316406 1147.34375 291.851562 1148.269531 291.574219 C 1149.292969 291.296875 1150.960938 291.390625 1151.65625 291.480469 C 1151.9375 291.527344 1152.074219 291.621094 1152.308594 291.667969 C 1152.492188 291.761719 1152.722656 291.851562 1152.910156 291.945312 C 1153.097656 292.085938 1153.28125 292.222656 1153.46875 292.363281 C 1153.605469 292.546875 1153.746094 292.734375 1153.882812 292.917969 C 1153.976562 293.105469 1154.070312 293.292969 1154.164062 293.523438 C 1154.210938 293.753906 1154.253906 293.988281 1154.300781 294.171875 C 1154.300781 294.40625 1154.300781 294.636719 1154.253906 294.867188 C 1154.210938 295.101562 1154.117188 295.332031 1154.023438 295.519531 C 1153.929688 295.703125 1153.839844 295.9375 1153.699219 296.074219 C 1153.558594 296.261719 1153.375 296.445312 1153.234375 296.585938 C 1153.050781 296.722656 1152.816406 296.863281 1152.632812 296.910156 C 1152.492188 297.003906 1152.308594 296.910156 1152.214844 297.050781 C 1151.980469 297.421875 1152.167969 299.277344 1152.398438 300.296875 C 1152.632812 301.269531 1153.1875 302.152344 1153.511719 303.082031 C 1153.792969 304.007812 1154.070312 304.84375 1154.253906 305.816406 C 1154.441406 306.886719 1154.8125 308.136719 1154.488281 309.207031 C 1154.210938 310.273438 1153.328125 311.664062 1152.308594 312.222656 C 1151.332031 312.730469 1149.570312 312.683594 1148.503906 312.3125 C 1147.527344 311.941406 1146.832031 310.921875 1146.136719 310.179688 C 1145.488281 309.4375 1144.929688 308.601562 1144.417969 307.765625 C 1143.957031 306.933594 1143.445312 306.144531 1143.167969 305.261719 C 1142.886719 304.285156 1142.84375 303.265625 1142.75 302.246094 C 1142.65625 301.085938 1142.703125 298.535156 1142.703125 298.535156 " clip-rule="nonzero"/></clipPath><clipPath id="86b868f33c"><path d="M 1189.652344 290.550781 L 1203.160156 290.550781 L 1203.160156 313.6875 L 1189.652344 313.6875 Z M 1189.652344 290.550781 " clip-rule="nonzero"/></clipPath><clipPath id="2d73bce815"><path d="M 1189.703125 293.664062 C 1189.796875 292.78125 1189.886719 292.546875 1189.980469 292.363281 C 1190.074219 292.132812 1190.214844 291.945312 1190.351562 291.804688 C 1190.492188 291.621094 1190.675781 291.433594 1190.863281 291.296875 C 1191.046875 291.203125 1191.234375 291.0625 1191.417969 290.972656 C 1191.652344 290.878906 1192.070312 290.785156 1192.070312 290.785156 C 1192.070312 290.785156 1192.625 290.644531 1193.042969 290.601562 C 1193.785156 290.601562 1195.222656 290.601562 1196.199219 290.925781 C 1197.171875 291.25 1198.148438 291.804688 1198.890625 292.503906 C 1199.679688 293.199219 1200.234375 294.21875 1200.792969 295.101562 C 1201.347656 295.980469 1201.90625 296.910156 1202.277344 297.839844 C 1202.648438 298.8125 1202.832031 299.832031 1202.925781 300.808594 C 1203.066406 301.734375 1203.15625 302.617188 1203.066406 303.589844 C 1203.019531 304.566406 1202.832031 305.679688 1202.507812 306.652344 C 1202.136719 307.675781 1201.535156 308.695312 1200.976562 309.578125 C 1200.421875 310.457031 1199.863281 311.339844 1199.074219 311.988281 C 1198.238281 312.683594 1197.125 313.472656 1195.964844 313.613281 C 1194.574219 313.753906 1192.070312 313.101562 1191.1875 312.222656 C 1190.492188 311.480469 1190.398438 310.273438 1190.398438 309.25 C 1190.398438 308.183594 1191.140625 307.023438 1191.375 305.910156 C 1191.558594 304.890625 1191.746094 303.871094 1191.789062 302.847656 C 1191.789062 301.828125 1191.699219 300.898438 1191.558594 299.925781 C 1191.417969 298.953125 1191.046875 297.140625 1191 297.003906 C 1191 297.003906 1190.957031 297.003906 1190.957031 297.003906 C 1190.957031 297.003906 1190.957031 296.957031 1190.957031 296.957031 C 1190.957031 296.910156 1190.910156 296.769531 1190.910156 296.632812 C 1190.910156 296.539062 1190.910156 296.398438 1190.910156 296.261719 C 1190.910156 296.167969 1190.910156 295.980469 1190.910156 295.9375 C 1190.910156 295.890625 1190.910156 295.890625 1190.910156 295.890625 C 1190.910156 295.796875 1190.628906 295.65625 1190.492188 295.519531 C 1190.351562 295.378906 1190.214844 295.148438 1190.074219 294.960938 C 1189.980469 294.777344 1189.886719 294.542969 1189.796875 294.359375 C 1189.75 294.125 1189.703125 293.664062 1189.703125 293.664062 " clip-rule="nonzero"/></clipPath><clipPath id="7737511831"><path d="M 1150.476562 289.714844 L 1193.402344 289.714844 L 1193.402344 314.035156 L 1150.476562 314.035156 Z M 1150.476562 289.714844 " clip-rule="nonzero"/></clipPath><clipPath id="661c352fe8"><path d="M 1143.054688 329.988281 L 1188.652344 329.988281 L 1188.652344 357.671875 L 1143.054688 357.671875 Z M 1143.054688 329.988281 " clip-rule="nonzero"/></clipPath><clipPath id="f875c8a9b7"><path d="M 1164.65625 274.40625 L 1183.640625 274.40625 L 1183.640625 357.671875 L 1164.65625 357.671875 Z M 1164.65625 274.40625 " clip-rule="nonzero"/></clipPath><clipPath id="bdd66d9501"><path d="M 1142.683594 270.859375 L 1183.589844 270.859375 L 1183.589844 277.289062 L 1142.683594 277.289062 Z M 1142.683594 270.859375 " clip-rule="nonzero"/></clipPath><clipPath id="04af89f354"><path d="M 1142.675781 243.390625 L 1188.949219 243.390625 L 1188.949219 273.949219 L 1142.675781 273.949219 Z M 1142.675781 243.390625 " clip-rule="nonzero"/></clipPath><clipPath id="4a369e2872"><path d="M 1143.054688 145.699219 L 1196.527344 145.699219 L 1196.527344 246.742188 L 1143.054688 246.742188 Z M 1143.054688 145.699219 " clip-rule="nonzero"/></clipPath><clipPath id="d080863e81"><path d="M 976.398438 98.667969 L 1196.527344 98.667969 L 1196.527344 150.4375 L 976.398438 150.4375 Z M 976.398438 98.667969 " clip-rule="nonzero"/></clipPath><clipPath id="97abc66f22"><path d="M 954.089844 80.925781 L 977.300781 80.925781 L 977.300781 94.328125 L 954.089844 94.328125 Z M 954.089844 80.925781 " clip-rule="nonzero"/></clipPath><clipPath id="f0ddc7fc56"><path d="M 954.144531 90.492188 C 954.191406 89.609375 954.332031 89.144531 954.332031 89.144531 C 954.332031 89.144531 954.515625 88.542969 954.75 88.078125 C 955.121094 87.289062 956.046875 85.292969 956.511719 84.832031 C 956.699219 84.691406 956.882812 84.691406 957.023438 84.597656 C 957.117188 84.503906 957.207031 84.273438 957.207031 84.273438 C 957.207031 84.273438 957.394531 84.132812 957.488281 84.042969 C 957.578125 83.949219 957.765625 83.808594 957.765625 83.808594 C 957.765625 83.808594 957.949219 83.671875 958.089844 83.625 C 958.183594 83.578125 958.414062 83.4375 958.414062 83.4375 C 958.414062 83.4375 960.039062 82.046875 960.964844 81.675781 C 961.847656 81.351562 962.824219 81.488281 963.796875 81.398438 C 964.726562 81.257812 965.605469 80.980469 966.535156 80.980469 C 967.460938 80.933594 968.4375 80.839844 969.316406 81.210938 C 970.386719 81.628906 971.3125 82.835938 972.242188 83.578125 C 973.074219 84.179688 974.050781 84.550781 974.699219 85.246094 C 975.347656 85.945312 975.765625 86.917969 976.183594 87.753906 C 976.601562 88.632812 977.296875 89.46875 977.25 90.398438 C 977.25 91.417969 976.648438 92.996094 975.90625 93.644531 C 975.210938 94.203125 974.097656 94.296875 973.167969 94.296875 C 972.242188 94.339844 971.21875 94.0625 970.246094 93.691406 C 969.179688 93.320312 968.066406 92.113281 966.953125 91.976562 C 966.023438 91.789062 964.679688 92.671875 964.121094 92.4375 C 963.75 92.300781 963.566406 91.464844 963.472656 91.464844 C 963.472656 91.464844 963.472656 91.511719 963.472656 91.558594 C 963.425781 91.605469 963.332031 91.652344 963.285156 91.695312 C 963.238281 91.742188 963.238281 91.789062 963.195312 91.789062 C 963.148438 91.835938 963.148438 91.835938 963.101562 91.882812 C 962.867188 92.066406 962.035156 93.320312 961.292969 93.507812 C 960.410156 93.738281 958.832031 92.71875 958.183594 92.71875 C 957.90625 92.765625 957.765625 92.902344 957.578125 92.949219 C 957.347656 92.996094 957.117188 93.042969 956.882812 93.042969 C 956.652344 93.042969 956.417969 92.996094 956.234375 92.949219 C 956.003906 92.855469 955.769531 92.808594 955.585938 92.671875 C 955.398438 92.578125 955.214844 92.4375 955.027344 92.300781 C 954.886719 92.113281 954.703125 91.976562 954.609375 91.789062 C 954.472656 91.605469 954.378906 91.371094 954.285156 91.1875 C 954.191406 90.953125 954.144531 90.492188 954.144531 90.492188 " clip-rule="nonzero"/></clipPath><clipPath id="97a7b37b95"><path d="M 953.324219 90.113281 L 977.390625 90.113281 L 977.390625 150.4375 L 953.324219 150.4375 Z M 953.324219 90.113281 " clip-rule="nonzero"/></clipPath><clipPath id="b610eb04b0"><path d="M 1079.082031 206.289062 L 1128.824219 206.289062 L 1128.824219 237.851562 L 1079.082031 237.851562 Z M 1079.082031 206.289062 " clip-rule="nonzero"/></clipPath><clipPath id="09512d7a06"><path d="M 1009.488281 202.390625 L 1129.0625 202.390625 L 1129.0625 217.25 L 1009.488281 217.25 Z M 1009.488281 202.390625 " clip-rule="nonzero"/></clipPath><clipPath id="efaef356fb"><path d="M 851.152344 165.273438 L 1128.824219 165.273438 L 1128.824219 204.257812 L 851.152344 204.257812 Z M 851.152344 165.273438 " clip-rule="nonzero"/></clipPath><clipPath id="fc65bc64cf"><path d="M 837.042969 114.160156 L 940 114.160156 L 940 171.332031 L 837.042969 171.332031 Z M 837.042969 114.160156 " clip-rule="nonzero"/></clipPath><clipPath id="bbfb15f20a"><path d="M 829.285156 114.074219 L 838.554688 114.074219 L 838.554688 198.367188 L 829.285156 198.367188 Z M 829.285156 114.074219 " clip-rule="nonzero"/></clipPath><clipPath id="916bc8c7ae"><path d="M 821.796875 114.160156 L 834.582031 114.160156 L 834.582031 217.125 L 821.796875 217.125 Z M 821.796875 114.160156 " clip-rule="nonzero"/></clipPath><clipPath id="0ec825f771"><path d="M 796.195312 114.160156 L 829.285156 114.160156 L 829.285156 243.390625 L 796.195312 243.390625 Z M 796.195312 114.160156 " clip-rule="nonzero"/></clipPath><clipPath id="e41f42deb2"><path d="M 736.828125 114.160156 L 804.488281 114.160156 L 804.488281 254.203125 L 736.828125 254.203125 Z M 736.828125 114.160156 " clip-rule="nonzero"/></clipPath><clipPath id="db13520c76"><path d="M 775.109375 224.847656 L 792.777344 224.847656 L 792.777344 274.40625 L 775.109375 274.40625 Z M 775.109375 224.847656 " clip-rule="nonzero"/></clipPath><clipPath id="c76b6f09f9"><path d="M 773 219 L 812 219 L 812 285 L 773 285 Z M 773 219 " clip-rule="nonzero"/></clipPath><clipPath id="772e2c1cd1"><path d="M 783.828125 219.449219 L 811.652344 224.019531 L 801.726562 284.464844 L 773.898438 279.894531 Z M 783.828125 219.449219 " clip-rule="nonzero"/></clipPath><clipPath id="78b0f471d8"><path d="M 772 261 L 803 261 L 803 294 L 772 294 Z M 772 261 " clip-rule="nonzero"/></clipPath><clipPath id="6d5e7d0e00"><path d="M 772.570312 272 L 789.664062 261.714844 L 802.691406 283.363281 L 785.597656 293.648438 Z M 772.570312 272 " clip-rule="nonzero"/></clipPath><clipPath id="3828b07622"><path d="M 736.59375 271.71875 L 749.664062 271.71875 L 749.664062 292.8125 L 736.59375 292.8125 Z M 736.59375 271.71875 " clip-rule="nonzero"/></clipPath><clipPath id="790f773544"><path d="M 747.773438 277.238281 C 743.644531 280.484375 742.53125 281.273438 742.484375 282.203125 C 742.390625 283.128906 743.550781 284.335938 744.292969 285.21875 C 744.941406 286.054688 746.753906 286.886719 746.613281 287.351562 C 746.472656 287.863281 743.921875 288.511719 742.949219 288 C 741.742188 287.351562 740.90625 284.152344 740.628906 282.480469 C 740.441406 281.136719 740.582031 279.929688 741 278.769531 C 741.507812 277.515625 742.53125 275.890625 743.550781 275.335938 C 744.433594 274.917969 745.871094 275.011719 746.660156 275.335938 C 747.308594 275.613281 747.820312 276.261719 748.144531 276.867188 C 748.421875 277.46875 748.5625 278.257812 748.375 278.953125 C 748.144531 279.789062 747.214844 280.996094 746.382812 281.320312 C 745.546875 281.691406 744.0625 281.507812 743.320312 281.042969 C 742.53125 280.53125 741.835938 279.1875 741.835938 278.304688 C 741.835938 277.378906 742.484375 276.078125 743.273438 275.566406 C 744.015625 275.011719 745.5 274.917969 746.335938 275.195312 C 747.03125 275.382812 747.585938 275.984375 747.957031 276.542969 C 748.285156 277.097656 748.5625 277.886719 748.421875 278.582031 C 748.285156 279.511719 746.707031 280.394531 746.613281 281.597656 C 746.472656 283.175781 748.5625 285.726562 748.839844 287.351562 C 749.070312 288.511719 749.164062 289.488281 748.792969 290.320312 C 748.421875 291.203125 747.496094 292.175781 746.613281 292.546875 C 745.730469 292.875 744.523438 292.828125 743.597656 292.546875 C 742.667969 292.269531 741.878906 291.621094 741.046875 290.738281 C 739.886719 289.53125 738.585938 287.027344 737.84375 285.355469 C 737.242188 284.105469 736.589844 282.945312 736.636719 281.785156 C 736.683594 280.71875 737.425781 279.652344 737.984375 278.722656 C 738.539062 277.792969 739.234375 277.003906 739.976562 276.171875 C 740.675781 275.335938 741.464844 274.453125 742.34375 273.757812 C 743.179688 273.109375 744.199219 272.503906 745.082031 272.179688 C 745.871094 271.902344 746.660156 271.625 747.355469 271.761719 C 748.097656 271.949219 749.117188 272.644531 749.445312 273.339844 C 749.769531 274.035156 749.675781 275.289062 749.351562 275.984375 C 749.070312 276.542969 747.773438 277.238281 747.773438 277.238281 " clip-rule="nonzero"/></clipPath><clipPath id="37e7c9ef3d"><path d="M 745.757812 270.859375 L 786.574219 270.859375 L 786.574219 293.648438 L 745.757812 293.648438 Z M 745.757812 270.859375 " clip-rule="nonzero"/></clipPath><clipPath id="661705ad48"><path d="M 736.40625 310.273438 L 749.285156 310.273438 L 749.285156 333.566406 L 736.40625 333.566406 Z M 736.40625 310.273438 " clip-rule="nonzero"/></clipPath><clipPath id="41a1c501f4"><path d="M 746.101562 316.953125 C 743.550781 318.207031 742.902344 319.179688 742.625 320.109375 C 742.34375 320.988281 742.296875 322.058594 742.53125 322.984375 C 742.761719 323.914062 743.320312 324.839844 744.109375 325.628906 C 745.082031 326.605469 747.402344 327.207031 748.238281 327.949219 C 748.699219 328.414062 748.933594 328.738281 749.070312 329.25 C 749.257812 329.851562 749.304688 330.824219 749.070312 331.523438 C 748.792969 332.171875 748.097656 332.867188 747.542969 333.191406 C 747.078125 333.472656 746.519531 333.515625 746.054688 333.515625 C 745.546875 333.515625 744.988281 333.472656 744.570312 333.144531 C 743.875 332.636719 743.457031 331.476562 742.855469 330.222656 C 741.878906 328.136719 740.210938 323.867188 739.746094 321.6875 C 739.46875 320.433594 739.605469 319.597656 739.5625 318.578125 C 739.5625 317.511719 739.328125 316.488281 739.605469 315.46875 C 739.886719 314.449219 740.535156 313.289062 741.277344 312.40625 C 741.925781 311.617188 742.855469 310.875 743.691406 310.550781 C 744.386719 310.273438 745.128906 310.226562 745.777344 310.363281 C 746.425781 310.550781 747.171875 310.96875 747.542969 311.523438 C 748.003906 312.265625 748.285156 313.753906 748.097656 314.585938 C 747.957031 315.238281 747.449219 315.933594 746.84375 316.257812 C 746.101562 316.722656 744.617188 316.90625 743.78125 316.675781 C 743.132812 316.488281 742.53125 315.886719 742.160156 315.328125 C 741.835938 314.773438 741.601562 313.9375 741.695312 313.289062 C 741.742188 312.636719 742.066406 311.851562 742.53125 311.339844 C 742.949219 310.875 743.644531 310.410156 744.339844 310.320312 C 745.222656 310.273438 746.660156 310.597656 747.308594 311.246094 C 747.957031 311.894531 748.375 313.335938 748.191406 314.214844 C 748.003906 315.097656 746.566406 315.792969 746.242188 316.628906 C 745.964844 317.277344 746.054688 317.742188 746.101562 318.53125 C 746.242188 319.921875 747.214844 322.382812 747.449219 324.050781 C 747.632812 325.304688 747.214844 326.742188 747.585938 327.53125 C 747.867188 328.042969 748.46875 328.136719 748.746094 328.550781 C 749.027344 328.96875 749.210938 329.480469 749.257812 329.992188 C 749.304688 330.5 749.257812 331.058594 749.070312 331.523438 C 748.886719 331.984375 748.5625 332.449219 748.191406 332.773438 C 747.773438 333.097656 747.308594 333.378906 746.796875 333.472656 C 746.148438 333.5625 745.40625 333.515625 744.570312 333.144531 C 743.039062 332.496094 740.257812 330.128906 739.097656 328.785156 C 738.308594 327.902344 737.9375 327.207031 737.519531 326.277344 C 737.054688 325.257812 736.546875 323.914062 736.453125 322.800781 C 736.359375 321.777344 736.5 320.945312 736.730469 319.828125 C 737.054688 318.253906 737.378906 315.65625 738.539062 314.308594 C 739.792969 312.917969 742.714844 311.941406 744.152344 311.617188 C 744.988281 311.433594 745.59375 311.480469 746.148438 311.664062 C 746.613281 311.804688 746.984375 312.035156 747.261719 312.40625 C 747.632812 312.871094 747.957031 313.753906 747.957031 314.308594 C 748.003906 314.773438 747.867188 315.238281 747.632812 315.609375 C 747.308594 316.117188 746.101562 316.953125 746.101562 316.953125 " clip-rule="nonzero"/></clipPath><clipPath id="2d17743960"><path d="M 781.757812 310.328125 L 794 310.328125 L 794 331.769531 L 781.757812 331.769531 Z M 781.757812 310.328125 " clip-rule="nonzero"/></clipPath><clipPath id="981fbb45c5"><path d="M 787.722656 311.664062 C 791.386719 314.957031 791.710938 315.839844 792.175781 316.675781 C 792.640625 317.511719 793.242188 318.34375 793.566406 319.273438 C 793.84375 320.203125 794.171875 321.082031 793.890625 322.289062 C 793.382812 324.46875 790.597656 329.25 788.554688 330.640625 C 787.117188 331.613281 785.074219 331.984375 783.960938 331.570312 C 782.988281 331.199219 782.105469 330.082031 781.828125 328.925781 C 781.503906 327.394531 782.847656 324.839844 783.128906 322.9375 C 783.359375 321.175781 783.082031 318.996094 783.5 317.835938 C 783.824219 317.046875 784.195312 316.488281 784.796875 316.164062 C 785.539062 315.746094 787.023438 315.5625 787.859375 315.839844 C 788.507812 316.027344 789.113281 316.582031 789.4375 317.183594 C 789.808594 317.972656 789.902344 319.457031 789.578125 320.246094 C 789.34375 320.945312 788.789062 321.5 788.136719 321.777344 C 787.347656 322.101562 785.863281 322.195312 785.074219 321.777344 C 784.289062 321.359375 783.546875 320.0625 783.359375 319.226562 C 783.21875 318.53125 783.5 317.742188 783.824219 317.183594 C 784.148438 316.628906 784.75 316.027344 785.402344 315.839844 C 786.234375 315.5625 787.722656 315.65625 788.464844 316.164062 C 789.207031 316.675781 789.667969 317.789062 789.902344 318.902344 C 790.226562 320.339844 789.949219 322.707031 789.484375 324.238281 C 789.113281 325.445312 788.648438 326.976562 787.765625 327.347656 C 786.933594 327.765625 784.519531 327.207031 784.242188 326.511719 C 783.917969 325.535156 788.046875 322.9375 788.136719 321.359375 C 788.230469 320.15625 787.023438 318.902344 786.234375 317.929688 C 785.492188 317.046875 784.242188 316.582031 783.636719 315.699219 C 783.035156 314.867188 782.570312 313.613281 782.570312 312.824219 C 782.617188 312.3125 782.800781 311.941406 783.082031 311.570312 C 783.453125 311.152344 784.195312 310.644531 784.75 310.457031 C 785.214844 310.320312 785.679688 310.363281 786.097656 310.503906 C 786.652344 310.691406 787.722656 311.664062 787.722656 311.664062 " clip-rule="nonzero"/></clipPath><clipPath id="293146cc1f"><path d="M 744.65625 309.921875 L 786.796875 309.921875 L 786.796875 332.910156 L 744.65625 332.910156 Z M 744.65625 309.921875 " clip-rule="nonzero"/></clipPath><clipPath id="06ffcb2940"><path d="M 1101.914062 251.34375 L 1128.410156 251.34375 L 1128.410156 385.664062 L 1101.914062 385.664062 Z M 1101.914062 251.34375 " clip-rule="nonzero"/></clipPath><clipPath id="feb3778f0d"><path d="M 878.085938 407.191406 L 912.792969 407.191406 L 912.792969 413.882812 L 878.085938 413.882812 Z M 878.085938 407.191406 " clip-rule="nonzero"/></clipPath><clipPath id="ceb366b24a"><path d="M 878.234375 387.519531 L 1087.214844 387.519531 L 1087.214844 410.726562 L 878.234375 410.726562 Z M 878.234375 387.519531 " clip-rule="nonzero"/></clipPath><clipPath id="05a9ac3e9b"><path d="M 1019.976562 370.074219 L 1079.046875 370.074219 L 1079.046875 410.171875 L 1019.976562 410.171875 Z M 1019.976562 370.074219 " clip-rule="nonzero"/></clipPath><clipPath id="f64b2685ea"><path d="M 924.8125 461.445312 L 961.613281 461.445312 L 961.613281 481.316406 L 924.8125 481.316406 Z M 924.8125 461.445312 " clip-rule="nonzero"/></clipPath><clipPath id="432e1bcb9c"><path d="M 878.765625 464.359375 L 926.144531 464.359375 L 926.144531 476.609375 L 878.765625 476.609375 Z M 878.765625 464.359375 " clip-rule="nonzero"/></clipPath><clipPath id="58dfd0ec85"><path d="M 878.207031 425.933594 L 965.117188 425.933594 L 965.117188 465.660156 L 878.207031 465.660156 Z M 878.207031 425.933594 " clip-rule="nonzero"/></clipPath><clipPath id="1732a8283b"><path d="M 1012.367188 343.535156 L 1078.863281 343.535156 L 1078.863281 372.683594 L 1012.367188 372.683594 Z M 1012.367188 343.535156 " clip-rule="nonzero"/></clipPath><clipPath id="9c79552643"><path d="M 1125.363281 389.875 L 1158.457031 389.875 L 1158.457031 410.726562 L 1125.363281 410.726562 Z M 1125.363281 389.875 " clip-rule="nonzero"/></clipPath><clipPath id="c3ceb3c19b"><path d="M 1101.914062 384.207031 L 1137.40625 384.207031 L 1137.40625 410.445312 L 1101.914062 410.445312 Z M 1101.914062 384.207031 " clip-rule="nonzero"/></clipPath><clipPath id="c43d5775b5"><path d="M 977.476562 426.121094 L 1035.589844 426.121094 L 1035.589844 464.917969 L 977.476562 464.917969 Z M 977.476562 426.121094 " clip-rule="nonzero"/></clipPath><clipPath id="cb9c76f760"><path d="M 825.898438 533.652344 L 1243.523438 533.652344 L 1243.523438 761.371094 L 825.898438 761.371094 Z M 825.898438 533.652344 " clip-rule="nonzero"/></clipPath><clipPath id="814adbd9fa"><path d="M 235 447 L 651 447 L 651 576 L 235 576 Z M 235 447 " clip-rule="nonzero"/></clipPath><clipPath id="eb63e4508b"><path d="M 244.472656 447.476562 L 650.898438 490.320312 L 641.886719 575.808594 L 235.460938 532.964844 Z M 244.472656 447.476562 " clip-rule="nonzero"/></clipPath><clipPath id="2c9e3b1ca2"><path d="M 203 444 L 246 444 L 246 535 L 203 535 Z M 203 444 " clip-rule="nonzero"/></clipPath><clipPath id="c5d22ebad6"><path d="M 214.101562 444.964844 L 245.71875 449.082031 L 234.613281 534.320312 L 203 530.203125 Z M 214.101562 444.964844 " clip-rule="nonzero"/></clipPath><clipPath id="fca24626a0"><path d="M 195 481 L 219 481 L 219 578 L 195 578 Z M 195 481 " clip-rule="nonzero"/></clipPath><clipPath id="0a74f04b22"><path d="M 208.890625 481.316406 L 218.273438 482.601562 L 205.203125 578 L 195.820312 576.710938 Z M 208.890625 481.316406 " clip-rule="nonzero"/></clipPath><clipPath id="6401429c07"><path d="M 201 492 L 755 492 L 755 626 L 201 626 Z M 201 492 " clip-rule="nonzero"/></clipPath><clipPath id="5977c225ed"><path d="M 208.863281 492.050781 L 754.011719 540.058594 L 746.472656 625.6875 L 201.320312 577.679688 Z M 208.863281 492.050781 " clip-rule="nonzero"/></clipPath><clipPath id="829498956d"><path d="M 742 529 L 786 529 L 786 629 L 742 629 Z M 742 529 " clip-rule="nonzero"/></clipPath><clipPath id="e3aa0aec98"><path d="M 753.613281 529.867188 L 785.914062 533.503906 L 775.179688 628.832031 L 742.878906 625.195312 Z M 753.613281 529.867188 " clip-rule="nonzero"/></clipPath><clipPath id="4e8792b188"><path d="M 713.382812 529.867188 L 759.496094 529.867188 L 759.496094 545.683594 L 713.382812 545.683594 Z M 713.382812 529.867188 " clip-rule="nonzero"/></clipPath></defs><rect x="-144" width="1728" fill="#ffffff" y="-80.999999" height="971.999992" fill-opacity="1"/><g clip-path="url(#226f494a2b)"><path fill="#d9e8f5" d="M 656.886719 99.019531 L 723.792969 99.019531 L 723.792969 274.390625 L 656.886719 274.390625 Z M 656.886719 99.019531 " fill-opacity="1" fill-rule="nonzero"/></g><g clip-path="url(#ddb8c52077)"><g clip-path="url(#4f3f0143cc)"><path fill="#6c8eb1" d="M 514.644531 46.910156 L 559.441406 52.800781 L 503.625 477.148438 L 458.828125 471.257812 Z M 514.644531 46.910156 " fill-opacity="1" fill-rule="nonzero"/></g></g><g clip-path="url(#fa5dffc110)"><path fill="#6c8eb1" d="M 488.128906 252.589844 L 638.5625 252.589844 L 638.5625 338.546875 L 488.128906 338.546875 Z M 488.128906 252.589844 " fill-opacity="1" fill-rule="nonzero"/></g><g clip-path="url(#87955d51ab)"><path fill="#6c8eb1" d="M 515.707031 47.480469 L 656.53125 47.480469 L 656.53125 274.667969 L 515.707031 274.667969 Z M 515.707031 47.480469 " fill-opacity="1" fill-rule="nonzero"/></g><path stroke-linecap="butt" transform="matrix(0.463968, 0.000000000000000083, -0.000000000000000083, 0.463968, 656.467125, 97.741364)" fill="none" stroke-linejoin="miter" d="M 0.00350197 1.99713 L 639.224413 1.99713 " stroke="#304269" stroke-width="4" stroke-opacity="1" stroke-miterlimit="4"/><path stroke-linecap="butt" transform="matrix(0.000000000809777, 0.463968, -0.463968, 0.000000000809777, 657.391485, 46.982559)" fill="none" stroke-linejoin="miter" d="M 0.00391355 1.997209 L 532.191272 1.99721 " stroke="#304269" stroke-width="4" stroke-opacity="1" stroke-miterlimit="4"/><path stroke-linecap="butt" transform="matrix(-0.463968, 0, 0, -0.463968, 723.789882, 275.333238)" fill="none" stroke-linejoin="miter" d="M 0.00176587 1.997957 L 183.540777 1.997957 " stroke="#304269" stroke-width="4" stroke-opacity="1" stroke-miterlimit="4"/><path stroke-linecap="butt" transform="matrix(0, 0.463968, -0.463968, 0, 639.562702, 274.407779)" fill="none" stroke-linejoin="miter" d="M -0.00329547 1.995791 L 42.008616 1.995791 " stroke="#304269" stroke-width="4" stroke-opacity="1" stroke-miterlimit="4"/><g clip-path="url(#8fcfe2a230)"><path fill="#6c8eb1" d="M 478.953125 327.25 L 656.46875 327.25 L 656.46875 511.699219 L 478.953125 511.699219 Z M 478.953125 327.25 " fill-opacity="1" fill-rule="nonzero"/></g><path stroke-linecap="butt" transform="matrix(0, 0.463968, -0.463968, 0, 639.565174, 308.730796)" fill="none" stroke-linejoin="miter" d="M -0.000706338 2.001119 L 39.999011 2.001119 " stroke="#304269" stroke-width="4" stroke-opacity="1" stroke-miterlimit="4"/><g clip-path="url(#1ada541148)"><path fill="#d9e8f5" d="M 736.710938 348.101562 L 785.871094 348.101562 L 785.871094 393.210938 L 736.710938 393.210938 Z M 736.710938 348.101562 " fill-opacity="1" fill-rule="nonzero"/></g><g clip-path="url(#9d3212d035)"><path fill="#d9e8f5" d="M 723.25 354.722656 L 780.175781 354.722656 L 780.175781 477.027344 L 723.25 477.027344 Z M 723.25 354.722656 " fill-opacity="1" fill-rule="nonzero"/></g><g clip-path="url(#dcbe6dbca2)"><path fill="#d9e8f5" d="M 719.972656 475.109375 L 786.003906 475.109375 L 786.003906 504.761719 L 719.972656 504.761719 Z M 719.972656 475.109375 " fill-opacity="1" fill-rule="nonzero"/></g><g clip-path="url(#cf5b3205b0)"><path fill="#d9e8f5" d="M 656.886719 327.046875 L 723.792969 327.046875 L 723.792969 504.769531 L 656.886719 504.769531 Z M 656.886719 327.046875 " fill-opacity="1" fill-rule="nonzero"/></g><path stroke-linecap="butt" transform="matrix(0.463968, 0.000000000000000144, -0.000000000000000144, 0.463968, 638.637214, 326.361596)" fill="none" stroke-linejoin="miter" d="M -0.00106762 1.998987 L 183.537943 1.998987 " stroke="#304269" stroke-width="4" stroke-opacity="1" stroke-miterlimit="4"/><path stroke-linecap="butt" transform="matrix(0, 0.463968, -0.463968, 0, 657.392445, 308.733492)" fill="none" stroke-linejoin="miter" d="M 0.00190386 1.999278 L 422.512075 1.999278 " stroke="#304269" stroke-width="4" stroke-opacity="1" stroke-miterlimit="4"/><g clip-path="url(#2c517ff90c)"><path fill="#6c8eb1" d="M 620.621094 504.761719 L 785.972656 504.761719 L 785.972656 537.273438 L 620.621094 537.273438 Z M 620.621094 504.761719 " fill-opacity="1" fill-rule="nonzero"/></g><path stroke-linecap="butt" transform="matrix(0.463968, 0, 0, 0.463968, 656.467125, 503.834755)" fill="none" stroke-linejoin="miter" d="M 0.00350197 1.997905 L 279.07541 1.997905 " stroke="#304269" stroke-width="4" stroke-opacity="1" stroke-miterlimit="4"/><path stroke-linecap="butt" transform="matrix(0.000000000809777, 0.463968, -0.463968, 0.000000000809777, 786.875943, 504.763651)" fill="none" stroke-linejoin="miter" d="M -0.00416377 1.997387 L 60.984671 1.997387 " stroke="#304269" stroke-width="4" stroke-opacity="1" stroke-miterlimit="4"/><path stroke-linecap="butt" transform="matrix(0.000000000809777, -0.463968, 0.463968, 0.000000000809777, 824.180773, 533.058449)" fill="none" stroke-linejoin="miter" d="M -0.000311586 2.001435 L 60.988523 2.001435 " stroke="#304269" stroke-width="4" stroke-opacity="1" stroke-miterlimit="4"/><g clip-path="url(#dacccc9aa6)"><path fill="#d9e8f5" d="M 1170.039062 385.664062 L 1196.527344 385.664062 L 1196.527344 504.242188 L 1170.039062 504.242188 Z M 1170.039062 385.664062 " fill-opacity="1" fill-rule="nonzero"/></g><g clip-path="url(#804c7677c0)"><path fill="#d9e8f5" d="M 1139.515625 489.960938 L 1172.585938 489.960938 L 1172.585938 504.761719 L 1139.515625 504.761719 Z M 1139.515625 489.960938 " fill-opacity="1" fill-rule="nonzero"/></g><g clip-path="url(#8a0ccbda60)"><path fill="#d9e8f5" d="M 1048.761719 425.75 L 1158.625 425.75 L 1158.625 465.472656 L 1048.761719 465.472656 Z M 1048.761719 425.75 " fill-opacity="1" fill-rule="nonzero"/></g><g clip-path="url(#9ee26250dd)"><path fill="#d9e8f5" d="M 1111.121094 453.402344 L 1158.6875 453.402344 L 1158.6875 504.683594 L 1111.121094 504.683594 Z M 1111.121094 453.402344 " fill-opacity="1" fill-rule="nonzero"/></g><g clip-path="url(#8a076f98c7)"><path fill="#d9e8f5" d="M 925.027344 479.382812 L 1112.394531 479.382812 L 1112.394531 504.761719 L 925.027344 504.761719 Z M 925.027344 479.382812 " fill-opacity="1" fill-rule="nonzero"/></g><path stroke-linecap="butt" transform="matrix(0.463968, 0, 0, 0.463968, 825.109645, 503.834755)" fill="none" stroke-linejoin="miter" d="M -0.000581316 1.997905 L 800.524179 1.997905 " stroke="#304269" stroke-width="4" stroke-opacity="1" stroke-miterlimit="4"/><path stroke-linecap="butt" transform="matrix(0, 0.463968, -0.463968, 0, 1197.452178, 357.675237)" fill="none" stroke-linejoin="miter" d="M 0.00117259 2.001733 L 317.026928 2.001733 " stroke="#304269" stroke-width="4" stroke-opacity="1" stroke-miterlimit="4"/><g clip-path="url(#149a756fe4)"><g clip-path="url(#1d1e2cc6b7)"><path fill="#d9e8f5" d="M 1140.847656 289.625 L 1156.390625 289.625 L 1156.390625 314.214844 L 1140.847656 314.214844 Z M 1140.847656 289.625 " fill-opacity="1" fill-rule="nonzero"/></g></g><g clip-path="url(#86b868f33c)"><g clip-path="url(#2d73bce815)"><path fill="#d9e8f5" d="M 1187.847656 288.746094 L 1204.96875 288.746094 L 1204.96875 315.496094 L 1187.847656 315.496094 Z M 1187.847656 288.746094 " fill-opacity="1" fill-rule="nonzero"/></g></g><g clip-path="url(#7737511831)"><path fill="#d9e8f5" d="M 1150.476562 289.714844 L 1193.421875 289.714844 L 1193.421875 314.035156 L 1150.476562 314.035156 Z M 1150.476562 289.714844 " fill-opacity="1" fill-rule="nonzero"/></g><g clip-path="url(#661c352fe8)"><path fill="#d9e8f5" d="M 1143.054688 329.988281 L 1188.691406 329.988281 L 1188.691406 357.671875 L 1143.054688 357.671875 Z M 1143.054688 329.988281 " fill-opacity="1" fill-rule="nonzero"/></g><g clip-path="url(#f875c8a9b7)"><path fill="#d9e8f5" d="M 1164.65625 274.40625 L 1183.640625 274.40625 L 1183.640625 357.691406 L 1164.65625 357.691406 Z M 1164.65625 274.40625 " fill-opacity="1" fill-rule="nonzero"/></g><path stroke-linecap="butt" transform="matrix(0.463968, -0.00000000000000023, 0.00000000000000023, 0.463968, 1142.674293, 356.744973)" fill="none" stroke-linejoin="miter" d="M 0.00320823 1.99777 L 116.070585 1.99777 " stroke="#304269" stroke-width="4" stroke-opacity="1" stroke-miterlimit="4"/><path stroke-linecap="butt" transform="matrix(0, 0.463968, -0.463968, 0, 1189.852914, 330.071723)" fill="none" stroke-linejoin="miter" d="M -0.00303921 1.998269 L 59.495593 1.998269 " stroke="#304269" stroke-width="4" stroke-opacity="1" stroke-miterlimit="4"/><path stroke-linecap="butt" transform="matrix(0.463968, 0, 0, 0.463968, 1183.591699, 329.141516)" fill="none" stroke-linejoin="miter" d="M -0.00399796 2.001854 L 11.496657 2.001854 " stroke="#304269" stroke-width="4" stroke-opacity="1" stroke-miterlimit="4"/><path stroke-linecap="butt" transform="matrix(0, 0.463968, -0.463968, 0, 1184.517955, 314.068101)" fill="none" stroke-linejoin="miter" d="M -0.00365273 2.000376 L 34.489894 2.000376 " stroke="#304269" stroke-width="4" stroke-opacity="1" stroke-miterlimit="4"/><path stroke-linecap="butt" transform="matrix(-0.463968, 0.000000000809777, -0.000000000809777, -0.463968, 1192.175106, 314.994379)" fill="none" stroke-linejoin="miter" d="M -0.00145485 2.000078 L 18.503992 2.000078 " stroke="#304269" stroke-width="4" stroke-opacity="1" stroke-miterlimit="4"/><g clip-path="url(#bdd66d9501)"><path fill="#d9e8f5" d="M 1142.683594 270.859375 L 1183.589844 270.859375 L 1183.589844 277.289062 L 1142.683594 277.289062 Z M 1142.683594 270.859375 " fill-opacity="1" fill-rule="nonzero"/></g><path stroke-linecap="butt" transform="matrix(0, 0.463968, -0.463968, 0, 1184.516443, 274.408511)" fill="none" stroke-linejoin="miter" d="M 0.00354605 1.997118 L 32.484899 1.997118 " stroke="#304269" stroke-width="4" stroke-opacity="1" stroke-miterlimit="4"/><g clip-path="url(#04af89f354)"><path fill="#d9e8f5" d="M 1142.675781 243.390625 L 1188.992188 243.390625 L 1188.992188 273.949219 L 1142.675781 273.949219 Z M 1142.675781 243.390625 " fill-opacity="1" fill-rule="nonzero"/></g><path stroke-linecap="butt" transform="matrix(0.463968, -0.000000000000004603, 0.000000000000004603, 0.463968, 1183.591819, 273.477369)" fill="none" stroke-linejoin="miter" d="M 0.00416262 2.002037 L 11.496399 2.002037 " stroke="#304269" stroke-width="4" stroke-opacity="1" stroke-miterlimit="4"/><path stroke-linecap="butt" transform="matrix(0.463968, 0, 0, 0.463968, 1183.591699, 288.54818)" fill="none" stroke-linejoin="miter" d="M -0.00399796 2.000962 L 18.501449 2.000962 " stroke="#304269" stroke-width="4" stroke-opacity="1" stroke-miterlimit="4"/><path stroke-linecap="butt" transform="matrix(0.299847, 0.354059, -0.354059, 0.299847, 1195.076322, 286.248608)" fill="none" stroke-linejoin="miter" d="M 1.263535 9.273346 C 13.129651 -0.426057 24.987682 -0.423482 36.854936 9.273663 " stroke="#304269" stroke-width="4" stroke-opacity="1" stroke-miterlimit="4"/><path stroke-linecap="butt" transform="matrix(0.308466, -0.346576, 0.346576, 0.308466, 1191.247914, 314.095082)" fill="none" stroke-linejoin="miter" d="M 1.375753 1.452765 C 12.910122 12.398701 24.437473 12.395509 35.975292 1.450169 " stroke="#304269" stroke-width="4" stroke-opacity="1" stroke-miterlimit="4"/><path stroke-linecap="butt" transform="matrix(0, 0.463968, -0.463968, 0, 1189.852914, 247.021532)" fill="none" stroke-linejoin="miter" d="M 0.00410788 1.998269 L 59.022845 1.998269 " stroke="#304269" stroke-width="4" stroke-opacity="1" stroke-miterlimit="4"/><g clip-path="url(#4a369e2872)"><path fill="#d9e8f5" d="M 1143.054688 145.699219 L 1196.527344 145.699219 L 1196.527344 246.796875 L 1143.054688 246.796875 Z M 1143.054688 145.699219 " fill-opacity="1" fill-rule="nonzero"/></g><path stroke-linecap="butt" transform="matrix(0.463968, 0, 0, 0.463968, 1188.927378, 246.091179)" fill="none" stroke-linejoin="miter" d="M -0.00344239 2.000897 L 16.380361 2.000897 " stroke="#304269" stroke-width="4" stroke-opacity="1" stroke-miterlimit="4"/><g clip-path="url(#d080863e81)"><path fill="#d9e8f5" d="M 976.398438 98.667969 L 1196.621094 98.667969 L 1196.621094 150.4375 L 976.398438 150.4375 Z M 976.398438 98.667969 " fill-opacity="1" fill-rule="nonzero"/></g><path stroke-linecap="butt" transform="matrix(0, 0.463968, -0.463968, 0, 1197.452874, 98.670915)" fill="none" stroke-linejoin="miter" d="M 0.00206903 2.003233 L 319.738813 2.003233 " stroke="#304269" stroke-width="4" stroke-opacity="1" stroke-miterlimit="4"/><g clip-path="url(#97abc66f22)"><g clip-path="url(#f0ddc7fc56)"><path fill="#d9e8f5" d="M 952.289062 79.125 L 979.167969 79.125 L 979.167969 96.199219 L 952.289062 96.199219 Z M 952.289062 79.125 " fill-opacity="1" fill-rule="nonzero"/></g></g><g clip-path="url(#97a7b37b95)"><path fill="#d9e8f5" d="M 953.324219 90.113281 L 977.390625 90.113281 L 977.390625 150.464844 L 953.324219 150.464844 Z M 953.324219 90.113281 " fill-opacity="1" fill-rule="nonzero"/></g><path stroke-linecap="butt" transform="matrix(0.463968, 0.000000000000000112, -0.000000000000000112, 0.463968, 977.125157, 97.741364)" fill="none" stroke-linejoin="miter" d="M -0.000338524 1.99713 L 472.88203 1.99713 " stroke="#304269" stroke-width="4" stroke-opacity="1" stroke-miterlimit="4"/><path stroke-linecap="butt" transform="matrix(0.000000000809777, -0.463968, 0.463968, 0.000000000809777, 976.197197, 98.669269)" fill="none" stroke-linejoin="miter" d="M 0.00280167 1.999713 L 16.748632 1.999713 " stroke="#304269" stroke-width="4" stroke-opacity="1" stroke-miterlimit="4"/><path stroke-linecap="butt" transform="matrix(0.000000000809777, -0.463968, 0.463968, 0.000000000809777, 952.116702, 150.774476)" fill="none" stroke-linejoin="miter" d="M 0.00223747 1.996401 L 129.060471 1.996401 " stroke="#304269" stroke-width="4" stroke-opacity="1" stroke-miterlimit="4"/><path stroke-linecap="butt" transform="matrix(0.360923, -0.29155, 0.29155, 0.360923, 950.28723, 88.290265)" fill="none" stroke-linejoin="miter" d="M 1.106327 8.109259 C 13.441579 -0.0332516 24.582548 -0.0383862 34.518653 8.106954 " stroke="#304269" stroke-width="4" stroke-opacity="1" stroke-miterlimit="4"/><path stroke-linecap="butt" transform="matrix(-0.359746, -0.293, 0.293, -0.359746, 977.127029, 91.819307)" fill="none" stroke-linejoin="miter" d="M 1.273953 1.543903 C 12.619557 10.914531 23.971241 10.920304 35.319583 1.536322 " stroke="#304269" stroke-width="4" stroke-opacity="1" stroke-miterlimit="4"/><path stroke-linecap="butt" transform="matrix(0, -0.463968, 0.463968, 0, 785.018823, 504.760435)" fill="none" stroke-linejoin="miter" d="M -0.00276774 1.996882 L 63.915956 1.996882 " stroke="#304269" stroke-width="4" stroke-opacity="1" stroke-miterlimit="4"/><path stroke-linecap="butt" transform="matrix(-0.463968, 0, 0, -0.463968, 785.943471, 476.035628)" fill="none" stroke-linejoin="miter" d="M -0.00396971 1.996372 L 12.96163 1.996372 " stroke="#304269" stroke-width="4" stroke-opacity="1" stroke-miterlimit="4"/><path stroke-linecap="butt" transform="matrix(0, -0.463968, 0.463968, 0, 779.005215, 475.107188)" fill="none" stroke-linejoin="miter" d="M 0.00370575 2.000954 L 176.521087 2.000954 " stroke="#304269" stroke-width="4" stroke-opacity="1" stroke-miterlimit="4"/><path stroke-linecap="butt" transform="matrix(0.463968, 0, 0, 0.463968, 779.933583, 392.281171)" fill="none" stroke-linejoin="miter" d="M 0.0000232024 2.003944 L 12.965623 2.003944 " stroke="#304269" stroke-width="4" stroke-opacity="1" stroke-miterlimit="4"/><path stroke-linecap="butt" transform="matrix(0, -0.463968, 0.463968, 0, 785.018991, 393.207041)" fill="none" stroke-linejoin="miter" d="M 0.0000210538 1.99652 L 97.494597 1.99652 " stroke="#304269" stroke-width="4" stroke-opacity="1" stroke-miterlimit="4"/><path stroke-linecap="butt" transform="matrix(-0.463968, -0.000000000809777, 0.000000000809777, -0.463968, 785.943471, 348.903254)" fill="none" stroke-linejoin="miter" d="M -0.0039697 1.997318 L 106.962229 1.997318 " stroke="#304269" stroke-width="4" stroke-opacity="1" stroke-miterlimit="4"/><path stroke-linecap="butt" transform="matrix(0.000000000809777, 0.463968, -0.463968, 0.000000000809777, 737.245985, 347.977884)" fill="none" stroke-linejoin="miter" d="M -0.00284846 2.00354 L 15.008622 2.00354 " stroke="#304269" stroke-width="4" stroke-opacity="1" stroke-miterlimit="4"/><path stroke-linecap="butt" transform="matrix(-0.463968, -0.000000000809777, 0.000000000809777, -0.463968, 736.320617, 355.867884)" fill="none" stroke-linejoin="miter" d="M 0.000656684 1.996856 L 27.001097 1.996856 " stroke="#304269" stroke-width="4" stroke-opacity="1" stroke-miterlimit="4"/><path stroke-linecap="butt" transform="matrix(0.000000000809777, -0.463968, 0.463968, 0.000000000809777, 722.865138, 354.939552)" fill="none" stroke-linejoin="miter" d="M -0.00399705 1.999773 L 59.595666 1.999773 " stroke="#304269" stroke-width="4" stroke-opacity="1" stroke-miterlimit="4"/><path stroke-linecap="butt" transform="matrix(0, -0.463968, 0.463968, 0, 722.86509, 274.40488)" fill="none" stroke-linejoin="miter" d="M -0.00295323 1.999876 L 378.769366 1.999876 " stroke="#304269" stroke-width="4" stroke-opacity="1" stroke-miterlimit="4"/><g clip-path="url(#b610eb04b0)"><path fill="#d9e8f5" d="M 1079.082031 206.289062 L 1128.765625 206.289062 L 1128.765625 237.851562 L 1079.082031 237.851562 Z M 1079.082031 206.289062 " fill-opacity="1" fill-rule="nonzero"/></g><g clip-path="url(#09512d7a06)"><path fill="#d9e8f5" d="M 1009.488281 202.390625 L 1129.046875 202.390625 L 1129.046875 217.25 L 1009.488281 217.25 Z M 1009.488281 202.390625 " fill-opacity="1" fill-rule="nonzero"/></g><g clip-path="url(#efaef356fb)"><path fill="#d9e8f5" d="M 851.152344 165.273438 L 1128.761719 165.273438 L 1128.761719 204.257812 L 851.152344 204.257812 Z M 851.152344 165.273438 " fill-opacity="1" fill-rule="nonzero"/></g><g clip-path="url(#fc65bc64cf)"><path fill="#d9e8f5" d="M 837.042969 114.160156 L 939.996094 114.160156 L 939.996094 171.332031 L 837.042969 171.332031 Z M 837.042969 114.160156 " fill-opacity="1" fill-rule="nonzero"/></g><g clip-path="url(#bbfb15f20a)"><path fill="#d9e8f5" d="M 829.285156 114.074219 L 838.554688 114.074219 L 838.554688 198.371094 L 829.285156 198.371094 Z M 829.285156 114.074219 " fill-opacity="1" fill-rule="nonzero"/></g><g clip-path="url(#916bc8c7ae)"><path fill="#d9e8f5" d="M 821.796875 114.160156 L 834.582031 114.160156 L 834.582031 217.144531 L 821.796875 217.144531 Z M 821.796875 114.160156 " fill-opacity="1" fill-rule="nonzero"/></g><g clip-path="url(#0ec825f771)"><path fill="#d9e8f5" d="M 796.195312 114.160156 L 829.285156 114.160156 L 829.285156 243.417969 L 796.195312 243.417969 Z M 796.195312 114.160156 " fill-opacity="1" fill-rule="nonzero"/></g><g clip-path="url(#e41f42deb2)"><path fill="#d9e8f5" d="M 736.828125 114.160156 L 804.488281 114.160156 L 804.488281 254.242188 L 736.828125 254.242188 Z M 736.828125 114.160156 " fill-opacity="1" fill-rule="nonzero"/></g><g clip-path="url(#db13520c76)"><path fill="#d9e8f5" d="M 775.109375 224.847656 L 792.777344 224.847656 L 792.777344 274.398438 L 775.109375 274.398438 Z M 775.109375 224.847656 " fill-opacity="1" fill-rule="nonzero"/></g><g clip-path="url(#c76b6f09f9)"><g clip-path="url(#772e2c1cd1)"><path fill="#d9e8f5" d="M 783.828125 219.449219 L 811.652344 224.019531 L 801.726562 284.453125 L 773.902344 279.882812 Z M 783.828125 219.449219 " fill-opacity="1" fill-rule="nonzero"/></g></g><g clip-path="url(#78b0f471d8)"><g clip-path="url(#6d5e7d0e00)"><path fill="#d9e8f5" d="M 772.570312 272 L 789.664062 261.714844 L 802.683594 283.347656 L 785.589844 293.636719 Z M 772.570312 272 " fill-opacity="1" fill-rule="nonzero"/></g></g><g clip-path="url(#3828b07622)"><g clip-path="url(#790f773544)"><path fill="#d9e8f5" d="M 734.78125 269.90625 L 751.34375 269.90625 L 751.34375 294.429688 L 734.78125 294.429688 Z M 734.78125 269.90625 " fill-opacity="1" fill-rule="nonzero"/></g></g><g clip-path="url(#37e7c9ef3d)"><path fill="#d9e8f5" d="M 745.757812 270.859375 L 786.535156 270.859375 L 786.535156 293.648438 L 745.757812 293.648438 Z M 745.757812 270.859375 " fill-opacity="1" fill-rule="nonzero"/></g><path stroke-linecap="butt" transform="matrix(0, -0.463968, 0.463968, 0, 735.738953, 294.676205)" fill="none" stroke-linejoin="miter" d="M 1.693177 21.703303 C 18.329557 -4.564666 34.974356 -4.564666 51.619156 21.703303 " stroke="#304269" stroke-width="4" stroke-opacity="1" stroke-miterlimit="4"/><path stroke-linecap="butt" transform="matrix(0.463968, 0.000000000000000416, -0.000000000000000416, 0.463968, 745.809353, 269.801783)" fill="none" stroke-linejoin="miter" d="M -0.00163578 2.001615 L 63.470869 2.001615 " stroke="#304269" stroke-width="4" stroke-opacity="1" stroke-miterlimit="4"/><path stroke-linecap="butt" transform="matrix(0.463968, 0.000000000000000463, -0.000000000000000463, 0.463968, 759.496384, 292.968989)" fill="none" stroke-linejoin="miter" d="M -0.00062561 2.003259 L 57.014337 2.003259 " stroke="#304269" stroke-width="4" stroke-opacity="1" stroke-miterlimit="4"/><path fill="#304269" d="M 759.496094 294.824219 L 757.640625 294.824219 L 757.640625 292.96875 L 759.496094 292.96875 M 755.785156 294.824219 L 753.929688 294.824219 L 753.929688 292.96875 L 755.785156 292.96875 M 752.074219 294.824219 L 750.21875 294.824219 L 750.21875 292.96875 L 752.074219 292.96875 M 748.359375 294.824219 L 746.503906 294.824219 L 746.503906 292.96875 L 748.359375 292.96875 " fill-opacity="1" fill-rule="nonzero"/><g clip-path="url(#661705ad48)"><g clip-path="url(#41a1c501f4)"><path fill="#d9e8f5" d="M 734.597656 308.460938 L 751.160156 308.460938 L 751.160156 335.378906 L 734.597656 335.378906 Z M 734.597656 308.460938 " fill-opacity="1" fill-rule="nonzero"/></g></g><g clip-path="url(#2d17743960)"><g clip-path="url(#981fbb45c5)"><path fill="#d9e8f5" d="M 779.972656 308.601562 L 795.746094 308.601562 L 795.746094 333.433594 L 779.972656 333.433594 Z M 779.972656 308.601562 " fill-opacity="1" fill-rule="nonzero"/></g></g><g clip-path="url(#293146cc1f)"><path fill="#d9e8f5" d="M 744.65625 309.921875 L 786.773438 309.921875 L 786.773438 332.910156 L 744.65625 332.910156 Z M 744.65625 309.921875 " fill-opacity="1" fill-rule="nonzero"/></g><path stroke-linecap="butt" transform="matrix(0, -0.463968, 0.463968, 0, 735.242249, 333.69091)" fill="none" stroke-linejoin="miter" d="M 1.691195 21.696199 C 18.335994 -4.563351 34.980793 -4.563351 51.625593 21.696199 " stroke="#304269" stroke-width="4" stroke-opacity="1" stroke-miterlimit="4"/><path stroke-linecap="butt" transform="matrix(0, 0.463968, -0.463968, 0, 795.215942, 309.278383)" fill="none" stroke-linejoin="miter" d="M 1.605832 18.785649 C 18.250631 -3.59264 34.89543 -3.59264 51.540229 18.785649 " stroke="#304269" stroke-width="4" stroke-opacity="1" stroke-miterlimit="4"/><path stroke-linecap="butt" transform="matrix(0.463968, 0.000000000000000297, -0.000000000000000297, 0.463968, 745.312649, 309.097154)" fill="none" stroke-linejoin="miter" d="M -0.000320553 1.996438 L 88.780362 1.996438 " stroke="#304269" stroke-width="4" stroke-opacity="1" stroke-miterlimit="4"/><path stroke-linecap="butt" transform="matrix(0.463968, 0, 0, 0.463968, 745.312649, 331.983694)" fill="none" stroke-linejoin="miter" d="M -0.000320553 1.996822 L 88.780362 1.996822 " stroke="#304269" stroke-width="4" stroke-opacity="1" stroke-miterlimit="4"/><path stroke-linecap="butt" transform="matrix(0, 0.463968, -0.463968, 0, 737.246801, 114.076934)" fill="none" stroke-linejoin="miter" d="M 0.00256642 1.99688 L 303.21238 1.99688 " stroke="#304269" stroke-width="4" stroke-opacity="1" stroke-miterlimit="4"/><path stroke-linecap="butt" transform="matrix(0.463968, 0.000000000000000314, -0.000000000000000314, 0.463968, 736.320617, 253.827341)" fill="none" stroke-linejoin="miter" d="M -0.000656681 1.997045 L 83.922135 1.997045 " stroke="#304269" stroke-width="4" stroke-opacity="1" stroke-miterlimit="4"/><path stroke-linecap="butt" transform="matrix(0, 0.463968, -0.463968, 0, 776.182047, 254.757194)" fill="none" stroke-linejoin="miter" d="M 0.00133224 2.000441 L 34.427526 2.000441 " stroke="#304269" stroke-width="4" stroke-opacity="1" stroke-miterlimit="4"/><path stroke-linecap="butt" transform="matrix(0.463968, 0, 0, 0.463968, 736.320617, 113.147249)" fill="none" stroke-linejoin="miter" d="M -0.000656681 1.997918 L 438.598645 1.997918 " stroke="#304269" stroke-width="4" stroke-opacity="1" stroke-miterlimit="4"/><path stroke-linecap="butt" transform="matrix(0, 0.463968, -0.463968, 0, 940.743655, 114.077777)" fill="none" stroke-linejoin="miter" d="M 0.000750782 1.998518 L 110.890306 1.998518 " stroke="#304269" stroke-width="4" stroke-opacity="1" stroke-miterlimit="4"/><path stroke-linecap="butt" transform="matrix(0.463968, -0.000000000000000115, 0.000000000000000115, 0.463968, 939.818335, 164.59488)" fill="none" stroke-linejoin="miter" d="M -0.00415695 2.00134 L 407.368255 2.00134 " stroke="#304269" stroke-width="4" stroke-opacity="1" stroke-miterlimit="4"/><path stroke-linecap="butt" transform="matrix(0, -0.463968, 0.463968, 0, 1127.894949, 237.954514)" fill="none" stroke-linejoin="miter" d="M 0.00299466 2.002873 L 156.120604 2.002873 " stroke="#304269" stroke-width="4" stroke-opacity="1" stroke-miterlimit="4"/><path stroke-linecap="butt" transform="matrix(0.463968, 0, 0, 0.463968, 1078.885032, 237.028498)" fill="none" stroke-linejoin="miter" d="M 0.00363561 2.001286 L 107.634953 2.001286 " stroke="#304269" stroke-width="4" stroke-opacity="1" stroke-miterlimit="4"/><g clip-path="url(#06ffcb2940)"><path fill="#d9e8f5" d="M 1101.914062 251.34375 L 1128.410156 251.34375 L 1128.410156 385.699219 L 1101.914062 385.699219 Z M 1101.914062 251.34375 " fill-opacity="1" fill-rule="nonzero"/></g><path stroke-linecap="butt" transform="matrix(0.463968, 0, 0, 0.463968, 1101.912599, 250.413905)" fill="none" stroke-linejoin="miter" d="M 0.00315477 2.004114 L 58.003166 2.004114 " stroke="#304269" stroke-width="4" stroke-opacity="1" stroke-miterlimit="4"/><path stroke-linecap="butt" transform="matrix(0, 0.463968, -0.463968, 0, 1129.750029, 251.344548)" fill="none" stroke-linejoin="miter" d="M -0.00172028 2.003838 L 286.369652 2.003838 " stroke="#304269" stroke-width="4" stroke-opacity="1" stroke-miterlimit="4"/><path stroke-linecap="butt" transform="matrix(0, -0.463968, 0.463968, 0, 1141.744053, 357.670579)" fill="none" stroke-linejoin="miter" d="M -0.00279371 1.999754 L 59.495839 1.999754 " stroke="#304269" stroke-width="4" stroke-opacity="1" stroke-miterlimit="4"/><path stroke-linecap="butt" transform="matrix(0.463968, 0, 0, 0.463968, 1142.674293, 329.141516)" fill="none" stroke-linejoin="miter" d="M 0.00320823 2.001854 L 48.043281 2.001854 " stroke="#304269" stroke-width="4" stroke-opacity="1" stroke-miterlimit="4"/><path stroke-linecap="butt" transform="matrix(0, 0.463968, -0.463968, 0, 1165.89206, 314.068101)" fill="none" stroke-linejoin="miter" d="M -0.00365273 1.998447 L 34.489894 1.998447 " stroke="#304269" stroke-width="4" stroke-opacity="1" stroke-miterlimit="4"/><path stroke-linecap="butt" transform="matrix(0.463968, 0, 0, 0.463968, 1152.327476, 313.138509)" fill="none" stroke-linejoin="miter" d="M 0.00139826 1.999916 L 27.237577 1.999916 " stroke="#304269" stroke-width="4" stroke-opacity="1" stroke-miterlimit="4"/><path fill="#304269" d="M 1152.328125 288.546875 L 1154.183594 288.546875 L 1154.183594 290.402344 L 1152.328125 290.402344 M 1156.039062 288.546875 L 1157.894531 288.546875 L 1157.894531 290.402344 L 1156.039062 290.402344 M 1159.75 288.546875 L 1161.605469 288.546875 L 1161.605469 290.402344 L 1159.75 290.402344 M 1163.460938 288.546875 L 1164.964844 288.546875 L 1164.964844 290.402344 L 1163.460938 290.402344 " fill-opacity="1" fill-rule="nonzero"/><path stroke-linecap="butt" transform="matrix(0, 0.463968, -0.463968, 0, 1165.890644, 277.272193)" fill="none" stroke-linejoin="miter" d="M 0.00268176 2.003815 L 26.312746 2.003815 " stroke="#304269" stroke-width="4" stroke-opacity="1" stroke-miterlimit="4"/><path stroke-linecap="butt" transform="matrix(0.282159, -0.36831, 0.36831, 0.282159, 1139.083893, 300.074127)" fill="none" stroke-linejoin="miter" d="M 1.28599 8.767156 C 12.053455 -0.255935 23.457073 -0.252917 35.498408 8.764408 " stroke="#304269" stroke-width="4" stroke-opacity="1" stroke-miterlimit="4"/><path stroke-linecap="butt" transform="matrix(0.290967, 0.361393, -0.361393, 0.290967, 1142.993853, 301.206187)" fill="none" stroke-linejoin="miter" d="M 1.033898 1.712547 C 13.110674 8.971461 24.170034 8.969133 34.206697 1.71212 " stroke="#304269" stroke-width="4" stroke-opacity="1" stroke-miterlimit="4"/><path stroke-linecap="butt" transform="matrix(0.463968, 0, 0, 0.463968, 1142.674293, 276.341257)" fill="none" stroke-linejoin="miter" d="M 0.00320823 2.000728 L 48.043281 2.000728 " stroke="#304269" stroke-width="4" stroke-opacity="1" stroke-miterlimit="4"/><path stroke-linecap="butt" transform="matrix(0.000000000809777, 0.463968, -0.463968, 0.000000000809777, 1143.601125, 150.778695)" fill="none" stroke-linejoin="miter" d="M -0.00291198 2.002831 L 272.628292 2.002831 " stroke="#304269" stroke-width="4" stroke-opacity="1" stroke-miterlimit="4"/><path stroke-linecap="butt" transform="matrix(0.463968, 0, 0, 0.463968, 953.047686, 149.849588)" fill="none" stroke-linejoin="miter" d="M -0.00174856 1.999612 L 408.70932 1.999612 " stroke="#304269" stroke-width="4" stroke-opacity="1" stroke-miterlimit="4"/><path stroke-linecap="butt" transform="matrix(0.401808, -0.231984, 0.231984, 0.401808, 785.484879, 293.093004)" fill="none" stroke-linejoin="miter" d="M -0.00126346 2.003792 L 39.54795 2.001317 " stroke="#304269" stroke-width="4" stroke-opacity="1" stroke-miterlimit="4"/><path stroke-linecap="butt" transform="matrix(0.0700892, -0.458644, 0.458644, 0.0700892, 800.921966, 284.580738)" fill="none" stroke-linejoin="miter" d="M -0.00351529 2.001825 L 90.736038 2.000763 " stroke="#304269" stroke-width="4" stroke-opacity="1" stroke-miterlimit="4"/><path stroke-linecap="butt" transform="matrix(0.463968, 0.000000000000001188, -0.000000000000001188, 0.463968, 808.200134, 242.177057)" fill="none" stroke-linejoin="miter" d="M -0.00197171 2.001024 L 44.400998 2.001024 " stroke="#304269" stroke-width="4" stroke-opacity="1" stroke-miterlimit="4"/><path stroke-linecap="butt" transform="matrix(0, 0.463968, -0.463968, 0, 829.724604, 217.311938)" fill="none" stroke-linejoin="miter" d="M 0.00121158 1.999554 L 307.605859 1.999554 " stroke="#304269" stroke-width="4" stroke-opacity="1" stroke-miterlimit="4"/><path stroke-linecap="butt" transform="matrix(0, 0.463968, -0.463968, 0, 829.72818, 377.655793)" fill="none" stroke-linejoin="miter" d="M 0.00098498 1.998843 L 22.000409 1.998843 " stroke="#304269" stroke-width="4" stroke-opacity="1" stroke-miterlimit="4"/><g clip-path="url(#feb3778f0d)"><path fill="#d9e8f5" d="M 878.085938 407.191406 L 912.800781 407.191406 L 912.800781 413.882812 L 878.085938 413.882812 Z M 878.085938 407.191406 " fill-opacity="1" fill-rule="nonzero"/></g><g clip-path="url(#ceb366b24a)"><path fill="#d9e8f5" d="M 878.234375 387.519531 L 1087.210938 387.519531 L 1087.210938 410.726562 L 878.234375 410.726562 Z M 878.234375 387.519531 " fill-opacity="1" fill-rule="nonzero"/></g><g clip-path="url(#05a9ac3e9b)"><path fill="#d9e8f5" d="M 1019.976562 370.074219 L 1079.027344 370.074219 L 1079.027344 410.171875 L 1019.976562 410.171875 Z M 1019.976562 370.074219 " fill-opacity="1" fill-rule="nonzero"/></g><path stroke-linecap="butt" transform="matrix(0.463968, 0, 0, 0.463968, 828.800293, 386.935138)" fill="none" stroke-linejoin="miter" d="M 0.00105336 2.000446 L 412.888055 2.000446 " stroke="#304269" stroke-width="4" stroke-opacity="1" stroke-miterlimit="4"/><g clip-path="url(#f64b2685ea)"><path fill="#d9e8f5" d="M 924.8125 461.445312 L 961.601562 461.445312 L 961.601562 481.316406 L 924.8125 481.316406 Z M 924.8125 461.445312 " fill-opacity="1" fill-rule="nonzero"/></g><g clip-path="url(#432e1bcb9c)"><path fill="#d9e8f5" d="M 878.765625 464.359375 L 926.144531 464.359375 L 926.144531 476.609375 L 878.765625 476.609375 Z M 878.765625 464.359375 " fill-opacity="1" fill-rule="nonzero"/></g><g clip-path="url(#58dfd0ec85)"><path fill="#d9e8f5" d="M 878.207031 425.933594 L 965.109375 425.933594 L 965.109375 465.660156 L 878.207031 465.660156 Z M 878.207031 425.933594 " fill-opacity="1" fill-rule="nonzero"/></g><path stroke-linecap="butt" transform="matrix(0.000000000809777, -0.463968, 0.463968, 0.000000000809777, 877.336066, 476.933924)" fill="none" stroke-linejoin="miter" d="M 0.000711811 2.003497 L 191.984201 2.003497 " stroke="#304269" stroke-width="4" stroke-opacity="1" stroke-miterlimit="4"/><path stroke-linecap="butt" transform="matrix(0.463968, 0, 0, 0.463968, 878.26753, 476.009492)" fill="none" stroke-linejoin="miter" d="M -0.00410597 2.000155 L 100.782385 2.000155 " stroke="#304269" stroke-width="4" stroke-opacity="1" stroke-miterlimit="4"/><path stroke-linecap="butt" transform="matrix(0, -0.463968, 0.463968, 0, 924.09968, 504.761827)" fill="none" stroke-linejoin="miter" d="M 0.000232465 1.999413 L 59.970341 1.999413 " stroke="#304269" stroke-width="4" stroke-opacity="1" stroke-miterlimit="4"/><path stroke-linecap="butt" transform="matrix(0.463968, 0, 0, 0.463968, 828.800293, 216.38046)" fill="none" stroke-linejoin="miter" d="M 0.00105336 2.000427 L 142.243787 2.000427 " stroke="#304269" stroke-width="4" stroke-opacity="1" stroke-miterlimit="4"/><path stroke-linecap="butt" transform="matrix(0.463968, 0, 0, 0.463968, 904.450497, 216.38046)" fill="none" stroke-linejoin="miter" d="M -0.00275444 2.000427 L 375.965965 2.000427 " stroke="#304269" stroke-width="4" stroke-opacity="1" stroke-miterlimit="4"/><path stroke-linecap="butt" transform="matrix(0.000000000809777, 0.463968, -0.463968, 0.000000000809777, 1010.666907, 204.396293)" fill="none" stroke-linejoin="miter" d="M -0.00379696 2.001487 L 27.830147 2.001487 " stroke="#304269" stroke-width="4" stroke-opacity="1" stroke-miterlimit="4"/><path stroke-linecap="butt" transform="matrix(0.463968, 0.000000000000000154, -0.000000000000000154, 0.463968, 850.754963, 203.467656)" fill="none" stroke-linejoin="miter" d="M -0.00227854 1.997713 L 342.660003 1.997713 " stroke="#304269" stroke-width="4" stroke-opacity="1" stroke-miterlimit="4"/><path stroke-linecap="butt" transform="matrix(0, -0.463968, 0.463968, 0, 833.496996, 217.305419)" fill="none" stroke-linejoin="miter" d="M 0.00157762 2.001829 L 40.203356 2.001829 " stroke="#304269" stroke-width="4" stroke-opacity="1" stroke-miterlimit="4"/><path stroke-linecap="butt" transform="matrix(0.463968, 0, 0, 0.463968, 834.427884, 197.728839)" fill="none" stroke-linejoin="miter" d="M 0.0038866 1.998868 L 8.212627 1.998868 " stroke="#304269" stroke-width="4" stroke-opacity="1" stroke-miterlimit="4"/><path stroke-linecap="butt" transform="matrix(0, -0.463968, 0.463968, 0, 837.308292, 198.655704)" fill="none" stroke-linejoin="miter" d="M -0.00117593 1.996005 L 59.943675 1.996005 " stroke="#304269" stroke-width="4" stroke-opacity="1" stroke-miterlimit="4"/><path stroke-linecap="butt" transform="matrix(0.463968, -0.000000000000003913, 0.000000000000003913, 0.463968, 838.237284, 169.917609)" fill="none" stroke-linejoin="miter" d="M 0.00214928 1.996131 L 26.977332 1.996131 " stroke="#304269" stroke-width="4" stroke-opacity="1" stroke-miterlimit="4"/><path stroke-linecap="butt" transform="matrix(0.000000000809777, 0.463968, -0.463968, 0.000000000809777, 851.679635, 170.848855)" fill="none" stroke-linejoin="miter" d="M -0.00258284 2.003662 L 72.310104 2.003662 " stroke="#304269" stroke-width="4" stroke-opacity="1" stroke-miterlimit="4"/><g clip-path="url(#1732a8283b)"><path fill="#d9e8f5" d="M 1012.367188 343.535156 L 1078.859375 343.535156 L 1078.859375 372.683594 L 1012.367188 372.683594 Z M 1012.367188 343.535156 " fill-opacity="1" fill-rule="nonzero"/></g><path stroke-linecap="butt" transform="matrix(0, 0.463968, -0.463968, 0, 1079.811504, 217.309828)" fill="none" stroke-linejoin="miter" d="M -0.00266078 2.001628 L 367.597353 2.001628 " stroke="#304269" stroke-width="4" stroke-opacity="1" stroke-miterlimit="4"/><path stroke-linecap="butt" transform="matrix(-0.463968, 0, 0, -0.463968, 1078.88316, 344.480657)" fill="none" stroke-linejoin="miter" d="M 0.000748855 2.00418 L 65.039229 2.00418 " stroke="#304269" stroke-width="4" stroke-opacity="1" stroke-miterlimit="4"/><path stroke-linecap="butt" transform="matrix(0.463968, -0.000000000000000518, 0.000000000000000518, 0.463968, 1012.013403, 342.624788)" fill="none" stroke-linejoin="miter" d="M -0.00363076 1.995813 L 50.814785 1.995813 " stroke="#304269" stroke-width="4" stroke-opacity="1" stroke-miterlimit="4"/><path stroke-linecap="butt" transform="matrix(0, 0.463968, -0.463968, 0, 1012.938939, 343.555109)" fill="none" stroke-linejoin="miter" d="M -0.000908718 1.998457 L 62.436032 1.998457 " stroke="#304269" stroke-width="4" stroke-opacity="1" stroke-miterlimit="4"/><path stroke-linecap="butt" transform="matrix(0.463968, 0, 0, 0.463968, 1012.013403, 371.591368)" fill="none" stroke-linejoin="miter" d="M -0.00363076 2.00049 L 18.005082 2.00049 " stroke="#304269" stroke-width="4" stroke-opacity="1" stroke-miterlimit="4"/><path stroke-linecap="butt" transform="matrix(0.000000000809777, 0.463968, -0.463968, 0.000000000809777, 1021.291587, 372.521221)" fill="none" stroke-linejoin="miter" d="M -0.00364251 2.000796 L 33.067056 2.000796 " stroke="#304269" stroke-width="4" stroke-opacity="1" stroke-miterlimit="4"/><path fill="#304269" d="M 1035.589844 342.625 L 1037.445312 342.625 L 1037.445312 344.480469 L 1035.589844 344.480469 M 1039.300781 342.625 L 1041.15625 342.625 L 1041.15625 344.480469 L 1039.300781 344.480469 M 1043.011719 342.625 L 1044.867188 342.625 L 1044.867188 344.480469 L 1043.011719 344.480469 M 1046.722656 342.625 L 1048.578125 342.625 L 1048.578125 344.480469 L 1046.722656 344.480469 " fill-opacity="1" fill-rule="nonzero"/><g clip-path="url(#9c79552643)"><path fill="#d9e8f5" d="M 1125.363281 389.875 L 1158.4375 389.875 L 1158.4375 410.726562 L 1125.363281 410.726562 Z M 1125.363281 389.875 " fill-opacity="1" fill-rule="nonzero"/></g><g clip-path="url(#c3ceb3c19b)"><path fill="#d9e8f5" d="M 1101.914062 384.207031 L 1137.371094 384.207031 L 1137.371094 410.445312 L 1101.914062 410.445312 Z M 1101.914062 384.207031 " fill-opacity="1" fill-rule="nonzero"/></g><path stroke-linecap="butt" transform="matrix(0, -0.463968, 0.463968, 0, 1100.982143, 410.441903)" fill="none" stroke-linejoin="miter" d="M 0.00107141 2.000166 L 342.91593 2.000166 " stroke="#304269" stroke-width="4" stroke-opacity="1" stroke-miterlimit="4"/><path stroke-linecap="butt" transform="matrix(0.463968, -0.00000000000000069, 0.00000000000000069, 0.463968, 1078.885152, 386.935138)" fill="none" stroke-linejoin="miter" d="M 0.00337697 2.000446 L 18.635112 2.000446 " stroke="#304269" stroke-width="4" stroke-opacity="1" stroke-miterlimit="4"/><path stroke-linecap="butt" transform="matrix(0, 0.463968, -0.463968, 0, 1088.455031, 387.86628)" fill="none" stroke-linejoin="miter" d="M 0.0019549 1.999464 L 48.67347 1.999464 " stroke="#304269" stroke-width="4" stroke-opacity="1" stroke-miterlimit="4"/><path stroke-linecap="butt" transform="matrix(0.463968, 0, 0, 0.463968, 1101.912599, 409.516463)" fill="none" stroke-linejoin="miter" d="M 0.00315477 2.001968 L 122.56175 2.001968 " stroke="#304269" stroke-width="4" stroke-opacity="1" stroke-miterlimit="4"/><path stroke-linecap="butt" transform="matrix(0.000000000809777, -0.463968, 0.463968, 0.000000000809777, 1169.016619, 490.141603)" fill="none" stroke-linejoin="miter" d="M 0.00210864 2.001631 L 224.980524 2.001631 " stroke="#304269" stroke-width="4" stroke-opacity="1" stroke-miterlimit="4"/><path stroke-linecap="butt" transform="matrix(0.463968, 0, 0, 0.463968, 1158.778316, 489.216283)" fill="none" stroke-linejoin="miter" d="M -0.00209535 2.000672 L 24.068457 2.000672 " stroke="#304269" stroke-width="4" stroke-opacity="1" stroke-miterlimit="4"/><path stroke-linecap="butt" transform="matrix(0, 0.463968, -0.463968, 0, 1159.705724, 425.833319)" fill="none" stroke-linejoin="miter" d="M -0.0027746 2.000957 L 138.611275 2.000957 " stroke="#304269" stroke-width="4" stroke-opacity="1" stroke-miterlimit="4"/><path stroke-linecap="butt" transform="matrix(0.463968, -0.000000000000000058, 0.000000000000000058, 0.463968, 1048.710769, 424.904855)" fill="none" stroke-linejoin="miter" d="M 0.000362174 1.998363 L 237.228743 1.998363 " stroke="#304269" stroke-width="4" stroke-opacity="1" stroke-miterlimit="4"/><path stroke-linecap="butt" transform="matrix(0, 0.463968, -0.463968, 0, 1049.638537, 425.832863)" fill="none" stroke-linejoin="miter" d="M -0.00179178 1.999275 L 85.43646 1.999275 " stroke="#304269" stroke-width="4" stroke-opacity="1" stroke-miterlimit="4"/><path stroke-linecap="butt" transform="matrix(0.463968, 0, 0, 0.463968, 1048.710769, 464.545317)" fill="none" stroke-linejoin="miter" d="M 0.000362174 1.998714 L 134.74157 1.998714 " stroke="#304269" stroke-width="4" stroke-opacity="1" stroke-miterlimit="4"/><path stroke-linecap="butt" transform="matrix(0.000000000809777, 0.463968, -0.463968, 0.000000000809777, 1112.152222, 465.475581)" fill="none" stroke-linejoin="miter" d="M 0.00211634 2.003513 L 31.102718 2.003513 " stroke="#304269" stroke-width="4" stroke-opacity="1" stroke-miterlimit="4"/><path stroke-linecap="butt" transform="matrix(0.463968, 0.00000000000000011, -0.00000000000000011, 0.463968, 961.391262, 478.97642)" fill="none" stroke-linejoin="miter" d="M -0.00137263 2.004082 L 322.943095 2.004082 " stroke="#304269" stroke-width="4" stroke-opacity="1" stroke-miterlimit="4"/><path stroke-linecap="butt" transform="matrix(0.000000000809777, -0.463968, 0.463968, 0.000000000809777, 960.461022, 479.902076)" fill="none" stroke-linejoin="miter" d="M -0.000577392 2.003593 L 31.100024 2.003593 " stroke="#304269" stroke-width="4" stroke-opacity="1" stroke-miterlimit="4"/><path stroke-linecap="butt" transform="matrix(0.463968, 0.000000000000003702, -0.000000000000003702, 0.463968, 961.391262, 464.545317)" fill="none" stroke-linejoin="miter" d="M -0.00137263 1.998714 L 8.013725 1.998714 " stroke="#304269" stroke-width="4" stroke-opacity="1" stroke-miterlimit="4"/><path stroke-linecap="butt" transform="matrix(0, -0.463968, 0.463968, 0, 964.181454, 465.473205)" fill="none" stroke-linejoin="miter" d="M 0.00118183 1.999968 L 85.439433 1.999968 " stroke="#304269" stroke-width="4" stroke-opacity="1" stroke-miterlimit="4"/><path stroke-linecap="butt" transform="matrix(-0.463968, 0, 0, -0.463968, 965.109222, 426.760751)" fill="none" stroke-linejoin="miter" d="M -0.000330478 2.001688 L 187.175784 2.001688 " stroke="#304269" stroke-width="4" stroke-opacity="1" stroke-miterlimit="4"/><path stroke-linecap="butt" transform="matrix(0.463968, 0.000000000000000177, -0.000000000000000177, 0.463968, 878.267434, 413.098967)" fill="none" stroke-linejoin="miter" d="M -0.00389906 2.000949 L 74.413593 2.000949 " stroke="#304269" stroke-width="4" stroke-opacity="1" stroke-miterlimit="4"/><path stroke-linecap="butt" transform="matrix(0, -0.463968, 0.463968, 0, 911.862968, 414.026303)" fill="none" stroke-linejoin="miter" d="M -0.00224278 1.99603 L 7.718183 1.99603 " stroke="#304269" stroke-width="4" stroke-opacity="1" stroke-miterlimit="4"/><path stroke-linecap="butt" transform="matrix(0.463968, 0, 0, 0.463968, 912.791504, 409.516463)" fill="none" stroke-linejoin="miter" d="M 0.00315636 2.001968 L 376.620155 2.001968 " stroke="#304269" stroke-width="4" stroke-opacity="1" stroke-miterlimit="4"/><g clip-path="url(#c43d5775b5)"><path fill="#d9e8f5" d="M 977.476562 426.121094 L 1035.523438 426.121094 L 1035.523438 464.917969 L 977.476562 464.917969 Z M 977.476562 426.121094 " fill-opacity="1" fill-rule="nonzero"/></g><path stroke-linecap="butt" transform="matrix(0.463968, 0.000000000000000105, -0.000000000000000105, 0.463968, 977.125157, 424.904855)" fill="none" stroke-linejoin="miter" d="M -0.000338524 1.998363 L 126.010138 1.998363 " stroke="#304269" stroke-width="4" stroke-opacity="1" stroke-miterlimit="4"/><path stroke-linecap="butt" transform="matrix(0, 0.463968, -0.463968, 0, 978.052973, 425.832863)" fill="none" stroke-linejoin="miter" d="M -0.00179178 2.000079 L 85.43646 2.000079 " stroke="#304269" stroke-width="4" stroke-opacity="1" stroke-miterlimit="4"/><path stroke-linecap="butt" transform="matrix(0.463968, 0, 0, 0.463968, 977.125157, 464.545317)" fill="none" stroke-linejoin="miter" d="M -0.000338524 1.998714 L 126.010138 1.998714 " stroke="#304269" stroke-width="4" stroke-opacity="1" stroke-miterlimit="4"/><path stroke-linecap="butt" transform="matrix(0.000000000809777, 0.463968, -0.463968, 0.000000000809777, 1036.51613, 425.832863)" fill="none" stroke-linejoin="miter" d="M -0.00179178 1.996444 L 85.43646 1.996444 " stroke="#304269" stroke-width="4" stroke-opacity="1" stroke-miterlimit="4"/><path stroke-linecap="butt" transform="matrix(0.463968, 0, 0, 0.463968, 1128.824829, 383.280968)" fill="none" stroke-linejoin="miter" d="M -0.00131622 1.995963 L 18.495712 1.995963 " stroke="#304269" stroke-width="4" stroke-opacity="1" stroke-miterlimit="4"/><path stroke-linecap="butt" transform="matrix(0, 0.463968, -0.463968, 0, 1138.335309, 384.20924)" fill="none" stroke-linejoin="miter" d="M 0.00365893 2.00242 L 12.388333 2.00242 " stroke="#304269" stroke-width="4" stroke-opacity="1" stroke-miterlimit="4"/><path stroke-linecap="butt" transform="matrix(0.463968, 0, 0, 0.463968, 1137.407757, 389.030537)" fill="none" stroke-linejoin="miter" d="M -0.00324807 1.996892 L 46.058308 1.996892 " stroke="#304269" stroke-width="4" stroke-opacity="1" stroke-miterlimit="4"/><path stroke-linecap="butt" transform="matrix(0, 0.463968, -0.463968, 0, 1159.703276, 389.961562)" fill="none" stroke-linejoin="miter" d="M -0.00134596 2.0041 L 44.157467 2.0041 " stroke="#304269" stroke-width="4" stroke-opacity="1" stroke-miterlimit="4"/><path stroke-linecap="butt" transform="matrix(0.463968, 0, 0, 0.463968, 1169.947219, 384.832705)" fill="none" stroke-linejoin="miter" d="M -0.0041099 2.002323 L 57.288687 2.002323 " stroke="#304269" stroke-width="4" stroke-opacity="1" stroke-miterlimit="4"/><g clip-path="url(#cb9c76f760)"><path fill="#6c8eb1" d="M 825.898438 533.652344 L 1243.089844 533.652344 L 1243.089844 761.371094 L 825.898438 761.371094 Z M 825.898438 533.652344 " fill-opacity="1" fill-rule="nonzero"/></g><path stroke-linecap="butt" transform="matrix(0.463968, 0.000000000000000037, -0.000000000000000037, 0.463968, 825.109645, 532.131449)" fill="none" stroke-linejoin="miter" d="M -0.000581316 1.998294 L 901.815823 1.998294 " stroke="#304269" stroke-width="4" stroke-opacity="1" stroke-miterlimit="4"/><path stroke-linecap="butt" transform="matrix(0, 0.463968, -0.463968, 0, 1244.45044, 533.061665)" fill="none" stroke-linejoin="miter" d="M 0.0017993 1.997987 L 494.151119 1.997987 " stroke="#304269" stroke-width="4" stroke-opacity="1" stroke-miterlimit="4"/><path stroke-linecap="butt" transform="matrix(0.463968, -0.000000000000000058, 0.000000000000000058, 0.463968, 825.109645, 761.401494)" fill="none" stroke-linejoin="miter" d="M -0.000581316 1.997187 L 901.815823 1.997187 " stroke="#304269" stroke-width="4" stroke-opacity="1" stroke-miterlimit="4"/><path stroke-linecap="butt" transform="matrix(0, -0.463968, 0.463968, 0, 824.179357, 762.327174)" fill="none" stroke-linejoin="miter" d="M -0.00205047 1.996068 L 494.147269 1.996068 " stroke="#304269" stroke-width="4" stroke-opacity="1" stroke-miterlimit="4"/><g clip-path="url(#814adbd9fa)"><g clip-path="url(#eb63e4508b)"><path fill="#6c8eb1" d="M 244.472656 447.476562 L 650.871094 490.316406 L 641.859375 575.804688 L 235.460938 532.964844 Z M 244.472656 447.476562 " fill-opacity="1" fill-rule="nonzero"/></g></g><g clip-path="url(#2c9e3b1ca2)"><g clip-path="url(#c5d22ebad6)"><path fill="#6c8eb1" d="M 214.101562 444.964844 L 245.71875 449.082031 L 234.617188 534.296875 L 203.003906 530.175781 Z M 214.101562 444.964844 " fill-opacity="1" fill-rule="nonzero"/></g></g><g clip-path="url(#fca24626a0)"><g clip-path="url(#0a74f04b22)"><path fill="#6c8eb1" d="M 208.890625 481.316406 L 218.273438 482.601562 L 205.203125 578 L 195.820312 576.714844 Z M 208.890625 481.316406 " fill-opacity="1" fill-rule="nonzero"/></g></g><g clip-path="url(#6401429c07)"><g clip-path="url(#5977c225ed)"><path fill="#6c8eb1" d="M 208.863281 492.050781 L 754.078125 540.066406 L 746.539062 625.695312 L 201.320312 577.679688 Z M 208.863281 492.050781 " fill-opacity="1" fill-rule="nonzero"/></g></g><g clip-path="url(#829498956d)"><g clip-path="url(#e3aa0aec98)"><path fill="#6c8eb1" d="M 753.613281 529.867188 L 785.914062 533.503906 L 775.171875 628.890625 L 742.871094 625.25 Z M 753.613281 529.867188 " fill-opacity="1" fill-rule="nonzero"/></g></g><path stroke-linecap="butt" transform="matrix(-0.0513093, 0.461122, -0.461122, -0.0513093, 786.833583, 533.163041)" fill="none" stroke-linejoin="miter" d="M -0.00363596 2.002967 L 207.692626 2.001894 " stroke="#304269" stroke-width="4" stroke-opacity="1" stroke-miterlimit="4"/><path stroke-linecap="butt" transform="matrix(0.462166, 0.040857, -0.040857, 0.462166, 195.2557, 576.625599)" fill="none" stroke-linejoin="miter" d="M 0.00401657 2.001486 L 1255.142752 2.001651 " stroke="#304269" stroke-width="4" stroke-opacity="1" stroke-miterlimit="4"/><path stroke-linecap="butt" transform="matrix(0.0633332, -0.459625, 0.459625, 0.0633332, 194.252017, 577.419903)" fill="none" stroke-linejoin="miter" d="M -0.000474134 2.001387 L 288.464879 2.001628 " stroke="#304269" stroke-width="4" stroke-opacity="1" stroke-miterlimit="4"/><path stroke-linecap="butt" transform="matrix(0.461485, 0.0479338, -0.0479338, 0.461485, 213.53935, 444.040438)" fill="none" stroke-linejoin="miter" d="M 0.00424318 2.002669 L 532.44707 1.99731 " stroke="#304269" stroke-width="4" stroke-opacity="1" stroke-miterlimit="4"/><path stroke-linecap="butt" transform="matrix(0.0608394, -0.459962, 0.459962, 0.0608394, 458.239495, 470.361908)" fill="none" stroke-linejoin="miter" d="M -0.001475 2.001798 L 920.743293 1.997551 " stroke="#304269" stroke-width="4" stroke-opacity="1" stroke-miterlimit="4"/><path stroke-linecap="butt" transform="matrix(0.463968, 0.000000000000000173, -0.000000000000000173, 0.463968, 515.178436, 46.051054)" fill="none" stroke-linejoin="miter" d="M 0.00269673 2.003186 L 305.426766 2.003186 " stroke="#304269" stroke-width="4" stroke-opacity="1" stroke-miterlimit="4"/><path stroke-linecap="butt" transform="matrix(-0.463968, 0, 0, -0.463968, 825.105133, 578.477559)" fill="none" stroke-linejoin="miter" d="M -0.000724269 1.997503 L 93.646267 1.997503 " stroke="#304269" stroke-width="4" stroke-opacity="1" stroke-miterlimit="4"/><g clip-path="url(#4e8792b188)"><path fill="#6c8eb1" d="M 713.382812 529.867188 L 759.476562 529.867188 L 759.476562 545.683594 L 713.382812 545.683594 Z M 713.382812 529.867188 " fill-opacity="1" fill-rule="nonzero"/></g></svg>